<?xml version="1.0" encoding="UTF-8" standalone="no"?>
<!-- Created with Inkscape (http://www.inkscape.org/) -->

<svg
   xmlns:dc="http://purl.org/dc/elements/1.1/"
   xmlns:cc="http://creativecommons.org/ns#"
   xmlns:rdf="http://www.w3.org/1999/02/22-rdf-syntax-ns#"
   xmlns:svg="http://www.w3.org/2000/svg"
   xmlns="http://www.w3.org/2000/svg"
   xmlns:sodipodi="http://sodipodi.sourceforge.net/DTD/sodipodi-0.dtd"
   xmlns:inkscape="http://www.inkscape.org/namespaces/inkscape"
   width="64"
   height="64"
   viewBox="0 0 16.933333 16.933334"
   version="1.1"
   id="svg8"
   inkscape:version="0.92.4 (5da689c313, 2019-01-14)"
   sodipodi:docname="menu2.svg">
  <title
     id="title1069">Menu Icon</title>
  <defs
     id="defs2" />
  <sodipodi:namedview
     id="base"
     pagecolor="#ffffff"
     bordercolor="#666666"
     borderopacity="1.0"
     inkscape:pageopacity="1"
     inkscape:pageshadow="2"
     inkscape:zoom="2.22106"
     inkscape:cx="44.872111"
     inkscape:cy="42.942994"
     inkscape:document-units="mm"
     inkscape:current-layer="layer1"
     showgrid="false"
     units="px"
     inkscape:window-width="1536"
     inkscape:window-height="801"
     inkscape:window-x="-8"
     inkscape:window-y="-8"
     inkscape:window-maximized="1" />
  <metadata
     id="metadata5">
    <rdf:RDF>
      <cc:Work
         rdf:about="">
        <dc:format>image/svg+xml</dc:format>
        <dc:type
           rdf:resource="http://purl.org/dc/dcmitype/StillImage" />
        <dc:title>Menu Icon</dc:title>
      </cc:Work>
    </rdf:RDF>
  </metadata>
  <g
     inkscape:groupmode="layer"
     id="layer2"
     inkscape:label="Layer 2"
     style="display:inline"
     sodipodi:insensitive="true">
    <rect
       transform="translate(0,-280.06664)"
       style="display:inline;opacity:1;fill:#ffffff;fill-opacity:1;stroke:#060000;stroke-width:0.26458332;stroke-linecap:round;stroke-miterlimit:3.5999999;stroke-dasharray:none;stroke-opacity:1"
       id="rect999"
       width="16.75605"
       height="16.859478"
       x="0.068954937"
       y="280.17499" />
    <path
       transform="translate(0,-280.06664)"
       style="display:inline;opacity:1;fill:#ffffff;fill-opacity:1;stroke:#060000;stroke-width:0.26458332;stroke-linecap:round;stroke-miterlimit:3.5999999;stroke-dasharray:none;stroke-opacity:1"
       d="m 0.62059441,281.00244 c -0.0688266,0.19721 -0.0689549,0.36142 -0.0689549,0.55164 0,0.0115 0,0.023 0,0.0345 0,0.0115 0.00514,0.0242 0,0.0345 -0.007268,0.0145 -0.027209,0.0199 -0.0344775,0.0345 -0.005246,0.0105 0,0.0879 0,0.10343 0,0.069 0,0.13791 0,0.20687 0,0.0244 -0.004457,0.19795 0,0.20686 0.007268,0.0145 0.027209,0.0199 0.0344775,0.0345 0.00514,0.0103 -0.008126,0.0263 0,0.0345 0.008126,0.008 0.0263512,-0.008 0.0344775,0 0.0162528,0.0163 -0.0102793,0.0484 0,0.069 0.007268,0.0145 0.027209,0.0199 0.0344775,0.0345 0.00514,0.0103 -0.00514,0.0242 0,0.0345 0.007268,0.0145 0.027209,0.0199 0.0344775,0.0345 0.004533,0.009 0,0.11989 0,0.13791 0,0.10344 0,0.20687 0,0.3103 0,0.34478 0,0.68955 0,1.03433 0,0.0689 0,0.13791 0,0.20686 0,0.023 0,0.046 0,0.069 0,0.023 -0.007268,0.0471 0,0.0689 0.00514,0.0154 0.027209,0.0199 0.0344775,0.0345 0.00514,0.0103 -0.00514,0.0242 0,0.0345 0.007269,0.0145 0.027209,0.0199 0.0344775,0.0345 0.00514,0.0103 0,0.023 0,0.0345 0,0.0115 0,0.023 0,0.0345 0,0.0575 0,0.11492 0,0.17239 0,0.17238 0,0.34477 0,0.51716 0,0.0919 0,0.18388 0,0.27582 0,0.018 0.004533,0.12884 0,0.13791 -0.007268,0.0145 -0.027209,0.0199 -0.0344775,0.0345 -0.00514,0.0103 0.00514,0.0242 0,0.0345 -0.007268,0.0145 -0.027209,0.0199 -0.0344775,0.0345 -0.0102793,0.0206 0.0102793,0.0484 0,0.069 -0.007268,0.0145 -0.027209,0.0199 -0.0344775,0.0345 -0.007362,0.0147 0,0.15876 0,0.17239 0,0.12642 0,0.25283 0,0.37925 0,0.0155 0.005246,0.0929 0,0.10343 -0.007268,0.0145 -0.027209,0.0199 -0.0344775,0.0345 -0.00514,0.0103 0,0.023 0,0.0345 0,0.0115 0,0.023 0,0.0345 0,0.0575 0,0.11492 0,0.17238 0,0.018 -0.004533,0.12885 0,0.13791 0.007268,0.0145 0.027209,0.0199 0.0344775,0.0345 0.00514,0.0103 0,0.023 0,0.0345 0,0.0115 0,0.023 0,0.0345 0,0.0689 0,0.13791 0,0.20686 0,0.20686 0,0.41373 0,0.62059 0,0.0575 0,0.11493 0,0.17239 0,0.023 0,0.046 0,0.069 0,0.0115 -0.00514,0.0242 0,0.0345 0.007268,0.0145 0.027209,0.02 0.0344775,0.0345 0.00601,0.012 0,0.18156 0,0.20687 0,0.13791 0,0.27582 0,0.41373 0,0.024 -0.006234,0.15992 0,0.17238 0.007269,0.0145 0.027209,0.0199 0.0344775,0.0345 0.0102793,0.0206 -0.007268,0.0472 0,0.069 0.008126,0.0244 0.0263512,0.0446 0.0344775,0.069 0.0108273,0.0325 -0.0111765,0.18451 0,0.20687 0.007268,0.0145 0.027209,0.0199 0.0344775,0.0345 0.010835,0.0217 -0.010835,0.11624 0,0.13791 0.007268,0.0145 0.027209,0.0199 0.0344775,0.0345 0.00514,0.0103 0,0.023 0,0.0345 0,0.0115 0,0.023 0,0.0345 0,0.0575 0,0.11492 0,0.17238 0,0.0115 0,0.023 0,0.0345 0,0.0115 -0.00514,0.0242 0,0.0345 0.007268,0.0145 0.027209,0.0199 0.0344775,0.0345 0.00514,0.0103 -0.00514,0.0242 0,0.0345 0.007268,0.0145 0.0293379,0.0191 0.0344775,0.0345 0.005921,0.0178 0,0.20487 0,0.24134 0,0.1609 0,0.32179 0,0.48269 0,0.0804 0,0.16089 0,0.24134 0,0.023 0,0.046 0,0.069 0,0.023 0.0102793,0.0484 0,0.069 -0.00514,0.0103 -0.0293379,-0.0103 -0.0344775,0 -0.0102793,0.0206 0.007268,0.0472 0,0.069 -0.00514,0.0154 -0.027209,0.0199 -0.0344775,0.0345 -0.010835,0.0217 0.010835,0.11624 0,0.13791 -0.007268,0.0145 -0.0229849,0.023 -0.0344775,0.0345 0,0.023 0.007268,0.0472 0,0.069 -0.00514,0.0154 -0.0293379,0.0191 -0.0344775,0.0345 -0.0109027,0.0327 0.0109027,0.0707 0,0.10343 -0.008126,0.0244 -0.0263512,0.0446 -0.0344775,0.069 -0.007268,0.0218 0.0102793,0.0484 0,0.069 -0.007268,0.0145 -0.027209,0.0199 -0.0344775,0.0345 -0.004594,0.009 0,0.19127 0,0.20687 0,0.17238 0,0.34477 0,0.51716 0,0.0347 0.006356,0.1878 0,0.20686 -0.00514,0.0154 -0.027209,0.0199 -0.0344775,0.0345 -0.00514,0.0103 0,0.023 0,0.0345 0,0.023 0,0.046 0,0.069 0,0.069 0,0.13791 0,0.20687 0,0.023 0.005575,0.0466 0,0.069 -0.006233,0.0249 -0.0263512,0.0446 -0.0344775,0.069 -0.00622,0.0187 0,0.12616 0,0.13791 0,0.069 0,0.13791 0,0.20686 0,0.13791 0,0.27582 0,0.41373 0,0.0292 -0.005719,0.18399 0,0.20687 0.006233,0.0249 0.0263509,0.0446 0.0344775,0.0689 0.007268,0.0218 -0.0102793,0.0484 0,0.069 0.007268,0.0145 0.027209,0.0199 0.0344775,0.0345 0.00514,0.0103 0,0.023 0,0.0345 0,0.023 -0.007268,0.0472 0,0.069 0.00514,0.0154 0.027209,0.0199 0.0344775,0.0345 0.00514,0.0103 -0.00514,0.0242 0,0.0345 0.007269,0.0145 0.027209,0.0199 0.0344775,0.0345 0.007362,0.0147 0,0.15876 0,0.17239 0,0.10343 0,0.20686 0,0.31029 0,0.27582 0,0.55164 0,0.82746 0,0.0805 0,0.1609 0,0.24134 0,0.0155 0.005246,0.0929 0,0.10344 -0.007268,0.0145 -0.027209,0.0199 -0.0344775,0.0345 -0.004533,0.009 0,0.11988 0,0.13791 0,0.11493 0,0.22985 0,0.34478 0,0.0345 0,0.069 0,0.10343 0,0.0115 0,0.046 0,0.0345 0,-0.023 0,-0.0919 0,-0.069 0,0.0345 0,0.069 0,0.10344 0,0.0115 0.0114924,0.0345 0,0.0345 -0.0114924,0 -0.0114924,-0.0345 0,-0.0345 0.0162528,0 0.0199406,0.0272 0.0344775,0.0345 0.0102793,0.005 0.0229849,0 0.0344775,0 0.0689549,0 0.13790988,0 0.2068648,0 0.0114924,0 0.0263512,0.008 0.0344775,0 0.008126,-0.008 -0.008126,-0.0263 0,-0.0345 0.008126,-0.008 0.0241983,0.005 0.0344775,0 0.014537,-0.007 0.019941,-0.0272 0.034477,-0.0345 0.010279,-0.005 0.022985,0 0.034477,0 0.040725,0 0.1863625,0.007 0.2068648,0 0.015419,-0.005 0.019941,-0.0272 0.034477,-0.0345 0.027582,-0.0138 0.07585,0.0138 0.1034324,0 0.014537,-0.007 0.019941,-0.0272 0.034478,-0.0345 0.010492,-0.005 0.087905,0 0.1034324,0 0.080447,0 0.1608948,0 0.2413422,0 0.586117,0 1.172234,0 1.7583509,0 0.2643272,0 0.5286544,0 0.7929816,0 0.068955,0 0.1379098,0 0.2068648,0 0.022984,0 0.04597,0 0.068955,0 0.022984,0 0.046656,0.006 0.068955,0 0.024932,-0.006 0.044024,-0.0282 0.068955,-0.0345 0.022299,-0.006 0.046656,0.006 0.068955,0 0.024932,-0.006 0.044024,-0.0283 0.068955,-0.0345 0.054082,-0.0135 0.118305,0.0135 0.1723871,0 0.024932,-0.006 0.044024,-0.0282 0.068955,-0.0345 0.059861,-0.015 0.1470033,0.015 0.2068648,0 0.024932,-0.006 0.044024,-0.0282 0.068955,-0.0345 0.022299,-0.006 0.04597,0 0.068955,0 0.022185,0 0.2180098,0.006 0.2413423,0 0.024932,-0.006 0.043756,-0.0294 0.068955,-0.0345 0.033808,-0.007 0.068955,0 0.1034323,0 0.034478,0 0.069624,-0.007 0.1034325,0 0.025199,0.005 0.044024,0.0282 0.068955,0.0345 0.023334,0.006 0.2191557,0 0.2413423,0 0.1494023,0 0.2988046,0 0.4482071,0 0.3677594,0 0.7355192,0 1.1032789,0 0.1379098,0 0.2758196,0 0.4137295,0 0.034477,0 0.068955,0 0.1034325,0 0.022984,0 0.046416,-0.004 0.068955,0 0.035637,0.007 0.067796,0.0274 0.1034325,0.0345 0.022537,0.005 0.046416,-0.005 0.068955,0 0.035637,0.007 0.067796,0.0274 0.1034322,0.0345 0.045077,0.009 0.09194,0 0.1379101,0 0.09194,0 0.1838796,0 0.2758197,0 0.034477,0 0.068955,0 0.1034322,0 0.022984,0 0.046656,-0.006 0.068955,0 0.024932,0.006 0.044024,0.0282 0.068955,0.0345 0.022299,0.006 0.04597,0 0.068955,0 0.034477,0 0.068955,0 0.1034323,0 0.1264173,0 0.2528347,0 0.3792521,0 0.3299592,0 -0.077094,-0.0154 0.1723872,0.0345 0.03346,0.007 0.234909,0 0.27582,0 0.149402,0 0.298805,0 0.448207,0 0.08045,0 0.160895,0 0.241342,0 0.02299,0 0.04666,0.006 0.06896,0 0.02493,-0.006 0.04458,-0.0263 0.06895,-0.0345 0.03271,-0.0109 0.06999,0.008 0.103433,0 0.02493,-0.006 0.04402,-0.0283 0.06895,-0.0345 0.0446,-0.0111 0.09331,0.0112 0.137909,0 0.02493,-0.006 0.04376,-0.0294 0.06896,-0.0345 0.03381,-0.007 0.06962,0.007 0.103433,0 0.249481,-0.0499 -0.157572,-0.0345 0.172387,-0.0345 0.36776,0 0.735519,0 1.103279,0 0.114925,0 0.22985,0 0.344775,0 0.02298,0 0.04597,0 0.06896,0 0.02298,0 0.04666,0.006 0.06895,0 0.02493,-0.006 0.04402,-0.0282 0.06896,-0.0345 0.0223,-0.006 0.04597,0 0.06895,0 0.09194,0 0.18388,0 0.27582,0 0.02298,0 0.04597,0 0.06896,0 0.02298,0 0.04666,0.006 0.06896,0 0.158468,-0.0396 0.0078,-0.0345 0.103432,-0.0345 0.09194,0 0.18388,0 0.27582,0 0.03448,0 0.06998,0.008 0.103432,0 0.02493,-0.006 0.04458,-0.0263 0.06896,-0.0345 0.0109,-0.004 0.02299,0 0.03448,0 0.02298,0 0.04597,0 0.06895,0 0.09194,0 0.18388,0 0.27582,0 0.05746,0 0.114924,0 0.172387,0 0.02298,0 0.04666,-0.006 0.06896,0 0.02493,0.006 0.04458,0.0263 0.06895,0.0345 0.01945,0.006 0.08078,0 0.103432,0 0.08045,0 0.160895,0 0.241342,0 0.22985,0 0.4597,0 0.68955,0 0.01266,0 0.136522,0.001 0.13791,0 0.0081,-0.008 0.0081,-0.0263 0,-0.0345 -0.0081,-0.008 -0.02635,0.008 -0.03448,0 -0.0081,-0.008 0.0081,-0.0264 0,-0.0345 -0.0081,-0.008 -0.02635,0.008 -0.03448,0 -0.01625,-0.0163 0.01028,-0.0484 0,-0.0689 -0.0073,-0.0145 -0.02721,-0.0199 -0.03448,-0.0345 -0.0051,-0.0103 0.0051,-0.0242 0,-0.0345 -0.0073,-0.0145 -0.02721,-0.0199 -0.03448,-0.0345 -0.01084,-0.0217 0.01083,-0.11624 0,-0.13791 -0.0073,-0.0145 -0.02721,-0.0199 -0.03448,-0.0345 -0.0051,-0.0103 0,-0.023 0,-0.0345 0,-0.0115 0,-0.023 0,-0.0345 0,-0.0325 0.0065,-0.15277 0,-0.17238 -0.0051,-0.0154 -0.02934,-0.0191 -0.03448,-0.0345 -0.0073,-0.0218 0,-0.046 0,-0.069 0,-0.0246 0.0059,-0.18921 0,-0.20686 -0.0051,-0.0154 -0.02721,-0.0199 -0.03448,-0.0345 -0.0052,-0.0105 0,-0.0879 0,-0.10343 0,-0.069 0,-0.13791 0,-0.20686 0,-0.0115 0,-0.023 0,-0.0345 0,-0.0115 0.0081,-0.0263 0,-0.0345 -0.0081,-0.008 -0.02934,0.0103 -0.03448,0 -0.0041,-0.008 0,-0.11526 0,-0.13791 0,-0.12642 0,-0.25283 0,-0.37925 0,-0.1494 0,-0.29881 0,-0.44821 0,-0.024 0.0062,-0.15992 0,-0.17239 -0.0073,-0.0145 -0.02934,-0.019 -0.03448,-0.0345 -0.0065,-0.0196 0,-0.13992 0,-0.17239 0,-0.12642 0,-0.25284 0,-0.37925 0,-0.018 -0.0045,-0.12885 0,-0.13791 0.0073,-0.0145 0.02721,-0.0199 0.03448,-0.0345 0.01084,-0.0217 -0.01084,-0.11624 0,-0.13791 0.0073,-0.0145 0.02721,-0.0199 0.03448,-0.0345 0.0051,-0.0103 0,-0.023 0,-0.0345 0,-0.0115 0,-0.023 0,-0.0345 0,-0.069 0,-0.13791 0,-0.20687 0,-0.0115 0,-0.023 0,-0.0345 0,-0.0115 -0.0081,-0.0263 0,-0.0345 0.0081,-0.008 0.02635,0.008 0.03448,0 0.0081,-0.008 0,-0.023 0,-0.0345 0,-0.024 -0.0062,-0.15992 0,-0.17239 0.0073,-0.0145 0.02721,-0.0199 0.03448,-0.0345 0.01129,-0.0226 -0.0102,-0.1418 0,-0.17239 0.0081,-0.0244 0.02635,-0.0446 0.03448,-0.069 0.0072,-0.0216 0,-0.11015 0,-0.13791 0,-0.0919 0,-0.18388 0,-0.27582 0,-0.13791 0,-0.27582 0,-0.41373 0,-0.0361 0.007,-0.17882 0,-0.20686 -0.0062,-0.0249 -0.02635,-0.0446 -0.03448,-0.069 -0.007,-0.021 0,-0.18023 0,-0.20686 0,-0.0115 0.0051,-0.0242 0,-0.0345 -0.0073,-0.0145 -0.02721,-0.0199 -0.03448,-0.0345 -0.0052,-0.0105 0,-0.0879 0,-0.10343 0,-0.0804 0,-0.16089 0,-0.24134 0,-0.29881 0,-0.59761 0,-0.89641 0,-0.10344 0,-0.20687 0,-0.3103 0,-0.0345 0.0109,-0.0707 0,-0.10343 -0.0051,-0.0154 -0.02721,-0.0199 -0.03448,-0.0345 -0.01026,-0.0205 0.0097,-0.14336 0,-0.17239 -0.0081,-0.0244 -0.02635,-0.0446 -0.03448,-0.0689 -0.0069,-0.0207 0,-0.14488 0,-0.17239 0,-0.069 0,-0.13791 0,-0.20687 0,-0.0345 0.0109,-0.0707 0,-0.10343 -0.0051,-0.0154 -0.02721,-0.0199 -0.03448,-0.0345 -0.0051,-0.0103 0,-0.023 0,-0.0345 0,-0.023 0.0073,-0.0471 0,-0.069 -0.0051,-0.0154 -0.02721,-0.0199 -0.03448,-0.0345 -0.0074,-0.0147 0,-0.15875 0,-0.17238 0,-0.0804 0,-0.1609 0,-0.24135 0,-0.0345 -0.0084,-0.07 0,-0.10343 0.0062,-0.0249 0.02635,-0.0446 0.03448,-0.069 0.0065,-0.0195 0,-0.0808 0,-0.10344 0,-0.0575 0,-0.11492 0,-0.17238 0,-0.0115 0,-0.023 0,-0.0345 0,-0.0115 -0.0051,-0.0242 0,-0.0345 0.0073,-0.0145 0.02721,-0.0199 0.03448,-0.0345 0.01028,-0.0206 -0.01028,-0.0484 0,-0.069 0.0073,-0.0145 0.02721,-0.0199 0.03448,-0.0345 0.0051,-0.0103 0,-0.023 0,-0.0345 0,-0.0115 0,-0.023 0,-0.0345 0,-0.0247 -0.0059,-0.18922 0,-0.20687 0.0051,-0.0154 0.02721,-0.0199 0.03448,-0.0345 0.0052,-0.0105 0,-0.0879 0,-0.10344 0,-0.069 0,-0.13791 0,-0.20686 0,-0.11493 0,-0.22985 0,-0.34478 0,-0.0199 0.0063,-0.15982 0,-0.17238 -0.0073,-0.0145 -0.02934,-0.0191 -0.03448,-0.0345 -0.0064,-0.0191 0,-0.23449 0,-0.27582 0,-0.0115 0,-0.023 0,-0.0345 0,-0.0115 0.0051,-0.0242 0,-0.0345 -0.0073,-0.0145 -0.02721,-0.0199 -0.03448,-0.0345 -0.0052,-0.0105 0,-0.0879 0,-0.10344 0,-0.10343 0,-0.20686 0,-0.31029 0,-0.0244 -0.0045,-0.19795 0,-0.20687 0.0073,-0.0145 0.02934,-0.0191 0.03448,-0.0345 0.0073,-0.0218 0,-0.046 0,-0.0689 0,-0.0115 -0.0051,-0.0242 0,-0.0345 0.0073,-0.0145 0.02934,-0.0191 0.03448,-0.0345 0.0078,-0.0235 -0.0091,-0.15411 0,-0.17239 0.0073,-0.0145 0.02721,-0.0199 0.03448,-0.0345 0.0052,-0.0105 0,-0.0879 0,-0.10343 0,-0.069 0,-0.13791 0,-0.20687 0,-0.0345 -0.0109,-0.0707 0,-0.10343 0.0051,-0.0154 0.02721,-0.0199 0.03448,-0.0345 0.0052,-0.0105 0,-0.1141 0,-0.13791 0,-0.0919 0,-0.18388 0,-0.27582 0,-0.018 -0.0045,-0.12884 0,-0.13791 0.0073,-0.0145 0.02934,-0.019 0.03448,-0.0345 0.0064,-0.0191 0,-0.17215 0,-0.20687 0,-0.1494 0,-0.2988 0,-0.44821 0,-0.4482 0,-0.89641 0,-1.34462 0,-0.16089 0,-0.32179 0,-0.48268 0,-0.0115 0,-0.023 0,-0.0345 0,-0.0115 0.0081,-0.0263 0,-0.0345 -0.0081,-0.008 -0.02635,0.008 -0.03448,0 -0.0094,-0.009 0.0093,-0.1192 0,-0.13791 -0.0073,-0.0145 -0.02721,-0.0199 -0.03448,-0.0345 -0.0051,-0.0103 0.0081,-0.0263 0,-0.0345 -0.007,-0.007 -0.08976,0.007 -0.103432,0 -0.01454,-0.007 -0.01994,-0.0272 -0.03448,-0.0345 -0.02758,-0.0138 -0.07585,0.0138 -0.103432,0 -0.01454,-0.007 -0.01994,-0.0272 -0.03448,-0.0345 -0.01049,-0.005 -0.0879,0 -0.103432,0 -0.06895,0 -0.13791,0 -0.206865,0 -0.114925,0 -0.229849,0 -0.344774,0 -0.01174,0 -0.119251,-0.006 -0.13791,0 -0.02438,0.008 -0.04402,0.0282 -0.06896,0.0345 -0.0223,0.006 -0.04597,0 -0.06895,0 -0.02298,0.0115 -0.04458,0.0263 -0.06896,0.0345 -0.0109,0.004 -0.02298,0 -0.03448,0 -0.02299,0 -0.04597,0 -0.06896,0 -0.103433,0 -0.206865,0 -0.310298,0 -0.03448,0 -0.06998,-0.008 -0.103432,0 -0.02493,0.006 -0.04402,0.0282 -0.06896,0.0345 -0.0446,0.0111 -0.09331,-0.0111 -0.13791,0 -0.02493,0.006 -0.04402,0.0282 -0.06896,0.0345 -0.02622,0.007 -0.143516,0 -0.172387,0 -0.103432,0 -0.206865,0 -0.310297,0 -0.04597,0 -0.09283,-0.009 -0.13791,0 -0.03564,0.007 -0.0678,0.0274 -0.103433,0.0345 -0.02254,0.005 -0.04666,-0.006 -0.06895,0 -0.02493,0.006 -0.04402,0.0282 -0.06896,0.0345 -0.04994,0.0125 -0.15698,-0.01 -0.206865,0 -0.0252,0.005 -0.04402,0.0282 -0.06896,0.0345 -0.03345,0.008 -0.06896,0 -0.103433,0 -0.06895,0 -0.137909,0 -0.206864,0 -0.01149,0 -0.02357,-0.004 -0.03448,0 -0.02438,0.008 -0.04402,0.0282 -0.06895,0.0345 -0.03125,0.008 -0.132336,0 -0.172387,0 -0.02299,0 -0.04715,-0.007 -0.06896,0 -0.01542,0.005 -0.01906,0.0293 -0.03448,0.0345 -0.02181,0.007 -0.04597,0 -0.06896,0 -0.02299,0.0115 -0.04458,0.0263 -0.06895,0.0345 -0.0109,0.004 -0.02299,0 -0.03448,0 -0.02298,0 -0.04597,0 -0.06896,0 -0.05746,0 -0.114925,0 -0.172387,0 -0.195372,0 -0.390745,0 -0.586117,0 -0.195372,0 -0.390745,0 -0.586117,0 -0.05746,0 -0.114925,0 -0.172387,0 -0.03448,0 -0.07072,0.0109 -0.103433,0 -0.01542,-0.005 -0.01906,-0.0293 -0.03448,-0.0345 -0.05172,-0.0172 -0.120671,0.0172 -0.172387,0 -0.01542,-0.005 -0.01906,-0.0293 -0.03448,-0.0345 -0.01578,-0.005 -0.153143,0 -0.172387,0 -0.1379102,0 -0.27582,0 -0.4137298,0 -0.2643273,0 -0.5286545,0 -0.7929817,0 -0.1149249,0 -0.2298499,0 -0.3447748,0 -0.022984,0 -0.04597,0 -0.068955,0 -0.022984,0 -0.046656,0.006 -0.068955,0 -0.024932,-0.006 -0.044024,-0.0282 -0.068955,-0.0345 -0.02622,-0.007 -0.1435163,0 -0.1723874,0 -0.022984,0 -0.046656,0.006 -0.068955,0 -0.024932,-0.006 -0.044024,-0.0282 -0.068955,-0.0345 -0.022299,-0.006 -0.04597,0 -0.068955,0 -0.022984,0 -0.04597,0 -0.068955,0 -0.09194,0 -0.1838799,0 -0.2758197,0 -0.1723874,0 -0.3447748,0 -0.517162,0 -0.057462,0 -0.1149249,0 -0.1723874,0 -0.022984,0 -0.046416,-0.005 -0.068955,0 -0.035637,0.007 -0.068175,0.0257 -0.1034325,0.0345 -0.031164,0.008 -0.1663438,0 -0.2068647,0 -0.2183572,0 -0.4367147,0 -0.6550719,0 -0.080447,0 -0.1608949,0 -0.2413423,0 -0.034477,0 -0.069984,0.008 -0.1034325,0 -0.024932,-0.006 -0.044024,-0.0282 -0.068955,-0.0345 -0.022299,-0.006 -0.04597,0 -0.068955,0 -0.080447,0 -0.1608947,0 -0.2413421,0 -0.022984,0 -0.047149,0.007 -0.068955,0 -0.015417,-0.005 -0.019058,-0.0293 -0.034477,-0.0345 -0.021804,-0.007 -0.04597,0 -0.068955,0 -0.022984,0 -0.04597,0 -0.068955,0 -0.068955,0 -0.1379098,0 -0.2068648,0 -0.022984,0 -0.046656,0.006 -0.068955,0 -0.024932,-0.006 -0.044576,-0.0264 -0.068955,-0.0345 -0.022339,-0.007 -0.1441607,0 -0.1723872,0 -0.1034325,0 -0.206865,0 -0.3102972,0 -0.1034325,0 -0.2068648,0 -0.3102973,0 -0.04597,0 -0.092833,0.009 -0.1379098,0 -0.035637,-0.007 -0.067796,-0.0274 -0.1034325,-0.0345 -0.054582,-0.0109 -0.155252,0.0129 -0.2068648,0 -0.024932,-0.006 -0.043756,-0.0294 -0.068955,-0.0345 -0.033808,-0.007 -0.068955,0 -0.1034325,0 -0.1034322,0 -0.2068647,0 -0.310297,0 -0.022984,0 -0.04597,0 -0.068955,0 -0.022984,0 -0.046656,0.006 -0.068955,0 -0.024932,-0.006 -0.044024,-0.0283 -0.068955,-0.0345 -0.02712,-0.007 -0.1710107,0 -0.2068647,0 -0.068955,0 -0.1379098,0 -0.2068648,0 -0.022985,0 -0.046656,0.006 -0.068955,0 -0.024931,-0.006 -0.044024,-0.0282 -0.068955,-0.0345 -0.033448,-0.008 -0.068955,0 -0.1034324,0 -0.068955,0 -0.1379099,0 -0.2068648,0 -0.011493,0 -0.023575,0.004 -0.034477,0 -0.024379,-0.008 -0.044576,-0.0264 -0.068955,-0.0345 -0.020076,-0.007 -0.1831419,0 -0.2068648,0 -0.1149249,0 -0.2298498,0 -0.3447747,0 -0.057462,0 -0.1149249,0 -0.17238719,0 -0.0114924,0 -0.0263512,-0.008 -0.0344775,0 -0.008126,0.008 0.008126,0.0263 0,0.0345 -0.008126,0.008 -0.0229849,0 -0.0344775,0 -0.0114924,0 -0.0229849,0 -0.0344775,0 -0.0689549,0 -0.13790985,0 -0.20686479,0 -0.0114924,0 -0.0229849,0 -0.0344775,0 -0.0114924,0 -0.0241983,-0.005 -0.0344775,0 -0.014537,0.007 -0.0199406,0.0272 -0.0344775,0.0345 -0.0102791,0.005 -0.0263509,-0.008 -0.0344775,0 -0.008126,0.008 0.008126,0.0263 0,0.0345 -0.008126,0.008 -0.0263512,-0.008 -0.0344775,0 -0.008126,0.008 0,0.023 0,0.0345 -0.0114924,0 -0.0263512,-0.008 -0.0344775,0 -0.008126,0.008 0.008126,0.0263 0,0.0345 -0.008126,0.008 -0.0263512,-0.008 -0.0344775,0 -0.0162528,0.0163 0.0162528,0.0527 0,0.069 -0.008126,0.008 -0.0263512,-0.008 -0.0344775,0 -0.008126,0.008 0.00514,0.0242 0,0.0345 -0.0253651,0.0507 -0.0540964,0.0345 -0.1034324,0.0345"
       id="path1003"
       inkscape:connector-curvature="0" />
  </g>
  <g
     inkscape:label="Layer 1"
     inkscape:groupmode="layer"
     id="layer1"
     transform="translate(0,-280.06665)"
     style="display:inline">
    <path
       style="opacity:1;fill:#ffc8c8;fill-opacity:1;stroke:#060000;stroke-width:0.26458332;stroke-linecap:round;stroke-miterlimit:3.5999999;stroke-dasharray:none;stroke-opacity:1"
       d="m 2.3585508,281.79575 c -0.084234,0.15443 -0.1684679,0.30886 -0.2527019,0.46329 0,0.014 0.012557,0.0358 0,0.0421 -0.025114,0.0125 -0.056156,0 -0.084234,0 -0.014039,0 -0.030436,-0.008 -0.042117,0 -0.033039,0.022 -0.051195,0.0622 -0.084234,0.0842 -0.011681,0.008 -0.02956,-0.006 -0.042117,0 -0.1927528,0.0964 0.1787199,-0.0174 -0.1263509,0.0842 -0.1253752,0.0418 0.086416,-0.0997 -0.1263509,0.0421 -0.01652,0.011 -0.028078,0.0281 -0.042117,0.0421 -0.014039,0.014 -0.033238,0.0244 -0.042117,0.0421 -0.00628,0.0126 0.00993,0.0322 0,0.0421 -0.019854,0.0199 -0.06438,-0.0199 -0.084234,0 -0.00993,0.01 0.00628,0.0296 0,0.0421 -0.08764,0.17528 0.00291,-0.045 -0.084234,0.0421 -0.00993,0.01 0.014039,0.0421 0,0.0421 -0.014039,0 -0.00993,-0.052 0,-0.0421 0.022198,0.0222 0.024704,0.0581 0.042117,0.0842 0.02556,0.0383 0.107686,0.089 0.1263509,0.12635 0.00628,0.0126 -0.00993,0.0322 0,0.0421 0.022198,0.0222 0.058114,0.0247 0.084234,0.0421 0.033039,0.022 0.056156,0.0562 0.084234,0.0842 0.070195,0.0702 0.1403899,0.14039 0.2105849,0.21059 0.028078,0.0281 0.052467,0.0604 0.084234,0.0842 0.025114,0.0188 0.062036,0.0199 0.084234,0.0421 0.022198,0.0222 0.023282,0.0591 0.042117,0.0842 0.023825,0.0318 0.056156,0.0562 0.084234,0.0842 0.028078,0.0281 0.052467,0.0604 0.084234,0.0842 0.025114,0.0188 0.062036,0.0199 0.084234,0.0421 0.022197,0.0222 0.023282,0.0591 0.042117,0.0842 0.1821681,0.18217 0.0066,-0.0112 0.1263509,0.16847 0.013712,0.0206 0.1479,0.15475 0.1684679,0.16847 0.061376,0.0409 0.087724,0.0263 0.1263509,0.0842 0.017413,0.0261 0.023282,0.0591 0.042117,0.0842 0.023826,0.0318 0.056156,0.0562 0.084234,0.0842 0.048055,0.048 0.1712637,0.15815 0.210585,0.21058 0.018836,0.0251 0.023281,0.0591 0.042117,0.0842 0.023826,0.0318 0.062208,0.0512 0.084234,0.0842 0.00779,0.0117 -0.00628,0.0296 0,0.0421 0.00888,0.0178 0.028078,0.0281 0.042117,0.0421 0.032897,0.0329 0.1021223,0.09 0.126351,0.12635 0.017412,0.0261 0.023281,0.0591 0.042117,0.0842 0.1105305,0.14737 0.045477,0.0341 0.1684679,0.12635 0.031767,0.0238 0.056156,0.0562 0.084234,0.0842 0.056156,0.0562 0.1123119,0.11232 0.1684678,0.16847 0.014039,0.014 0.026234,0.0302 0.042117,0.0421 0.040495,0.0304 0.086825,0.0526 0.126351,0.0842 0.031007,0.0248 0.050184,0.0638 0.084234,0.0842 0.038069,0.0228 0.088283,0.0193 0.126351,0.0421 0.03405,0.0204 0.056156,0.0562 0.084234,0.0842 0.056156,0.0562 0.106454,0.11885 0.1684678,0.16847 0.039526,0.0316 0.090559,0.0484 0.126351,0.0842 0.035793,0.0358 0.052613,0.0868 0.084234,0.12635 0.024805,0.031 0.056156,0.0562 0.084234,0.0842 0.042117,0.0421 0.084234,0.0842 0.126351,0.12636 0.028078,0.0281 0.056156,0.0561 0.084234,0.0842 0.028078,0.0281 0.052467,0.0604 0.084234,0.0842 0.025114,0.0188 0.05912,0.0233 0.084234,0.0421 0.031767,0.0238 0.056156,0.0562 0.084234,0.0842 0.042117,0.0421 0.084234,0.0842 0.126351,0.12635 0.042117,0.0421 0.084234,0.0842 0.126351,0.12636 0.028078,0.0281 0.062208,0.0512 0.084234,0.0842 0.017412,0.0261 0.023281,0.0591 0.042117,0.0842 0.023826,0.0318 0.060409,0.0525 0.084234,0.0842 0.1796251,0.2395 -0.1315538,-0.0894 0.1263509,0.16847 0.056156,0.0562 0.112312,0.11231 0.1684679,0.16846 0.028078,0.0281 0.051195,0.0622 0.084234,0.0842 0.02612,0.0174 0.058114,0.0247 0.084234,0.0421 0.048597,0.0324 0.077754,0.094 0.126351,0.12636 0.02612,0.0174 0.058114,0.0247 0.084234,0.0421 0.016521,0.011 0.025596,0.0311 0.042117,0.0421 0.02612,0.0174 0.062036,0.0199 0.084234,0.0421 0.022199,0.0222 0.01992,0.062 0.042117,0.0842 0.022199,0.0222 0.062036,0.0199 0.084234,0.0421 0.022199,0.0222 0.019921,0.062 0.042117,0.0842 0.022199,0.0222 0.058114,0.0247 0.084234,0.0421 0.03834,0.0256 0.089021,0.10768 0.126351,0.12635 0.012557,0.006 0.03219,-0.01 0.042117,0 0.00993,0.01 0,0.0281 0,0.0421 0,0.019 0.00641,0.11353 0,0.12635 -0.00888,0.0178 -0.033238,0.0244 -0.042117,0.0421 -0.051866,0.10374 0.1222544,-0.038 -0.042117,0.12635 -0.00993,0.01 -0.03219,-0.01 -0.042117,0 -0.2038739,0.20388 0.091332,-0.0317 -0.042117,0.16847 -0.017412,0.0261 -0.062036,0.0199 -0.084234,0.0421 -0.044395,0.0444 -0.039839,0.12407 -0.084234,0.16847 -0.022199,0.0222 -0.062036,0.0199 -0.084234,0.0421 -0.039534,0.0395 -0.1075188,0.24774 -0.1263507,0.29482 -0.063039,0.1576 -0.02747,0.0128 -0.126351,0.21059 -0.039708,0.0794 -0.051258,0.17026 -0.084234,0.2527 -0.011658,0.0292 -0.030458,0.0551 -0.042117,0.0842 -0.016489,0.0412 -0.019275,0.0883 -0.042117,0.12636 -0.070338,0.11722 -0.077253,0.0579 -0.1684681,0.12635 -0.031767,0.0238 -0.060409,0.0525 -0.084234,0.0842 -0.018836,0.0251 -0.023281,0.0591 -0.042117,0.0842 -0.023826,0.0318 -0.060409,0.0525 -0.084234,0.0842 -0.018836,0.0251 -0.023281,0.0591 -0.042117,0.0842 -0.023826,0.0318 -0.060409,0.0525 -0.084234,0.0842 -0.018836,0.0251 -0.023281,0.0591 -0.042117,0.0842 -0.023826,0.0318 -0.060409,0.0525 -0.084234,0.0842 -0.018836,0.0251 -0.023281,0.0591 -0.042117,0.0842 -0.04765,0.0635 -0.120818,0.10493 -0.1684679,0.16847 -0.018836,0.0251 -0.024704,0.0581 -0.042117,0.0842 -0.011012,0.0165 -0.028078,0.0281 -0.042117,0.0421 -0.028078,0.0281 -0.052467,0.0604 -0.084234,0.0842 -0.025114,0.0188 -0.062036,0.0199 -0.084234,0.0421 -0.022199,0.0222 -0.024704,0.0581 -0.042117,0.0842 -0.011012,0.0165 -0.031104,0.0256 -0.042117,0.0421 -0.034827,0.0522 -0.051932,0.11463 -0.084234,0.16847 -0.026043,0.0434 -0.065435,0.0793 -0.084234,0.12635 -0.010427,0.0261 0.012557,0.0591 0,0.0842 -0.00254,0.005 -0.1610569,0.15859 -0.1684681,0.16847 -0.018836,0.0251 -0.023281,0.0591 -0.042117,0.0842 -0.023826,0.0318 -0.060409,0.0525 -0.084234,0.0842 -0.018836,0.0251 -0.023281,0.0591 -0.042117,0.0842 -0.023826,0.0318 -0.060409,0.0525 -0.084234,0.0842 -0.018836,0.0251 -0.028078,0.0562 -0.042117,0.0842 -0.014039,0.0281 -0.030458,0.0551 -0.042117,0.0842 -0.016489,0.0412 -0.022262,0.0866 -0.042117,0.12635 -0.098881,0.19777 -0.063312,0.053 -0.126351,0.21059 -0.0022,0.005 -0.083402,0.25131 -0.084234,0.2527 -0.020431,0.034 -0.060409,0.0525 -0.084234,0.0842 -0.03767,0.0502 -0.046563,0.11824 -0.084234,0.16847 -0.023826,0.0318 -0.056156,0.0562 -0.084234,0.0842 -0.028078,0.0281 -0.052467,0.0604 -0.084234,0.0842 -0.068196,0.0512 -0.083411,0.0198 -0.126351,0.0842 -0.017412,0.0261 -0.019918,0.062 -0.042117,0.0842 -0.022199,0.0222 -0.062036,0.0199 -0.084234,0.0421 -0.022199,0.0222 -0.019921,0.062 -0.042117,0.0842 -0.1684678,0.16847 -0.014039,-0.0983 -0.1263509,0.12635 -0.028078,0.0562 -0.049408,0.11623 -0.084234,0.16847 -0.011012,0.0165 -0.031104,0.0256 -0.042117,0.0421 -0.017412,0.0261 -0.01992,0.062 -0.042117,0.0842 -0.022199,0.0222 -0.06682,0.016 -0.084234,0.0421 -0.015576,0.0234 0.00888,0.0576 0,0.0842 -0.00628,0.0188 -0.031104,0.0256 -0.042117,0.0421 -0.1526864,0.30537 0.044395,-0.0666 -0.084234,0.12635 -0.1418446,0.21276 -3.175e-4,9.8e-4 -0.042117,0.12635 -0.1016904,0.30507 0.012142,-0.0664 -0.084234,0.12635 -0.00628,0.0126 0.00628,0.0296 0,0.0421 -0.08764,0.17528 0.00291,-0.045 -0.084234,0.0421 -0.027851,0.0279 0.027851,0.0564 0,0.0842 -0.00993,0.01 -0.03219,-0.01 -0.042117,0 -0.00191,0.002 0,0.19072 0,0.21058 0,0.0199 -0.00191,0.20868 0,0.21059 0.00993,0.01 0.03219,-0.01 0.042117,0 0.1022938,0.10229 -0.012524,0.0618 0.084234,0.12635 0.1076169,0.0717 0.077384,0.005 0.1684679,0.12635 0.051147,0.0682 0.019825,0.0834 0.084234,0.12635 0.02612,0.0174 0.062036,0.0199 0.084234,0.0421 0.087142,0.0871 -0.1331638,-0.003 0.042117,0.0842 0.025114,0.0126 0.05912,-0.0126 0.084234,0 0.035516,0.0178 0.048718,0.0665 0.084234,0.0842 0.012557,0.006 0.02956,-0.006 0.042117,0 0.035516,0.0177 0.048718,0.0665 0.084234,0.0842 0.012557,0.006 0.02956,-0.006 0.042117,0 0.017759,0.009 0.024357,0.0332 0.042117,0.0421 0.012557,0.006 0.02956,-0.006 0.042117,0 0.017759,0.009 0.02436,0.0332 0.042117,0.0421 0.025114,0.0126 0.06438,-0.0199 0.084234,0 0.019854,0.0199 -0.019854,0.0644 0,0.0842 0.019854,0.0198 0.06438,-0.0199 0.084234,0 0.00993,0.01 -0.00993,0.0322 0,0.0421 0.032924,0.0329 0.073269,-0.0366 0.084234,-0.0421 0.025114,-0.0126 0.06438,0.0198 0.084234,0 0.00993,-0.01 -0.00993,-0.0322 0,-0.0421 0.022199,-0.0222 0.058114,-0.0247 0.084234,-0.0421 0.016521,-0.011 0.025598,-0.0311 0.042117,-0.0421 0.02612,-0.0174 0.062036,-0.0199 0.084234,-0.0421 0.2152338,-0.21523 -0.1765953,0.0587 0.126351,-0.16847 0.025114,-0.0188 0.05912,-0.0233 0.084234,-0.0421 0.031767,-0.0238 0.056156,-0.0562 0.084234,-0.0842 0.028078,-0.0281 0.056156,-0.0562 0.084234,-0.0842 0.042117,-0.0421 0.084234,-0.0842 0.126351,-0.12635 0.028078,-0.0281 0.063804,-0.0502 0.084234,-0.0842 0.022842,-0.0381 0.02463,-0.0855 0.042117,-0.12635 0.065672,-0.15324 0.1609116,-0.28348 0.2527017,-0.42117 0.028078,-0.0421 0.048442,-0.0906 0.084234,-0.12635 0.035793,-0.0358 0.086825,-0.0526 0.1263509,-0.0842 0.031007,-0.0248 0.056156,-0.0562 0.084234,-0.0842 0.028078,-0.0281 0.059428,-0.0532 0.084234,-0.0842 0.031621,-0.0395 0.056156,-0.0842 0.084234,-0.12635 0.028078,-0.0421 0.058191,-0.0829 0.084234,-0.12635 0.01615,-0.0269 0.025966,-0.0573 0.042117,-0.0842 0.052086,-0.0868 0.1163823,-0.16589 0.1684679,-0.2527 0.063176,-0.10529 0.042117,-0.12635 0.1263509,-0.2527 0.022027,-0.033 0.063804,-0.0502 0.084234,-0.0842 0.022842,-0.0381 0.022262,-0.0866 0.042117,-0.12635 0.022638,-0.0453 0.061597,-0.0811 0.084234,-0.12635 0.019854,-0.0397 0.022262,-0.0866 0.042117,-0.12635 0.048058,-0.0961 0.094831,-0.11603 0.126351,-0.21058 0.018304,-0.0549 0.019315,-0.11527 0.042117,-0.16847 0.019939,-0.0465 0.061597,-0.0811 0.084234,-0.12635 0.019854,-0.0397 0.022262,-0.0866 0.042117,-0.12635 0.022638,-0.0453 0.061596,-0.0811 0.084234,-0.12635 0.019854,-0.0397 0.022262,-0.0866 0.042117,-0.12636 0.022638,-0.0453 0.061597,-0.0811 0.084234,-0.12635 0.019854,-0.0397 0.022262,-0.0866 0.042117,-0.12635 0.022638,-0.0453 0.056156,-0.0842 0.084234,-0.12635 0.028078,-0.0421 0.052613,-0.0868 0.084234,-0.12635 0.024805,-0.031 0.063804,-0.0502 0.084234,-0.0842 0.045682,-0.0761 0.038552,-0.17657 0.084234,-0.2527 0.020428,-0.034 0.060409,-0.0525 0.084234,-0.0842 0.018836,-0.0251 0.025966,-0.0573 0.042117,-0.0842 0.026043,-0.0434 0.058191,-0.0829 0.084234,-0.12635 0.01615,-0.0269 0.023281,-0.0591 0.042117,-0.0842 0.070757,-0.0943 0.1819455,-0.15836 0.252702,-0.2527 0.018836,-0.0251 0.023281,-0.0591 0.042117,-0.0842 0.023826,-0.0318 0.060409,-0.0525 0.084234,-0.0842 0.018836,-0.0251 0.01992,-0.062 0.042117,-0.0842 0.022199,-0.0222 0.062036,-0.0199 0.084234,-0.0421 0.098423,-0.0984 0.1351946,-0.26597 0.2105847,-0.37905 0.011012,-0.0165 0.031104,-0.0256 0.042117,-0.0421 0.017412,-0.0261 0.024704,-0.0581 0.042117,-0.0842 0.022027,-0.033 0.062208,-0.0512 0.084234,-0.0842 0.022217,-0.0333 0.1139568,-0.21551 0.126351,-0.2527 0.00444,-0.0133 -0.00444,-0.0288 0,-0.0421 0.00993,-0.0298 0.03219,-0.0545 0.042117,-0.0842 0.00444,-0.0133 0,-0.0281 0,-0.0421 0.014039,-0.014 0.033238,-0.0244 0.042117,-0.0421 0.00628,-0.0126 -0.00993,-0.0322 0,-0.0421 0.00993,-0.01 0.028078,0 0.042117,0 0.1107757,0 -0.016618,0.0338 0.084234,0.0842 0.012557,0.006 0.03219,-0.01 0.042117,0 0.00993,0.01 -0.00628,0.0296 0,0.0421 0.08764,0.17528 -0.00291,-0.045 0.084234,0.0421 0.087142,0.0871 -0.1331637,-0.003 0.042117,0.0842 0.012557,0.006 0.02956,-0.006 0.042117,0 0.017759,0.009 0.025599,0.0311 0.042117,0.0421 0.02612,0.0174 0.05912,0.0233 0.084234,0.0421 0.031767,0.0238 0.052467,0.0604 0.084234,0.0842 0.025114,0.0188 0.05912,0.0233 0.084234,0.0421 0.031767,0.0238 0.056156,0.0562 0.084234,0.0842 0.042117,0.0421 0.084234,0.0842 0.126351,0.12635 0.098273,0.0983 0.1965459,0.19655 0.2948188,0.29482 0.042117,0.0421 0.084234,0.0842 0.126351,0.12635 0.028078,0.0281 0.059428,0.0532 0.084234,0.0842 0.031621,0.0395 0.051829,0.0875 0.084234,0.12635 0.038131,0.0457 0.080594,0.0882 0.1263509,0.12635 0.1313441,0.10945 0.1125601,0.0459 0.2105851,0.16847 0.03162,0.0395 0.05261,0.0868 0.08423,0.12635 0.0248,0.031 0.05616,0.0562 0.08423,0.0842 0.0702,0.0702 0.14039,0.14039 0.210585,0.21059 0.126351,0.12635 0.252702,0.2527 0.379052,0.37905 0.04212,0.0421 0.08423,0.0842 0.126351,0.12635 0.02808,0.0281 0.05323,0.0594 0.08423,0.0842 0.03953,0.0316 0.09395,0.0453 0.126351,0.0842 0.04019,0.0482 0.04774,0.11738 0.08423,0.16846 0.0351,0.0491 0.163789,0.15443 0.210585,0.21059 0.08987,0.10785 0.171102,0.2227 0.252702,0.33694 0.02942,0.0412 0.05183,0.0875 0.08423,0.12635 0.03813,0.0457 0.08822,0.0806 0.126351,0.12635 0.03241,0.0389 0.05481,0.0852 0.08423,0.12635 0.0408,0.0571 0.08555,0.11135 0.126351,0.16847 0.02942,0.0412 0.05261,0.0868 0.08423,0.12635 0.0248,0.031 0.05943,0.0532 0.08423,0.0842 0.06324,0.079 0.103658,0.17493 0.168468,0.2527 0.06355,0.0763 0.148572,0.13307 0.210585,0.21059 0.03162,0.0395 0.05261,0.0868 0.08423,0.12635 0.0248,0.031 0.05616,0.0562 0.08423,0.0842 0.0702,0.0702 0.14039,0.14039 0.210585,0.21059 0.02808,0.0281 0.06041,0.0525 0.08423,0.0842 0.05115,0.0682 0.01983,0.0834 0.08423,0.12635 0.212767,0.14185 9.79e-4,3.2e-4 0.126351,0.0421 0.02978,0.01 0.05616,0.0281 0.08423,0.0421 0.05616,0.0281 0.116228,0.0494 0.168468,0.0842 0.01652,0.011 0.0256,0.0311 0.04212,0.0421 0.02612,0.0174 0.05616,0.0281 0.08423,0.0421 0.02808,0.014 0.05445,0.0322 0.08423,0.0421 0.01332,0.004 0.02808,0 0.04212,0 0.01404,0.014 0.02436,0.0332 0.04212,0.0421 0.01256,0.006 0.02956,-0.006 0.04212,0 0.01776,0.009 0.02436,0.0332 0.04212,0.0421 0.05298,0.0265 0.08423,-0.0605 0.08423,0.0421 0,0.069 0.01527,0.0842 0.08423,0.0842 0.01404,0 0.03219,0.01 0.04212,0 0.0099,-0.01 -0.0099,-0.0322 0,-0.0421 0.01985,-0.0199 0.05912,0.0126 0.08423,0 0.01776,-0.009 0.02808,-0.0281 0.04212,-0.0421 0.01404,-0.014 0.03324,-0.0244 0.04212,-0.0421 0.0063,-0.0126 -0.0099,-0.0322 0,-0.0421 0.0222,-0.0222 0.05812,-0.0247 0.08424,-0.0421 0.01652,-0.011 0.02808,-0.0281 0.04212,-0.0421 0.01404,-0.014 0.0311,-0.0256 0.04212,-0.0421 0.0052,-0.008 0.08154,-0.16577 0.08423,-0.16847 0.0222,-0.0222 0.06204,-0.0199 0.08423,-0.0421 0.0015,-0.002 0.07986,-0.16117 0.08423,-0.16847 0.02604,-0.0434 0.05819,-0.0829 0.08423,-0.12635 0.0323,-0.0538 0.06092,-0.11017 0.08423,-0.16846 0.01649,-0.0412 0.02563,-0.0851 0.04212,-0.12635 0.01166,-0.0292 0.03046,-0.0551 0.04212,-0.0842 0.01649,-0.0412 0.02563,-0.0851 0.04212,-0.12635 0.01166,-0.0291 0.03046,-0.0551 0.04212,-0.0842 0.01649,-0.0412 0.02563,-0.0851 0.04212,-0.12635 0.01166,-0.0291 0.0345,-0.0538 0.04212,-0.0842 0.0068,-0.0272 0,-0.0562 0,-0.0842 0.01404,-0.0281 0.03219,-0.0545 0.04212,-0.0842 0.0044,-0.0133 0,-0.0281 0,-0.0421 0,-0.0702 0,-0.14039 0,-0.21059 0,-0.0199 0.0019,-0.20867 0,-0.21058 -0.0099,-0.01 -0.03219,0.01 -0.04212,0 -0.0099,-0.01 0.0099,-0.0322 0,-0.0421 -0.0099,-0.01 -0.02956,0.006 -0.04212,0 -0.01776,-0.009 -0.02436,-0.0332 -0.04212,-0.0421 -0.01256,-0.006 -0.02956,0.006 -0.04212,0 -0.01776,-0.009 -0.0256,-0.0311 -0.04212,-0.0421 -0.02612,-0.0174 -0.05912,-0.0233 -0.08423,-0.0421 -0.07862,-0.059 -0.131966,-0.15162 -0.210585,-0.21059 -0.02511,-0.0188 -0.05732,-0.026 -0.08423,-0.0421 -0.410424,-0.24626 0.01439,0.0108 -0.168468,-0.12635 -0.04049,-0.0304 -0.08682,-0.0526 -0.126351,-0.0842 -0.208393,-0.16671 0.05044,0.008 -0.168467,-0.21058 -0.176389,-0.17639 -0.07631,0.008 -0.252702,-0.16847 -0.331298,-0.3313 0.2034,0.0923 -0.210585,-0.2527 -0.03889,-0.0324 -0.09056,-0.0484 -0.126351,-0.0842 -0.03579,-0.0358 -0.05129,-0.0879 -0.08423,-0.12635 -0.05168,-0.0603 -0.112312,-0.11231 -0.168468,-0.16847 -0.08423,-0.0842 -0.168468,-0.16846 -0.252702,-0.2527 -0.08423,-0.0842 -0.161188,-0.17644 -0.252702,-0.2527 -0.03889,-0.0324 -0.09056,-0.0484 -0.126351,-0.0842 -0.389934,-0.38994 0.272398,0.16128 -0.210584,-0.25271 -0.0533,-0.0457 -0.115173,-0.0807 -0.168468,-0.12635 -0.04522,-0.0388 -0.08059,-0.0882 -0.126351,-0.12635 -0.03889,-0.0324 -0.08746,-0.0518 -0.126351,-0.0842 -0.04576,-0.0381 -0.08059,-0.0882 -0.126351,-0.12635 -0.03889,-0.0324 -0.09056,-0.0484 -0.126351,-0.0842 -0.04964,-0.0496 -0.07672,-0.11883 -0.126351,-0.16846 -0.07158,-0.0716 -0.173649,-0.10523 -0.252702,-0.16847 -0.0091,-0.007 -0.164726,-0.1666 -0.168468,-0.16847 -0.02511,-0.0126 -0.06087,0.0156 -0.08423,0 -0.02612,-0.0174 -0.01992,-0.062 -0.04212,-0.0842 -0.04439,-0.0444 -0.11824,-0.0466 -0.168468,-0.0842 -0.156695,-0.11752 -0.0044,-0.0654 -0.210585,-0.16847 -0.137019,-0.0685 -0.132,-0.006 -0.252701,-0.12635 -0.0222,-0.0222 -0.01992,-0.062 -0.04212,-0.0842 -0.03579,-0.0358 -0.09056,-0.0484 -0.126351,-0.0842 -0.358531,-0.35854 0.120354,0.0241 -0.168467,-0.16847 -0.01652,-0.011 -0.02808,-0.0281 -0.04212,-0.0421 -0.05616,-0.0562 -0.112313,-0.11231 -0.168469,-0.16847 -0.02808,-0.0281 -0.0512,-0.0622 -0.08423,-0.0842 -0.01168,-0.008 -0.02956,0.006 -0.042117,0 -0.017759,-0.009 -0.02436,-0.0332 -0.042117,-0.0421 -0.025114,-0.0126 -0.06438,0.0199 -0.084234,0 -0.00993,-0.01 -0.014039,-0.0421 0,-0.0421 0.014039,0 0,0.0562 0,0.0421 0,-0.0281 0,-0.0562 0,-0.0842 0,-0.014 -0.00993,-0.0322 0,-0.0421 0.087141,-0.0871 -0.00341,0.13316 0.084234,-0.0421 0.00628,-0.0126 -0.00628,-0.0296 0,-0.0421 0.011248,-0.0225 0.1041777,-0.10418 0.1263507,-0.12635 0.0329,-0.0329 0.09001,-0.10213 0.126351,-0.12635 0.305373,-0.15269 -0.06659,0.0444 0.126352,-0.0842 0.02612,-0.0174 0.05811,-0.0247 0.08423,-0.0421 0.04956,-0.033 0.0787,-0.0906 0.126351,-0.12635 0.02511,-0.0188 0.06204,-0.0199 0.08423,-0.0421 0.03579,-0.0358 0.05819,-0.0829 0.08423,-0.12635 0.01615,-0.0269 0.01992,-0.062 0.04212,-0.0842 0.03579,-0.0358 0.09056,-0.0484 0.126351,-0.0842 0.0222,-0.0222 0.02597,-0.0573 0.04212,-0.0842 0.02604,-0.0434 0.05819,-0.0829 0.08423,-0.12635 0.01615,-0.0269 0.02328,-0.0591 0.04212,-0.0842 0.02383,-0.0318 0.05616,-0.0562 0.08423,-0.0842 0.0702,-0.0702 0.14039,-0.14039 0.210585,-0.21058 0.02808,-0.0281 0.06041,-0.0525 0.08423,-0.0842 0.01884,-0.0251 0.02328,-0.0591 0.04212,-0.0842 0.02383,-0.0318 0.05616,-0.0562 0.08423,-0.0842 0.02808,-0.0281 0.05616,-0.0562 0.08423,-0.0842 0.02808,-0.0281 0.0638,-0.0502 0.08423,-0.0842 0.02284,-0.0381 0.01928,-0.0883 0.04212,-0.12635 0.02043,-0.034 0.05943,-0.0532 0.08423,-0.0842 0.07884,-0.0985 0.107272,-0.21734 0.210585,-0.29482 0.02511,-0.0188 0.05912,-0.0233 0.08423,-0.0421 0.03177,-0.0238 0.05247,-0.0604 0.08423,-0.0842 0.02511,-0.0188 0.05912,-0.0233 0.08423,-0.0421 0.04765,-0.0357 0.07679,-0.0933 0.12635,-0.12635 0.02612,-0.0174 0.05616,-0.0281 0.08424,-0.0421 0.02808,-0.0281 0.05247,-0.0604 0.08423,-0.0842 0.05023,-0.0377 0.118241,-0.0466 0.168469,-0.0842 0.06353,-0.0477 0.106453,-0.11885 0.168467,-0.16847 0.03953,-0.0316 0.08683,-0.0526 0.126351,-0.0842 0.03101,-0.0248 0.05323,-0.0594 0.08423,-0.0842 0.03953,-0.0316 0.08682,-0.0526 0.126351,-0.0842 0.09245,-0.074 0.16025,-0.17874 0.252702,-0.2527 0.03953,-0.0316 0.08682,-0.0526 0.126351,-0.0842 0.0229,-0.0183 0.193402,-0.18768 0.210585,-0.21059 0.01884,-0.0251 0.01992,-0.062 0.04212,-0.0842 0.0222,-0.0222 0.05912,-0.0233 0.08423,-0.0421 0.03177,-0.0238 0.05616,-0.0562 0.08423,-0.0842 0.02808,-0.0281 0.06041,-0.0525 0.08423,-0.0842 0.01883,-0.0251 0.02328,-0.0591 0.04212,-0.0842 0.02383,-0.0318 0.05616,-0.0562 0.08423,-0.0842 0.01404,-0.014 0.0256,-0.0311 0.04212,-0.0421 0.02612,-0.0174 0.06204,-0.0199 0.08423,-0.0421 0.0222,-0.0222 0.01992,-0.062 0.04212,-0.0842 0.0099,-0.01 0.03219,0.01 0.04212,0 0.0222,-0.0222 0.02471,-0.0581 0.04212,-0.0842 0.02203,-0.033 0.06648,-0.0487 0.08423,-0.0842 0.0063,-0.0126 -0.0044,-0.0288 0,-0.0421 0.0099,-0.0298 0.03219,-0.0544 0.04212,-0.0842 0.0089,-0.0266 -0.0089,-0.0576 0,-0.0842 0.0099,-0.0298 0.03219,-0.0544 0.04212,-0.0842 0.0044,-0.0133 -0.0063,-0.0296 0,-0.0421 0.0089,-0.0177 0.03324,-0.0244 0.04212,-0.0421 0.01256,-0.0251 -0.01256,-0.0591 0,-0.0842 0.01776,-0.0355 0.06648,-0.0487 0.08423,-0.0842 0.0063,-0.0126 -0.0063,-0.0296 0,-0.0421 0.01776,-0.0355 0.06648,-0.0487 0.08423,-0.0842 0.0011,-0.002 0.0011,-0.12415 0,-0.12635 -0.01776,-0.0355 -0.06648,-0.0487 -0.08423,-0.0842 -0.0063,-0.0126 0.0063,-0.0296 0,-0.0421 -0.009,-0.0181 -0.167418,-0.16777 -0.168468,-0.16847 -0.01168,-0.008 -0.03219,0.01 -0.04212,0 -0.0222,-0.0222 -0.01992,-0.062 -0.04212,-0.0842 -0.0222,-0.0222 -0.05912,-0.0233 -0.08424,-0.0421 -0.03177,-0.0238 -0.05247,-0.0604 -0.08423,-0.0842 -0.02511,-0.0188 -0.05732,-0.026 -0.08423,-0.0421 -0.0434,-0.026 -0.08295,-0.0582 -0.126351,-0.0842 -0.02692,-0.0161 -0.05509,-0.0305 -0.08423,-0.0421 -0.04122,-0.0165 -0.08828,-0.0193 -0.126351,-0.0421 -0.03405,-0.0204 -0.05323,-0.0594 -0.08423,-0.0842 -0.03953,-0.0316 -0.09056,-0.0484 -0.126351,-0.0842 -0.0222,-0.0222 -0.017,-0.0654 -0.04212,-0.0842 -0.03552,-0.0266 -0.08513,-0.0256 -0.126351,-0.0421 -0.02915,-0.0117 -0.05445,-0.0322 -0.08423,-0.0421 -0.01332,-0.004 -0.02956,0.006 -0.04212,0 -0.03552,-0.0178 -0.04872,-0.0665 -0.08423,-0.0842 -0.0022,-0.001 -0.124147,-0.001 -0.126351,0 -0.175281,0.0876 0.04503,-0.003 -0.04212,0.0842 -0.08714,0.0871 0.0034,-0.13316 -0.08423,0.0421 -0.0063,0.0126 0.0044,0.0288 0,0.0421 -0.0099,0.0298 -0.02808,0.0562 -0.04212,0.0842 -0.02808,0.0562 -0.05616,0.11231 -0.08423,0.16847 -0.04157,0.0831 -0.07854,0.17302 -0.126351,0.2527 -0.02604,0.0434 -0.05819,0.0829 -0.08423,0.12635 -0.07873,0.13122 -0.0022,0.0553 -0.126351,0.21059 -0.0248,0.031 -0.05943,0.0532 -0.08423,0.0842 -0.206503,0.25813 0.03804,-0.005 -0.168468,0.2527 -0.0248,0.031 -0.05943,0.0532 -0.08423,0.0842 -0.03162,0.0395 -0.05183,0.0875 -0.08423,0.12635 -0.03813,0.0457 -0.08822,0.0806 -0.126351,0.12635 -0.06481,0.0778 -0.105226,0.17365 -0.168468,0.2527 -0.0248,0.031 -0.05616,0.0562 -0.08423,0.0842 -0.04212,0.0421 -0.08423,0.0842 -0.126351,0.12635 -0.02808,0.0281 -0.05323,0.0594 -0.08423,0.0842 -0.03953,0.0316 -0.09056,0.0484 -0.126351,0.0842 -0.03579,0.0358 -0.05261,0.0868 -0.08423,0.12635 -0.02481,0.031 -0.05943,0.0532 -0.08423,0.0842 -0.03162,0.0395 -0.05261,0.0868 -0.08423,0.12635 -0.0468,0.0585 -0.175487,0.15794 -0.210585,0.21058 -0.02463,0.0369 -0.01749,0.0894 -0.04212,0.12635 -0.03304,0.0496 -0.08822,0.0806 -0.126351,0.12635 -0.06481,0.0778 -0.105226,0.17365 -0.168468,0.25271 -0.0248,0.031 -0.05943,0.0532 -0.08423,0.0842 -0.03162,0.0395 -0.05183,0.0875 -0.08423,0.12635 -0.06355,0.0763 -0.14039,0.14039 -0.210585,0.21059 -0.02808,0.0281 -0.05943,0.0532 -0.08423,0.0842 -0.03162,0.0395 -0.05261,0.0868 -0.08423,0.12635 -0.02481,0.031 -0.05943,0.0532 -0.08423,0.0842 -0.03162,0.0395 -0.05261,0.0868 -0.08423,0.12635 -0.069296,0.0866 -0.1872345,0.16541 -0.2527019,0.2527 -0.051147,0.0682 -0.019825,0.0834 -0.084234,0.12635 -0.02612,0.0174 -0.062036,0.0199 -0.084234,0.0421 -0.2807801,0.28078 0.2105848,-0.0983 -0.126351,0.12635 -0.096758,0.0645 0.018061,0.024 -0.084234,0.12635 -0.00993,0.01 -0.02956,-0.006 -0.042117,0 -0.035516,0.0178 -0.048718,0.0665 -0.084234,0.0842 -0.012557,0.006 -0.02956,-0.006 -0.042117,0 -0.1752809,0.0876 0.045025,-0.003 -0.042117,0.0842 -0.00993,0.01 -0.02956,-0.006 -0.042117,0 -0.017759,0.009 -0.024358,0.0332 -0.042117,0.0421 -0.012557,0.006 -0.028078,0 -0.042117,0 -0.014039,0 -0.056156,0 -0.042117,0 0.028078,0 0.1123119,0 0.084234,0 -0.070195,0 -0.1403898,0 -0.2105848,0 -0.014039,0 -0.028078,0 -0.042117,0 -0.014039,0 -0.02956,0.006 -0.042117,0 -0.017759,-0.009 -0.023281,-0.0358 -0.042117,-0.0421 -0.026637,-0.009 -0.057597,0.009 -0.084234,0 -0.018836,-0.006 -0.028078,-0.0281 -0.042117,-0.0421 -0.028078,-0.0281 -0.050184,-0.0638 -0.084234,-0.0842 -0.038069,-0.0229 -0.089412,-0.0175 -0.1263509,-0.0421 -0.099118,-0.0661 -0.1557661,-0.18346 -0.252702,-0.2527 -0.05109,-0.0365 -0.1207984,-0.0434 -0.1684679,-0.0842 -0.053296,-0.0457 -0.076716,-0.11883 -0.1263509,-0.16847 -0.035793,-0.0358 -0.085161,-0.0548 -0.126351,-0.0842 -0.05712,-0.0408 -0.1188326,-0.0767 -0.1684679,-0.12635 -0.035793,-0.0358 -0.048442,-0.0906 -0.084234,-0.12635 -0.035793,-0.0358 -0.087465,-0.0518 -0.126351,-0.0842 -0.045757,-0.0381 -0.074636,-0.0968 -0.126351,-0.12635 -0.050258,-0.0287 -0.1166947,-0.0162 -0.1684678,-0.0421 -0.035516,-0.0178 -0.056156,-0.0562 -0.084234,-0.0842 -0.042117,-0.0421 -0.080594,-0.0882 -0.126351,-0.12635 -0.074643,-0.0622 -0.2100074,-0.13212 -0.2948188,-0.16847 -0.040806,-0.0175 -0.086643,-0.0223 -0.1263507,-0.0421 -0.066171,-0.0331 -0.2503049,-0.17879 -0.2948189,-0.21059 -0.04119,-0.0294 -0.079826,-0.0643 -0.126351,-0.0842 -0.053204,-0.0228 -0.1152639,-0.0193 -0.1684679,-0.0421 -0.1684435,-0.0722 -0.2517394,-0.25222 -0.4211698,-0.33693 -0.039708,-0.0199 -0.088283,-0.0193 -0.126351,-0.0421 -0.03405,-0.0204 -0.053227,-0.0594 -0.084234,-0.0842 -0.079052,-0.0632 -0.1684679,-0.11231 -0.2527017,-0.16846 -0.042117,-0.0281 -0.084234,-0.0562 -0.126351,-0.0842 -0.042117,-0.0281 -0.090558,-0.0484 -0.126351,-0.0842 -0.035793,-0.0358 -0.048442,-0.0906 -0.084234,-0.12635 -0.071585,-0.0716 -0.1894597,-0.0894 -0.2527017,-0.16847 -0.027734,-0.0347 -0.019275,-0.0883 -0.042117,-0.12635 -0.020428,-0.034 -0.060409,-0.0525 -0.084234,-0.0842 -0.018836,-0.0251 -0.023281,-0.0591 -0.042117,-0.0842 -0.023826,-0.0318 -0.052467,-0.0604 -0.084234,-0.0842 -0.025114,-0.0188 -0.066821,-0.016 -0.084234,-0.0421 -0.015576,-0.0234 0.015576,-0.0609 0,-0.0842 -0.017412,-0.0261 -0.062037,-0.0199 -0.084234,-0.0421 -0.00993,-0.01 0.00628,-0.0296 0,-0.0421 -0.017759,-0.0355 -0.066476,-0.0487 -0.084234,-0.0842 -0.00628,-0.0126 0.00628,-0.0296 0,-0.0421 -0.046561,-0.0931 -0.02614,-0.0131 -0.084234,-0.0421 -0.017758,-0.009 -0.028078,-0.0281 -0.042117,-0.0421 -0.042117,-0.0421 -0.084234,-0.0842 -0.126351,-0.12635 -0.028078,-0.0281 -0.052467,-0.0604 -0.084234,-0.0842 -0.025114,-0.0188 -0.058114,-0.0247 -0.084234,-0.0421 -0.063176,-0.0421 -0.042117,-0.0842 -0.126351,-0.12636 -0.025114,-0.0125 -0.057597,0.009 -0.084234,0 -0.018836,-0.006 -0.025599,-0.0311 -0.042117,-0.0421 -0.02612,-0.0174 -0.058114,-0.0247 -0.084234,-0.0421 -0.033039,-0.022 -0.046563,-0.0717 -0.084234,-0.0842 -0.026637,-0.009 -0.056994,0.007 -0.084234,0 -0.06091,-0.0152 -0.1089055,-0.0644 -0.1684679,-0.0842 -0.013319,-0.004 -0.028798,0.004 -0.042117,0 -0.029781,-0.01 -0.054453,-0.0322 -0.084234,-0.0421 -0.013319,-0.004 -0.02956,0.006 -0.042117,0 -0.017758,-0.009 -0.024359,-0.0332 -0.042117,-0.0421 -0.012557,-0.006 -0.029082,0.005 -0.042117,0 -0.058294,-0.0233 -0.112312,-0.0562 -0.1684679,-0.0842 z"
       id="path904"
       inkscape:connector-curvature="0" />
  </g>
</svg>
