<?xml version="1.0" encoding="UTF-8" standalone="no"?>
<!-- Created with Inkscape (http://www.inkscape.org/) -->

<svg
   xmlns:dc="http://purl.org/dc/elements/1.1/"
   xmlns:cc="http://creativecommons.org/ns#"
   xmlns:rdf="http://www.w3.org/1999/02/22-rdf-syntax-ns#"
   xmlns:svg="http://www.w3.org/2000/svg"
   xmlns="http://www.w3.org/2000/svg"
   xmlns:sodipodi="http://sodipodi.sourceforge.net/DTD/sodipodi-0.dtd"
   xmlns:inkscape="http://www.inkscape.org/namespaces/inkscape"
   width="64"
   height="64"
   viewBox="0 0 16.933333 16.933334"
   version="1.1"
   id="svg8"
   inkscape:version="0.92.4 (5da689c313, 2019-01-14)"
   sodipodi:docname="menu1.svg">
  <title
     id="title1069">Menu Icon</title>
  <defs
     id="defs2" />
  <sodipodi:namedview
     id="base"
     pagecolor="#ffffff"
     bordercolor="#666666"
     borderopacity="1.0"
     inkscape:pageopacity="1"
     inkscape:pageshadow="2"
     inkscape:zoom="6.2821063"
     inkscape:cx="44.872111"
     inkscape:cy="42.942994"
     inkscape:document-units="mm"
     inkscape:current-layer="layer1"
     showgrid="false"
     units="px"
     inkscape:window-width="1536"
     inkscape:window-height="801"
     inkscape:window-x="-8"
     inkscape:window-y="-8"
     inkscape:window-maximized="1" />
  <metadata
     id="metadata5">
    <rdf:RDF>
      <cc:Work
         rdf:about="">
        <dc:format>image/svg+xml</dc:format>
        <dc:type
           rdf:resource="http://purl.org/dc/dcmitype/StillImage" />
        <dc:title>Menu Icon</dc:title>
      </cc:Work>
    </rdf:RDF>
  </metadata>
  <g
     inkscape:groupmode="layer"
     id="layer2"
     inkscape:label="Layer 2"
     style="display:inline"
     sodipodi:insensitive="true">
    <rect
       transform="translate(0,-280.06664)"
       style="display:inline;opacity:1;fill:#ffffff;fill-opacity:1;stroke:#060000;stroke-width:0.26458332;stroke-linecap:round;stroke-miterlimit:3.5999999;stroke-dasharray:none;stroke-opacity:1"
       id="rect999"
       width="16.75605"
       height="16.859478"
       x="0.068954937"
       y="280.17499" />
    <path
       transform="translate(0,-280.06664)"
       style="display:inline;opacity:1;fill:#ffffff;fill-opacity:1;stroke:#060000;stroke-width:0.26458332;stroke-linecap:round;stroke-miterlimit:3.5999999;stroke-dasharray:none;stroke-opacity:1"
       d="m 0.62059441,281.00244 c -0.0688266,0.19721 -0.0689549,0.36142 -0.0689549,0.55164 0,0.0115 0,0.023 0,0.0345 0,0.0115 0.00514,0.0242 0,0.0345 -0.007268,0.0145 -0.027209,0.0199 -0.0344775,0.0345 -0.005246,0.0105 0,0.0879 0,0.10343 0,0.069 0,0.13791 0,0.20687 0,0.0244 -0.004457,0.19795 0,0.20686 0.007268,0.0145 0.027209,0.0199 0.0344775,0.0345 0.00514,0.0103 -0.008126,0.0263 0,0.0345 0.008126,0.008 0.0263512,-0.008 0.0344775,0 0.0162528,0.0163 -0.0102793,0.0484 0,0.069 0.007268,0.0145 0.027209,0.0199 0.0344775,0.0345 0.00514,0.0103 -0.00514,0.0242 0,0.0345 0.007268,0.0145 0.027209,0.0199 0.0344775,0.0345 0.004533,0.009 0,0.11989 0,0.13791 0,0.10344 0,0.20687 0,0.3103 0,0.34478 0,0.68955 0,1.03433 0,0.0689 0,0.13791 0,0.20686 0,0.023 0,0.046 0,0.069 0,0.023 -0.007268,0.0471 0,0.0689 0.00514,0.0154 0.027209,0.0199 0.0344775,0.0345 0.00514,0.0103 -0.00514,0.0242 0,0.0345 0.007269,0.0145 0.027209,0.0199 0.0344775,0.0345 0.00514,0.0103 0,0.023 0,0.0345 0,0.0115 0,0.023 0,0.0345 0,0.0575 0,0.11492 0,0.17239 0,0.17238 0,0.34477 0,0.51716 0,0.0919 0,0.18388 0,0.27582 0,0.018 0.004533,0.12884 0,0.13791 -0.007268,0.0145 -0.027209,0.0199 -0.0344775,0.0345 -0.00514,0.0103 0.00514,0.0242 0,0.0345 -0.007268,0.0145 -0.027209,0.0199 -0.0344775,0.0345 -0.0102793,0.0206 0.0102793,0.0484 0,0.069 -0.007268,0.0145 -0.027209,0.0199 -0.0344775,0.0345 -0.007362,0.0147 0,0.15876 0,0.17239 0,0.12642 0,0.25283 0,0.37925 0,0.0155 0.005246,0.0929 0,0.10343 -0.007268,0.0145 -0.027209,0.0199 -0.0344775,0.0345 -0.00514,0.0103 0,0.023 0,0.0345 0,0.0115 0,0.023 0,0.0345 0,0.0575 0,0.11492 0,0.17238 0,0.018 -0.004533,0.12885 0,0.13791 0.007268,0.0145 0.027209,0.0199 0.0344775,0.0345 0.00514,0.0103 0,0.023 0,0.0345 0,0.0115 0,0.023 0,0.0345 0,0.0689 0,0.13791 0,0.20686 0,0.20686 0,0.41373 0,0.62059 0,0.0575 0,0.11493 0,0.17239 0,0.023 0,0.046 0,0.069 0,0.0115 -0.00514,0.0242 0,0.0345 0.007268,0.0145 0.027209,0.02 0.0344775,0.0345 0.00601,0.012 0,0.18156 0,0.20687 0,0.13791 0,0.27582 0,0.41373 0,0.024 -0.006234,0.15992 0,0.17238 0.007269,0.0145 0.027209,0.0199 0.0344775,0.0345 0.0102793,0.0206 -0.007268,0.0472 0,0.069 0.008126,0.0244 0.0263512,0.0446 0.0344775,0.069 0.0108273,0.0325 -0.0111765,0.18451 0,0.20687 0.007268,0.0145 0.027209,0.0199 0.0344775,0.0345 0.010835,0.0217 -0.010835,0.11624 0,0.13791 0.007268,0.0145 0.027209,0.0199 0.0344775,0.0345 0.00514,0.0103 0,0.023 0,0.0345 0,0.0115 0,0.023 0,0.0345 0,0.0575 0,0.11492 0,0.17238 0,0.0115 0,0.023 0,0.0345 0,0.0115 -0.00514,0.0242 0,0.0345 0.007268,0.0145 0.027209,0.0199 0.0344775,0.0345 0.00514,0.0103 -0.00514,0.0242 0,0.0345 0.007268,0.0145 0.0293379,0.0191 0.0344775,0.0345 0.005921,0.0178 0,0.20487 0,0.24134 0,0.1609 0,0.32179 0,0.48269 0,0.0804 0,0.16089 0,0.24134 0,0.023 0,0.046 0,0.069 0,0.023 0.0102793,0.0484 0,0.069 -0.00514,0.0103 -0.0293379,-0.0103 -0.0344775,0 -0.0102793,0.0206 0.007268,0.0472 0,0.069 -0.00514,0.0154 -0.027209,0.0199 -0.0344775,0.0345 -0.010835,0.0217 0.010835,0.11624 0,0.13791 -0.007268,0.0145 -0.0229849,0.023 -0.0344775,0.0345 0,0.023 0.007268,0.0472 0,0.069 -0.00514,0.0154 -0.0293379,0.0191 -0.0344775,0.0345 -0.0109027,0.0327 0.0109027,0.0707 0,0.10343 -0.008126,0.0244 -0.0263512,0.0446 -0.0344775,0.069 -0.007268,0.0218 0.0102793,0.0484 0,0.069 -0.007268,0.0145 -0.027209,0.0199 -0.0344775,0.0345 -0.004594,0.009 0,0.19127 0,0.20687 0,0.17238 0,0.34477 0,0.51716 0,0.0347 0.006356,0.1878 0,0.20686 -0.00514,0.0154 -0.027209,0.0199 -0.0344775,0.0345 -0.00514,0.0103 0,0.023 0,0.0345 0,0.023 0,0.046 0,0.069 0,0.069 0,0.13791 0,0.20687 0,0.023 0.005575,0.0466 0,0.069 -0.006233,0.0249 -0.0263512,0.0446 -0.0344775,0.069 -0.00622,0.0187 0,0.12616 0,0.13791 0,0.069 0,0.13791 0,0.20686 0,0.13791 0,0.27582 0,0.41373 0,0.0292 -0.005719,0.18399 0,0.20687 0.006233,0.0249 0.0263509,0.0446 0.0344775,0.0689 0.007268,0.0218 -0.0102793,0.0484 0,0.069 0.007268,0.0145 0.027209,0.0199 0.0344775,0.0345 0.00514,0.0103 0,0.023 0,0.0345 0,0.023 -0.007268,0.0472 0,0.069 0.00514,0.0154 0.027209,0.0199 0.0344775,0.0345 0.00514,0.0103 -0.00514,0.0242 0,0.0345 0.007269,0.0145 0.027209,0.0199 0.0344775,0.0345 0.007362,0.0147 0,0.15876 0,0.17239 0,0.10343 0,0.20686 0,0.31029 0,0.27582 0,0.55164 0,0.82746 0,0.0805 0,0.1609 0,0.24134 0,0.0155 0.005246,0.0929 0,0.10344 -0.007268,0.0145 -0.027209,0.0199 -0.0344775,0.0345 -0.004533,0.009 0,0.11988 0,0.13791 0,0.11493 0,0.22985 0,0.34478 0,0.0345 0,0.069 0,0.10343 0,0.0115 0,0.046 0,0.0345 0,-0.023 0,-0.0919 0,-0.069 0,0.0345 0,0.069 0,0.10344 0,0.0115 0.0114924,0.0345 0,0.0345 -0.0114924,0 -0.0114924,-0.0345 0,-0.0345 0.0162528,0 0.0199406,0.0272 0.0344775,0.0345 0.0102793,0.005 0.0229849,0 0.0344775,0 0.0689549,0 0.13790988,0 0.2068648,0 0.0114924,0 0.0263512,0.008 0.0344775,0 0.008126,-0.008 -0.008126,-0.0263 0,-0.0345 0.008126,-0.008 0.0241983,0.005 0.0344775,0 0.014537,-0.007 0.019941,-0.0272 0.034477,-0.0345 0.010279,-0.005 0.022985,0 0.034477,0 0.040725,0 0.1863625,0.007 0.2068648,0 0.015419,-0.005 0.019941,-0.0272 0.034477,-0.0345 0.027582,-0.0138 0.07585,0.0138 0.1034324,0 0.014537,-0.007 0.019941,-0.0272 0.034478,-0.0345 0.010492,-0.005 0.087905,0 0.1034324,0 0.080447,0 0.1608948,0 0.2413422,0 0.586117,0 1.172234,0 1.7583509,0 0.2643272,0 0.5286544,0 0.7929816,0 0.068955,0 0.1379098,0 0.2068648,0 0.022984,0 0.04597,0 0.068955,0 0.022984,0 0.046656,0.006 0.068955,0 0.024932,-0.006 0.044024,-0.0282 0.068955,-0.0345 0.022299,-0.006 0.046656,0.006 0.068955,0 0.024932,-0.006 0.044024,-0.0283 0.068955,-0.0345 0.054082,-0.0135 0.118305,0.0135 0.1723871,0 0.024932,-0.006 0.044024,-0.0282 0.068955,-0.0345 0.059861,-0.015 0.1470033,0.015 0.2068648,0 0.024932,-0.006 0.044024,-0.0282 0.068955,-0.0345 0.022299,-0.006 0.04597,0 0.068955,0 0.022185,0 0.2180098,0.006 0.2413423,0 0.024932,-0.006 0.043756,-0.0294 0.068955,-0.0345 0.033808,-0.007 0.068955,0 0.1034323,0 0.034478,0 0.069624,-0.007 0.1034325,0 0.025199,0.005 0.044024,0.0282 0.068955,0.0345 0.023334,0.006 0.2191557,0 0.2413423,0 0.1494023,0 0.2988046,0 0.4482071,0 0.3677594,0 0.7355192,0 1.1032789,0 0.1379098,0 0.2758196,0 0.4137295,0 0.034477,0 0.068955,0 0.1034325,0 0.022984,0 0.046416,-0.004 0.068955,0 0.035637,0.007 0.067796,0.0274 0.1034325,0.0345 0.022537,0.005 0.046416,-0.005 0.068955,0 0.035637,0.007 0.067796,0.0274 0.1034322,0.0345 0.045077,0.009 0.09194,0 0.1379101,0 0.09194,0 0.1838796,0 0.2758197,0 0.034477,0 0.068955,0 0.1034322,0 0.022984,0 0.046656,-0.006 0.068955,0 0.024932,0.006 0.044024,0.0282 0.068955,0.0345 0.022299,0.006 0.04597,0 0.068955,0 0.034477,0 0.068955,0 0.1034323,0 0.1264173,0 0.2528347,0 0.3792521,0 0.3299592,0 -0.077094,-0.0154 0.1723872,0.0345 0.03346,0.007 0.234909,0 0.27582,0 0.149402,0 0.298805,0 0.448207,0 0.08045,0 0.160895,0 0.241342,0 0.02299,0 0.04666,0.006 0.06896,0 0.02493,-0.006 0.04458,-0.0263 0.06895,-0.0345 0.03271,-0.0109 0.06999,0.008 0.103433,0 0.02493,-0.006 0.04402,-0.0283 0.06895,-0.0345 0.0446,-0.0111 0.09331,0.0112 0.137909,0 0.02493,-0.006 0.04376,-0.0294 0.06896,-0.0345 0.03381,-0.007 0.06962,0.007 0.103433,0 0.249481,-0.0499 -0.157572,-0.0345 0.172387,-0.0345 0.36776,0 0.735519,0 1.103279,0 0.114925,0 0.22985,0 0.344775,0 0.02298,0 0.04597,0 0.06896,0 0.02298,0 0.04666,0.006 0.06895,0 0.02493,-0.006 0.04402,-0.0282 0.06896,-0.0345 0.0223,-0.006 0.04597,0 0.06895,0 0.09194,0 0.18388,0 0.27582,0 0.02298,0 0.04597,0 0.06896,0 0.02298,0 0.04666,0.006 0.06896,0 0.158468,-0.0396 0.0078,-0.0345 0.103432,-0.0345 0.09194,0 0.18388,0 0.27582,0 0.03448,0 0.06998,0.008 0.103432,0 0.02493,-0.006 0.04458,-0.0263 0.06896,-0.0345 0.0109,-0.004 0.02299,0 0.03448,0 0.02298,0 0.04597,0 0.06895,0 0.09194,0 0.18388,0 0.27582,0 0.05746,0 0.114924,0 0.172387,0 0.02298,0 0.04666,-0.006 0.06896,0 0.02493,0.006 0.04458,0.0263 0.06895,0.0345 0.01945,0.006 0.08078,0 0.103432,0 0.08045,0 0.160895,0 0.241342,0 0.22985,0 0.4597,0 0.68955,0 0.01266,0 0.136522,0.001 0.13791,0 0.0081,-0.008 0.0081,-0.0263 0,-0.0345 -0.0081,-0.008 -0.02635,0.008 -0.03448,0 -0.0081,-0.008 0.0081,-0.0264 0,-0.0345 -0.0081,-0.008 -0.02635,0.008 -0.03448,0 -0.01625,-0.0163 0.01028,-0.0484 0,-0.0689 -0.0073,-0.0145 -0.02721,-0.0199 -0.03448,-0.0345 -0.0051,-0.0103 0.0051,-0.0242 0,-0.0345 -0.0073,-0.0145 -0.02721,-0.0199 -0.03448,-0.0345 -0.01084,-0.0217 0.01083,-0.11624 0,-0.13791 -0.0073,-0.0145 -0.02721,-0.0199 -0.03448,-0.0345 -0.0051,-0.0103 0,-0.023 0,-0.0345 0,-0.0115 0,-0.023 0,-0.0345 0,-0.0325 0.0065,-0.15277 0,-0.17238 -0.0051,-0.0154 -0.02934,-0.0191 -0.03448,-0.0345 -0.0073,-0.0218 0,-0.046 0,-0.069 0,-0.0246 0.0059,-0.18921 0,-0.20686 -0.0051,-0.0154 -0.02721,-0.0199 -0.03448,-0.0345 -0.0052,-0.0105 0,-0.0879 0,-0.10343 0,-0.069 0,-0.13791 0,-0.20686 0,-0.0115 0,-0.023 0,-0.0345 0,-0.0115 0.0081,-0.0263 0,-0.0345 -0.0081,-0.008 -0.02934,0.0103 -0.03448,0 -0.0041,-0.008 0,-0.11526 0,-0.13791 0,-0.12642 0,-0.25283 0,-0.37925 0,-0.1494 0,-0.29881 0,-0.44821 0,-0.024 0.0062,-0.15992 0,-0.17239 -0.0073,-0.0145 -0.02934,-0.019 -0.03448,-0.0345 -0.0065,-0.0196 0,-0.13992 0,-0.17239 0,-0.12642 0,-0.25284 0,-0.37925 0,-0.018 -0.0045,-0.12885 0,-0.13791 0.0073,-0.0145 0.02721,-0.0199 0.03448,-0.0345 0.01084,-0.0217 -0.01084,-0.11624 0,-0.13791 0.0073,-0.0145 0.02721,-0.0199 0.03448,-0.0345 0.0051,-0.0103 0,-0.023 0,-0.0345 0,-0.0115 0,-0.023 0,-0.0345 0,-0.069 0,-0.13791 0,-0.20687 0,-0.0115 0,-0.023 0,-0.0345 0,-0.0115 -0.0081,-0.0263 0,-0.0345 0.0081,-0.008 0.02635,0.008 0.03448,0 0.0081,-0.008 0,-0.023 0,-0.0345 0,-0.024 -0.0062,-0.15992 0,-0.17239 0.0073,-0.0145 0.02721,-0.0199 0.03448,-0.0345 0.01129,-0.0226 -0.0102,-0.1418 0,-0.17239 0.0081,-0.0244 0.02635,-0.0446 0.03448,-0.069 0.0072,-0.0216 0,-0.11015 0,-0.13791 0,-0.0919 0,-0.18388 0,-0.27582 0,-0.13791 0,-0.27582 0,-0.41373 0,-0.0361 0.007,-0.17882 0,-0.20686 -0.0062,-0.0249 -0.02635,-0.0446 -0.03448,-0.069 -0.007,-0.021 0,-0.18023 0,-0.20686 0,-0.0115 0.0051,-0.0242 0,-0.0345 -0.0073,-0.0145 -0.02721,-0.0199 -0.03448,-0.0345 -0.0052,-0.0105 0,-0.0879 0,-0.10343 0,-0.0804 0,-0.16089 0,-0.24134 0,-0.29881 0,-0.59761 0,-0.89641 0,-0.10344 0,-0.20687 0,-0.3103 0,-0.0345 0.0109,-0.0707 0,-0.10343 -0.0051,-0.0154 -0.02721,-0.0199 -0.03448,-0.0345 -0.01026,-0.0205 0.0097,-0.14336 0,-0.17239 -0.0081,-0.0244 -0.02635,-0.0446 -0.03448,-0.0689 -0.0069,-0.0207 0,-0.14488 0,-0.17239 0,-0.069 0,-0.13791 0,-0.20687 0,-0.0345 0.0109,-0.0707 0,-0.10343 -0.0051,-0.0154 -0.02721,-0.0199 -0.03448,-0.0345 -0.0051,-0.0103 0,-0.023 0,-0.0345 0,-0.023 0.0073,-0.0471 0,-0.069 -0.0051,-0.0154 -0.02721,-0.0199 -0.03448,-0.0345 -0.0074,-0.0147 0,-0.15875 0,-0.17238 0,-0.0804 0,-0.1609 0,-0.24135 0,-0.0345 -0.0084,-0.07 0,-0.10343 0.0062,-0.0249 0.02635,-0.0446 0.03448,-0.069 0.0065,-0.0195 0,-0.0808 0,-0.10344 0,-0.0575 0,-0.11492 0,-0.17238 0,-0.0115 0,-0.023 0,-0.0345 0,-0.0115 -0.0051,-0.0242 0,-0.0345 0.0073,-0.0145 0.02721,-0.0199 0.03448,-0.0345 0.01028,-0.0206 -0.01028,-0.0484 0,-0.069 0.0073,-0.0145 0.02721,-0.0199 0.03448,-0.0345 0.0051,-0.0103 0,-0.023 0,-0.0345 0,-0.0115 0,-0.023 0,-0.0345 0,-0.0247 -0.0059,-0.18922 0,-0.20687 0.0051,-0.0154 0.02721,-0.0199 0.03448,-0.0345 0.0052,-0.0105 0,-0.0879 0,-0.10344 0,-0.069 0,-0.13791 0,-0.20686 0,-0.11493 0,-0.22985 0,-0.34478 0,-0.0199 0.0063,-0.15982 0,-0.17238 -0.0073,-0.0145 -0.02934,-0.0191 -0.03448,-0.0345 -0.0064,-0.0191 0,-0.23449 0,-0.27582 0,-0.0115 0,-0.023 0,-0.0345 0,-0.0115 0.0051,-0.0242 0,-0.0345 -0.0073,-0.0145 -0.02721,-0.0199 -0.03448,-0.0345 -0.0052,-0.0105 0,-0.0879 0,-0.10344 0,-0.10343 0,-0.20686 0,-0.31029 0,-0.0244 -0.0045,-0.19795 0,-0.20687 0.0073,-0.0145 0.02934,-0.0191 0.03448,-0.0345 0.0073,-0.0218 0,-0.046 0,-0.0689 0,-0.0115 -0.0051,-0.0242 0,-0.0345 0.0073,-0.0145 0.02934,-0.0191 0.03448,-0.0345 0.0078,-0.0235 -0.0091,-0.15411 0,-0.17239 0.0073,-0.0145 0.02721,-0.0199 0.03448,-0.0345 0.0052,-0.0105 0,-0.0879 0,-0.10343 0,-0.069 0,-0.13791 0,-0.20687 0,-0.0345 -0.0109,-0.0707 0,-0.10343 0.0051,-0.0154 0.02721,-0.0199 0.03448,-0.0345 0.0052,-0.0105 0,-0.1141 0,-0.13791 0,-0.0919 0,-0.18388 0,-0.27582 0,-0.018 -0.0045,-0.12884 0,-0.13791 0.0073,-0.0145 0.02934,-0.019 0.03448,-0.0345 0.0064,-0.0191 0,-0.17215 0,-0.20687 0,-0.1494 0,-0.2988 0,-0.44821 0,-0.4482 0,-0.89641 0,-1.34462 0,-0.16089 0,-0.32179 0,-0.48268 0,-0.0115 0,-0.023 0,-0.0345 0,-0.0115 0.0081,-0.0263 0,-0.0345 -0.0081,-0.008 -0.02635,0.008 -0.03448,0 -0.0094,-0.009 0.0093,-0.1192 0,-0.13791 -0.0073,-0.0145 -0.02721,-0.0199 -0.03448,-0.0345 -0.0051,-0.0103 0.0081,-0.0263 0,-0.0345 -0.007,-0.007 -0.08976,0.007 -0.103432,0 -0.01454,-0.007 -0.01994,-0.0272 -0.03448,-0.0345 -0.02758,-0.0138 -0.07585,0.0138 -0.103432,0 -0.01454,-0.007 -0.01994,-0.0272 -0.03448,-0.0345 -0.01049,-0.005 -0.0879,0 -0.103432,0 -0.06895,0 -0.13791,0 -0.206865,0 -0.114925,0 -0.229849,0 -0.344774,0 -0.01174,0 -0.119251,-0.006 -0.13791,0 -0.02438,0.008 -0.04402,0.0282 -0.06896,0.0345 -0.0223,0.006 -0.04597,0 -0.06895,0 -0.02298,0.0115 -0.04458,0.0263 -0.06896,0.0345 -0.0109,0.004 -0.02298,0 -0.03448,0 -0.02299,0 -0.04597,0 -0.06896,0 -0.103433,0 -0.206865,0 -0.310298,0 -0.03448,0 -0.06998,-0.008 -0.103432,0 -0.02493,0.006 -0.04402,0.0282 -0.06896,0.0345 -0.0446,0.0111 -0.09331,-0.0111 -0.13791,0 -0.02493,0.006 -0.04402,0.0282 -0.06896,0.0345 -0.02622,0.007 -0.143516,0 -0.172387,0 -0.103432,0 -0.206865,0 -0.310297,0 -0.04597,0 -0.09283,-0.009 -0.13791,0 -0.03564,0.007 -0.0678,0.0274 -0.103433,0.0345 -0.02254,0.005 -0.04666,-0.006 -0.06895,0 -0.02493,0.006 -0.04402,0.0282 -0.06896,0.0345 -0.04994,0.0125 -0.15698,-0.01 -0.206865,0 -0.0252,0.005 -0.04402,0.0282 -0.06896,0.0345 -0.03345,0.008 -0.06896,0 -0.103433,0 -0.06895,0 -0.137909,0 -0.206864,0 -0.01149,0 -0.02357,-0.004 -0.03448,0 -0.02438,0.008 -0.04402,0.0282 -0.06895,0.0345 -0.03125,0.008 -0.132336,0 -0.172387,0 -0.02299,0 -0.04715,-0.007 -0.06896,0 -0.01542,0.005 -0.01906,0.0293 -0.03448,0.0345 -0.02181,0.007 -0.04597,0 -0.06896,0 -0.02299,0.0115 -0.04458,0.0263 -0.06895,0.0345 -0.0109,0.004 -0.02299,0 -0.03448,0 -0.02298,0 -0.04597,0 -0.06896,0 -0.05746,0 -0.114925,0 -0.172387,0 -0.195372,0 -0.390745,0 -0.586117,0 -0.195372,0 -0.390745,0 -0.586117,0 -0.05746,0 -0.114925,0 -0.172387,0 -0.03448,0 -0.07072,0.0109 -0.103433,0 -0.01542,-0.005 -0.01906,-0.0293 -0.03448,-0.0345 -0.05172,-0.0172 -0.120671,0.0172 -0.172387,0 -0.01542,-0.005 -0.01906,-0.0293 -0.03448,-0.0345 -0.01578,-0.005 -0.153143,0 -0.172387,0 -0.1379102,0 -0.27582,0 -0.4137298,0 -0.2643273,0 -0.5286545,0 -0.7929817,0 -0.1149249,0 -0.2298499,0 -0.3447748,0 -0.022984,0 -0.04597,0 -0.068955,0 -0.022984,0 -0.046656,0.006 -0.068955,0 -0.024932,-0.006 -0.044024,-0.0282 -0.068955,-0.0345 -0.02622,-0.007 -0.1435163,0 -0.1723874,0 -0.022984,0 -0.046656,0.006 -0.068955,0 -0.024932,-0.006 -0.044024,-0.0282 -0.068955,-0.0345 -0.022299,-0.006 -0.04597,0 -0.068955,0 -0.022984,0 -0.04597,0 -0.068955,0 -0.09194,0 -0.1838799,0 -0.2758197,0 -0.1723874,0 -0.3447748,0 -0.517162,0 -0.057462,0 -0.1149249,0 -0.1723874,0 -0.022984,0 -0.046416,-0.005 -0.068955,0 -0.035637,0.007 -0.068175,0.0257 -0.1034325,0.0345 -0.031164,0.008 -0.1663438,0 -0.2068647,0 -0.2183572,0 -0.4367147,0 -0.6550719,0 -0.080447,0 -0.1608949,0 -0.2413423,0 -0.034477,0 -0.069984,0.008 -0.1034325,0 -0.024932,-0.006 -0.044024,-0.0282 -0.068955,-0.0345 -0.022299,-0.006 -0.04597,0 -0.068955,0 -0.080447,0 -0.1608947,0 -0.2413421,0 -0.022984,0 -0.047149,0.007 -0.068955,0 -0.015417,-0.005 -0.019058,-0.0293 -0.034477,-0.0345 -0.021804,-0.007 -0.04597,0 -0.068955,0 -0.022984,0 -0.04597,0 -0.068955,0 -0.068955,0 -0.1379098,0 -0.2068648,0 -0.022984,0 -0.046656,0.006 -0.068955,0 -0.024932,-0.006 -0.044576,-0.0264 -0.068955,-0.0345 -0.022339,-0.007 -0.1441607,0 -0.1723872,0 -0.1034325,0 -0.206865,0 -0.3102972,0 -0.1034325,0 -0.2068648,0 -0.3102973,0 -0.04597,0 -0.092833,0.009 -0.1379098,0 -0.035637,-0.007 -0.067796,-0.0274 -0.1034325,-0.0345 -0.054582,-0.0109 -0.155252,0.0129 -0.2068648,0 -0.024932,-0.006 -0.043756,-0.0294 -0.068955,-0.0345 -0.033808,-0.007 -0.068955,0 -0.1034325,0 -0.1034322,0 -0.2068647,0 -0.310297,0 -0.022984,0 -0.04597,0 -0.068955,0 -0.022984,0 -0.046656,0.006 -0.068955,0 -0.024932,-0.006 -0.044024,-0.0283 -0.068955,-0.0345 -0.02712,-0.007 -0.1710107,0 -0.2068647,0 -0.068955,0 -0.1379098,0 -0.2068648,0 -0.022985,0 -0.046656,0.006 -0.068955,0 -0.024931,-0.006 -0.044024,-0.0282 -0.068955,-0.0345 -0.033448,-0.008 -0.068955,0 -0.1034324,0 -0.068955,0 -0.1379099,0 -0.2068648,0 -0.011493,0 -0.023575,0.004 -0.034477,0 -0.024379,-0.008 -0.044576,-0.0264 -0.068955,-0.0345 -0.020076,-0.007 -0.1831419,0 -0.2068648,0 -0.1149249,0 -0.2298498,0 -0.3447747,0 -0.057462,0 -0.1149249,0 -0.17238719,0 -0.0114924,0 -0.0263512,-0.008 -0.0344775,0 -0.008126,0.008 0.008126,0.0263 0,0.0345 -0.008126,0.008 -0.0229849,0 -0.0344775,0 -0.0114924,0 -0.0229849,0 -0.0344775,0 -0.0689549,0 -0.13790985,0 -0.20686479,0 -0.0114924,0 -0.0229849,0 -0.0344775,0 -0.0114924,0 -0.0241983,-0.005 -0.0344775,0 -0.014537,0.007 -0.0199406,0.0272 -0.0344775,0.0345 -0.0102791,0.005 -0.0263509,-0.008 -0.0344775,0 -0.008126,0.008 0.008126,0.0263 0,0.0345 -0.008126,0.008 -0.0263512,-0.008 -0.0344775,0 -0.008126,0.008 0,0.023 0,0.0345 -0.0114924,0 -0.0263512,-0.008 -0.0344775,0 -0.008126,0.008 0.008126,0.0263 0,0.0345 -0.008126,0.008 -0.0263512,-0.008 -0.0344775,0 -0.0162528,0.0163 0.0162528,0.0527 0,0.069 -0.008126,0.008 -0.0263512,-0.008 -0.0344775,0 -0.008126,0.008 0.00514,0.0242 0,0.0345 -0.0253651,0.0507 -0.0540964,0.0345 -0.1034324,0.0345"
       id="path1003"
       inkscape:connector-curvature="0" />
  </g>
  <g
     inkscape:label="Layer 1"
     inkscape:groupmode="layer"
     id="layer1"
     transform="translate(0,-280.06665)"
     style="display:inline">
    <path
       style="opacity:1;fill:#ffffff;fill-opacity:1;stroke:#060000;stroke-width:0.26458332;stroke-linecap:round;stroke-miterlimit:3.5999999;stroke-dasharray:none;stroke-opacity:1"
       d="m 2.0238056,282.46969 c -0.011717,0.13791 -0.042567,0.27554 -0.035151,0.41373 0.00449,0.0836 0.049614,0.16018 0.070302,0.24135 0.00284,0.0111 0,0.023 0,0.0345 0,0.0575 0,0.11493 0,0.17239 0,0.10343 0,0.20687 0,0.3103 0,0.0238 -0.00534,0.12743 0,0.13791 0.00741,0.0145 0.027741,0.0199 0.03515,0.0345 0.00524,0.0103 0,0.023 0,0.0345 0,0.0115 0,0.023 0,0.0345 0,0.069 0,0.13791 0,0.20687 0,0.0115 0,0.023 0,0.0345 0,0.0115 -0.00524,0.0242 0,0.0345 0.00741,0.0145 0.027741,0.0199 0.035151,0.0345 0.00521,0.0102 0,0.17352 0,0.20686 0,0.17239 0,0.34478 0,0.51716 0,0.0919 0,0.18388 0,0.27582 0,0.0115 0,0.023 0,0.0345 0,0.0115 -0.00829,0.0263 0,0.0345 0.00829,0.008 0.023434,0 0.035151,0 0.082019,0 0.1640378,0 0.246057,0 0.164038,0 0.3280761,0 0.492114,0 0.026835,0 0.188759,0.007 0.210906,0 0.024855,-0.008 0.045447,-0.0264 0.070302,-0.0345 0.011116,-0.004 0.024672,0.005 0.035152,0 0.01482,-0.007 0.020332,-0.0272 0.03515,-0.0345 0.01048,-0.005 0.023433,0 0.035152,0 0.011718,0 0.023433,0 0.035152,0 0.070302,0 0.140604,0 0.210906,0 0.257774,0 0.5155481,0 0.7733221,0 0.093736,0 0.1874718,0 0.281208,0 0.00835,0 0.1327256,0.004 0.1406039,0 0.01482,-0.007 0.020332,-0.0272 0.035152,-0.0345 0.01048,-0.005 0.023433,0 0.03515,0 0.023433,0 0.048071,0.007 0.070302,0 0.015721,-0.005 0.020332,-0.0272 0.035152,-0.0345 0.010698,-0.005 0.089622,0 0.1054529,0 0.070302,0 0.1406039,0 0.2109062,0 0.011718,0 0.023433,0 0.03515,0 0.011718,0 0.026867,0.008 0.035152,0 0.00829,-0.008 -0.01048,-0.0293 0,-0.0345 0.02096,-0.0103 0.047567,0.006 0.070302,0 0.025419,-0.006 0.044884,-0.0282 0.070302,-0.0345 0.022735,-0.006 0.046868,0 0.070302,0 0.070302,0 0.1406041,0 0.210906,0 0.199189,0 0.3983781,0 0.5975671,0 0.6210011,0 1.2420021,0 1.8630034,0 0.2343398,0 0.46868,0 0.7030198,0 0.08202,0 0.1640382,0 0.2460571,0 0.011719,0 0.024034,0.004 0.035152,0 0.024855,-0.008 0.044884,-0.0282 0.070302,-0.0345 0.052621,-0.0129 0.1552576,0.0109 0.2109061,0 0.036333,-0.007 0.06912,-0.0274 0.1054531,-0.0345 0.02298,-0.005 0.046868,0 0.070302,0 0.046868,0 0.093736,0 0.1406039,0 0.058582,0 0.1183079,-0.0113 0.1757547,0 0.2543561,0.0499 -0.1606492,0.0345 0.1757561,0.0345 0.15232,0 0.304642,0 0.456963,0 0.03515,0 0.0703,0 0.105452,0 0.02344,0 0.04757,0.006 0.0703,0 0.02542,-0.006 0.04489,-0.0283 0.07031,-0.0345 0.02274,-0.006 0.04687,0 0.07031,0 0.08202,0 0.164038,0 0.246057,0 0.03515,0 0.0703,0 0.105453,0 0.02343,0 0.04757,0.006 0.07031,0 0.02542,-0.006 0.04488,-0.0283 0.07031,-0.0345 0.02274,-0.006 0.04733,0.005 0.0703,0 0.03634,-0.007 0.06913,-0.0273 0.105453,-0.0345 0.02298,-0.005 0.04687,0 0.07031,0 0.0703,0 0.140604,0 0.210906,0 0.09374,0 0.187472,0 0.281209,0 0.02343,0 0.04687,0 0.0703,0 0.02344,0 0.04757,-0.006 0.0703,0 0.02542,0.006 0.04489,0.0283 0.07031,0.0345 0.02274,0.006 0.04687,0 0.07031,0 0.04171,0 0.247094,-0.007 0.281208,0 0.02569,0.005 0.04545,0.0264 0.0703,0.0345 0.02278,0.007 0.146976,0 0.175755,0 0.105453,0 0.210906,0 0.316359,0 0.257774,0 0.515548,0 0.773323,0 0.08243,0 -0.01657,-0.008 0.07031,0.0345 0.003,0.001 0.137607,0.001 0.140604,0 0.01482,-0.007 0.02033,-0.0272 0.03515,-0.0345 0.01048,-0.005 0.02343,0 0.03515,0 0.01172,0 0.02344,0 0.03515,0 0.07031,0 0.140604,0 0.210906,0 0.01658,0 0.174162,-0.002 0.175755,0 0.0083,0.008 -0.0083,0.0263 0,0.0345 0.01657,0.0163 0.05373,-0.0163 0.0703,0 0.0083,0.008 -0.0083,0.0264 0,0.0345 0.0083,0.008 0.02343,0 0.03515,0 0.0086,0 0.104323,10e-4 0.105454,0 0.0083,-0.008 -0.0052,-0.0242 0,-0.0345 0.0074,-0.0145 0.02991,-0.0191 0.03515,-0.0345 0.0074,-0.0218 0,-0.046 0,-0.069 0,-0.0115 0.0052,-0.0242 0,-0.0345 -0.0074,-0.0145 -0.02991,-0.0191 -0.03515,-0.0345 -0.01482,-0.0436 0.01137,-0.0933 0,-0.13791 -0.0063,-0.0249 -0.0288,-0.044 -0.03515,-0.069 -0.0057,-0.0223 0.0074,-0.0471 0,-0.069 -0.0052,-0.0154 -0.02991,-0.0191 -0.03515,-0.0345 -0.0074,-0.0218 0,-0.046 0,-0.0689 0,-0.0115 0.0052,-0.0242 0,-0.0345 -0.0074,-0.0145 -0.02774,-0.0199 -0.03515,-0.0345 -0.01048,-0.0206 0.01048,-0.0484 0,-0.069 -0.0074,-0.0145 -0.02991,-0.0191 -0.03515,-0.0345 -0.0074,-0.0218 0,-0.046 0,-0.069 0,-0.0804 0,-0.1609 0,-0.24135 0,-0.12641 0,-0.25283 0,-0.37925 0,-0.0293 0.0064,-0.18786 0,-0.20686 -0.0052,-0.0154 -0.02991,-0.0191 -0.03515,-0.0345 -0.0074,-0.0218 0.0074,-0.0471 0,-0.069 -0.0052,-0.0154 -0.02991,-0.019 -0.03515,-0.0345 -0.0074,-0.0218 0,-0.046 0,-0.069 0,-0.0115 0.0052,-0.0242 0,-0.0345 -0.0074,-0.0145 -0.02991,-0.019 -0.03515,-0.0345 -0.0063,-0.0185 0,-0.10872 0,-0.13791 0,-0.11493 0,-0.22985 0,-0.34478 0,-0.008 0.0011,-0.10232 0,-0.10343 -0.0083,-0.008 -0.02687,0.008 -0.03515,0 -0.0083,-0.008 0.0083,-0.0264 0,-0.0345 -0.02346,-0.023 -0.04685,0.023 -0.07031,0 -0.0083,-0.008 0.01048,-0.0293 0,-0.0345 -0.01494,-0.007 -0.146298,0 -0.175755,0 -0.140604,0 -0.281208,0 -0.421812,0 -0.03655,0 -0.183256,0.007 -0.210907,0 -0.02542,-0.006 -0.04488,-0.0282 -0.0703,-0.0345 -0.02273,-0.006 -0.04687,0 -0.0703,0 -0.02344,0 -0.04687,0 -0.07031,0 -0.105453,0 -0.210906,0 -0.31636,0 -0.09374,0 -0.187471,0 -0.281207,0 -0.04687,0 -0.09438,-0.008 -0.140604,0 -0.02585,0.004 -0.04488,0.0282 -0.07031,0.0345 -0.02274,0.006 -0.04687,0 -0.0703,0 -0.07031,0 -0.140604,0 -0.210906,0 -0.02343,0 -0.04757,-0.006 -0.0703,0 -0.02542,0.006 -0.04488,0.0283 -0.07031,0.0345 -0.04547,0.0112 -0.09513,-0.0111 -0.140605,0 -0.02542,0.006 -0.04488,0.0283 -0.0703,0.0345 -0.02379,0.006 -0.223437,0 -0.246057,0 -0.152321,0 -0.304643,0 -0.456963,0 -0.03515,0 -0.0703,0 -0.105453,0 -0.03515,0 -0.07078,-0.006 -0.105454,0 -0.03655,0.006 -0.0689,0.0285 -0.105452,0.0345 -0.03468,0.006 -0.0703,0 -0.105453,0 -0.03515,0 -0.0703,0 -0.105453,0 -0.03515,0 -0.07065,-0.005 -0.105453,0 -0.04783,0.007 -0.09278,0.0278 -0.140604,0.0345 -0.0348,0.005 -0.07078,-0.006 -0.105453,0 -0.03655,0.006 -0.06878,0.0293 -0.105453,0.0345 -0.0812,0.0114 -0.165154,-0.0132 -0.246057,0 -0.03655,0.006 -0.0689,0.0285 -0.105453,0.0345 -0.03467,0.006 -0.0703,0 -0.1054535,0 -0.046868,0 -0.093736,0 -0.1406041,0 -0.035154,0 -0.070654,0.005 -0.1054526,0 -0.047825,-0.007 -0.09278,-0.0278 -0.1406046,-0.0345 -0.034798,-0.005 -0.070302,0 -0.1054531,0 -0.082019,0 -0.1640379,0 -0.2460569,0 -0.656152,0 -1.3123041,0 -1.9684562,0 -0.1054531,0 -0.2109062,0 -0.316359,0 -0.023433,0 -0.047323,-0.005 -0.070302,0 -0.036333,0.007 -0.06912,0.0274 -0.1054531,0.0345 -0.022977,0.005 -0.046868,0 -0.070302,0 -0.11717,0 -0.2343401,0 -0.3515099,0 -0.035152,0 -0.070985,-0.007 -0.1054531,0 -0.025691,0.005 -0.044458,0.0303 -0.070302,0.0345 -0.1028266,0.0168 -0.213149,-0.0145 -0.3163591,0 -0.047824,0.007 -0.092779,0.0278 -0.140604,0.0345 -0.034798,0.005 -0.070302,0 -0.1054531,0 -0.1054529,0 -0.210906,0 -0.3163588,0 -0.035152,0 -0.070302,0 -0.1054531,0 -0.035152,0 -0.070985,0.007 -0.1054531,0 -0.025691,-0.005 -0.044611,-0.0294 -0.070302,-0.0345 -0.034469,-0.007 -0.070302,0 -0.1054529,0 -0.053313,0 -0.2340134,0.008 -0.2812082,0 -0.036548,-0.006 -0.06912,-0.0274 -0.1054529,-0.0345 -0.02298,-0.005 -0.046868,0 -0.070302,0 -0.070302,0 -0.1406041,0 -0.2109063,0 -0.140604,0 -0.281208,0 -0.4218119,0 -0.1288871,0 -0.2577741,0 -0.3866611,0 -0.058585,0 -0.1183077,0.0113 -0.1757551,0 -0.025691,-0.005 -0.044611,-0.0294 -0.070302,-0.0345 -0.05086,-0.01 -0.1599946,0.0125 -0.2109059,0 -0.025419,-0.006 -0.044884,-0.0282 -0.070302,-0.0345 -0.045468,-0.0111 -0.095135,0.0112 -0.140604,0 -0.025419,-0.006 -0.045447,-0.0263 -0.070302,-0.0345 -0.022775,-0.007 -0.1469769,0 -0.1757551,0 -0.035151,0 -0.072106,-0.0109 -0.1054529,0 -0.015721,0.005 -0.020332,0.0272 -0.035151,0.0345 -0.01048,0.005 -0.024672,-0.005 -0.035152,0 -0.01482,0.007 -0.020328,0.0272 -0.03515,0.0345 -0.022092,0.0108 -0.1185109,-0.0108 -0.140604,0 -0.1608724,0.0789 0.1491603,-0.0143 -0.105453,0.069 -0.019832,0.006 -0.082355,0 -0.105453,0 -0.058585,0 -0.1171701,0 -0.1757551,0"
       id="path1005"
       inkscape:connector-curvature="0" />
    <path
       style="opacity:1;fill:#ffffff;fill-opacity:1;stroke:#060000;stroke-width:0.26458332;stroke-linecap:round;stroke-miterlimit:3.5999999;stroke-dasharray:none;stroke-opacity:1"
       d="m 2.1225232,287.71027 c 0,0.1494 0.00711,0.29897 0,0.44821 -0.00441,0.0926 -0.026089,0.18354 -0.034477,0.27582 -0.00416,0.0458 0,0.0919 0,0.13791 0,0.0804 0,0.16089 0,0.24134 0,0.0575 0,0.11492 0,0.17239 0,0.023 -0.00557,0.0466 0,0.0689 0.00623,0.0249 0.028245,0.044 0.034477,0.069 0.011333,0.0453 -0.014273,0.12956 0,0.17238 0.00514,0.0154 0.030536,0.0187 0.034477,0.0345 0.00619,0.0248 0,0.16885 0,0.20687 0,0.023 -0.00727,0.0471 0,0.069 0.00514,0.0154 0.027209,0.0199 0.034477,0.0345 0.010279,0.0206 -0.010279,0.0484 0,0.069 0.00727,0.0145 0.022984,0.023 0.034478,0.0345 0,0.023 -0.00727,0.0471 0,0.069 0.00514,0.0154 0.027209,0.0199 0.034477,0.0345 0.010279,0.0206 -0.010279,0.0484 0,0.069 0.00727,0.0145 0.027209,0.0199 0.034477,0.0345 0.00514,0.0103 -0.00514,0.0242 0,0.0345 0.00727,0.0145 0.029338,0.0191 0.034477,0.0345 0.010903,0.0327 0,0.069 0,0.10343 0,0.0919 0,0.18388 0,0.27582 0,0.008 -0.00111,0.10233 0,0.10343 0.00813,0.008 0.022984,0 0.034478,0 0.022656,0 0.08398,0.006 0.1034325,0 0.024379,-0.008 0.044024,-0.0282 0.068955,-0.0345 0.022299,-0.006 0.047149,0.007 0.068955,0 0.01542,-0.005 0.019939,-0.0272 0.034477,-0.0345 0.010279,-0.005 0.022984,0 0.034478,0 0.022984,0 0.046656,0.006 0.068955,0 0.024932,-0.006 0.044024,-0.0282 0.068955,-0.0345 0.022299,-0.006 0.046656,0.006 0.068955,0 0.024932,-0.006 0.044024,-0.0282 0.068955,-0.0345 0.022299,-0.006 0.046656,0.006 0.068955,0 0.024932,-0.006 0.044024,-0.0282 0.068955,-0.0345 0.022299,-0.006 0.046656,0.006 0.068955,0 0.024932,-0.006 0.044024,-0.0282 0.068955,-0.0345 0.044598,-0.0111 0.093313,0.0111 0.1379101,0 0.049861,-0.0125 0.087512,-0.0589 0.1379098,-0.069 0.056346,-0.0113 0.114925,0 0.1723872,0 0.022984,0 0.04715,0.007 0.068955,0 0.01542,-0.005 0.019058,-0.0293 0.034478,-0.0345 0.021804,-0.007 0.046656,0.006 0.068955,0 0.024932,-0.006 0.044024,-0.0283 0.068955,-0.0345 0.022299,-0.006 0.04597,0 0.068955,0 0.034478,0 0.068955,0 0.1034325,0 0.1264174,0 0.2528348,0 0.3792522,0 0.04597,0 0.092833,0.009 0.1379098,0 0.2237833,-0.0448 -0.076838,-0.0345 0.1379098,-0.0345 0.09194,0 0.1838799,0 0.2758197,0 0.04597,0 0.092833,0.009 0.1379101,0 0.035637,-0.007 0.067584,-0.0285 0.1034322,-0.0345 0.034009,-0.006 0.068955,0 0.1034325,0 0.141111,0 0.065754,0 0.2068648,0 0.034477,0 0.069424,0.006 0.1034325,0 0.035848,-0.006 0.067584,-0.0285 0.1034322,-0.0345 0.034009,-0.006 0.068955,0 0.1034325,0 0.1034323,0 0.2068648,0 0.3102973,0 0.034477,0 0.069424,0.006 0.1034322,0 0.035848,-0.006 0.067584,-0.0285 0.1034325,-0.0345 0.034008,-0.006 0.068955,0 0.1034322,0 0.034478,0 0.068955,0 0.1034325,0 0.160895,0 0.3217897,0 0.4826847,0 0.034477,0 0.068955,0 0.1034322,0 0.034478,0 0.069424,0.006 0.1034325,0 0.035848,-0.006 0.067584,-0.0285 0.1034323,-0.0345 0.068017,-0.0113 0.1388483,0.0113 0.206865,0 0.035848,-0.006 0.067796,-0.0274 0.1034322,-0.0345 0.02254,-0.005 0.04597,0 0.068955,0 0.080448,0 0.160895,0 0.2413424,0 0.034478,0 0.069424,0.006 0.1034325,0 0.035848,-0.006 0.067584,-0.0285 0.1034322,-0.0345 0.034008,-0.006 0.068955,0 0.1034325,0 0.068955,0 0.1379098,0 0.2068648,0 0.2413423,0 0.4826846,0 0.7240267,0 0.7240269,0 1.4480537,0 2.1720807,0 0.03448,0 0.06895,0 0.103432,0 0.03448,0 0.06963,-0.007 0.103433,0 0.0252,0.005 0.04376,0.0294 0.06895,0.0345 0.03381,0.007 0.06896,0 0.103432,0 0.08045,0 0.160895,0 0.241342,0 0.218358,0 0.436715,0 0.655072,0 0.149402,0 0.298805,0 0.448207,0 0.02663,0 0.185831,-0.007 0.206865,0 0.02438,0.008 0.04458,0.0263 0.06895,0.0345 0.01945,0.006 0.08078,0 0.103432,0 0.05746,0 0.114925,0 0.172388,0 0.218357,0 0.436714,0 0.655072,0 0.09194,0 0.18388,0 0.275819,0 0.0084,0 0.102324,-10e-4 0.103433,0 0.0081,0.008 -0.0081,0.0426 0,0.0345 0.01817,-0.0182 0.02022,-0.0476 0.03448,-0.069 0.009,-0.0135 0.02721,-0.0199 0.03448,-0.0345 0.0049,-0.01 0,-0.21499 0,-0.24134 0,-0.11493 0,-0.22985 0,-0.34478 0,-0.0358 0.0068,-0.17974 0,-0.20686 -0.0062,-0.0249 -0.02825,-0.044 -0.03448,-0.069 -0.0066,-0.0262 0,-0.14352 0,-0.17239 0,-0.0919 0,-0.18388 0,-0.27582 0,-0.023 0,-0.046 0,-0.0689 0,-0.023 0.0073,-0.0471 0,-0.069 -0.0051,-0.0154 -0.02934,-0.019 -0.03448,-0.0345 -0.0073,-0.0218 0,-0.046 0,-0.069 0,-0.0575 0,-0.11492 0,-0.17239 0,-0.0115 0,-0.023 0,-0.0345 0,-0.0115 0.0051,-0.0242 0,-0.0345 -0.0073,-0.0145 -0.02721,-0.0199 -0.03448,-0.0345 -0.01379,-0.0276 0.01379,-0.0759 0,-0.10343 -0.0073,-0.0145 -0.02934,-0.0191 -0.03448,-0.0345 -0.0068,-0.0205 0,-0.16614 0,-0.20686 0,-0.0919 0,-0.18388 0,-0.27582 0,-0.0155 0.0052,-0.0929 0,-0.10344 -0.0073,-0.0145 -0.02934,-0.019 -0.03448,-0.0345 0,-0.15695 0.01625,-0.002 -0.03448,-0.10344 -0.01028,-0.0205 0.01028,-0.0484 0,-0.0689 -0.01454,-0.0291 -0.05442,-0.0399 -0.06896,-0.069 -0.0051,-0.0103 0.0081,-0.0264 0,-0.0345 -0.0081,-0.008 -0.02298,0 -0.03448,0 -0.06896,0 -0.13791,0 -0.206865,0 -0.0358,0 -0.108721,-0.007 -0.13791,0 -0.03526,0.009 -0.0678,0.0274 -0.103433,0.0345 -0.02254,0.005 -0.04666,-0.006 -0.06895,0 -0.02493,0.006 -0.04402,0.0282 -0.06896,0.0345 -0.0223,0.006 -0.04597,0 -0.06895,0 -0.03448,0 -0.06896,0 -0.103433,0 -0.02298,0 -0.04666,-0.006 -0.06895,0 -0.02493,0.006 -0.04376,0.0294 -0.06896,0.0345 -0.05635,0.0113 -0.11664,-0.0139 -0.172387,0 -0.02493,0.006 -0.04376,0.0294 -0.06895,0.0345 -0.05635,0.0113 -0.114925,0 -0.172387,0 -0.13791,0 -0.27582,0 -0.41373,0 -0.04597,0 -0.0924,-0.006 -0.13791,0 -0.03598,0.005 -0.06746,0.0293 -0.103432,0.0345 -0.04551,0.007 -0.09194,0 -0.13791,0 -0.103432,0 -0.206865,0 -0.310297,0 -0.03448,0 -0.06962,-0.007 -0.103433,0 -0.0252,0.005 -0.04376,0.0294 -0.06895,0.0345 -0.03381,0.007 -0.06896,0 -0.103433,0 -0.103432,0 -0.206865,0 -0.310297,0 -0.08045,0 -0.160895,0 -0.241342,0 -0.04597,0 -0.0924,-0.007 -0.13791,0 -0.03598,0.005 -0.06746,0.0293 -0.103433,0.0345 -0.04551,0.007 -0.09194,0 -0.137909,0 -0.05746,0 -0.114925,0 -0.172388,0 -0.241342,0 -0.482684,0 -0.7240268,0 -0.241342,0 -0.4826846,0 -0.7240269,0 -0.057462,0 -0.1149247,0 -0.1723872,0 -0.04597,0 -0.092402,0.007 -0.1379098,0 -0.035977,-0.005 -0.067585,-0.0285 -0.1034325,-0.0345 -0.034009,-0.006 -0.068955,0 -0.1034325,0 -0.04597,0 -0.09194,0 -0.1379098,0 -0.034477,0 -0.069302,0.005 -0.1034323,0 -0.046909,-0.007 -0.090891,-0.0286 -0.1379101,-0.0345 -0.079826,-0.01 -0.1617032,0.0114 -0.241342,0 -0.046909,-0.007 -0.091001,-0.0278 -0.1379099,-0.0345 -0.034131,-0.005 -0.068955,0 -0.1034325,0 -0.080447,0 -0.1608949,0 -0.2413423,0 -0.1379098,0 -0.2758196,0 -0.4137295,0 -0.04597,0 -0.092402,-0.006 -0.1379098,0 -0.035977,0.005 -0.067585,0.0285 -0.1034325,0.0345 -0.034009,0.006 -0.069424,-0.006 -0.1034325,0 -0.035848,0.006 -0.067584,0.0285 -0.1034322,0.0345 -0.034008,0.006 -0.069424,-0.006 -0.1034325,0 -0.035848,0.006 -0.067584,0.0285 -0.1034323,0.0345 -0.034008,0.006 -0.069301,-0.005 -0.1034325,0 -0.046909,0.007 -0.091001,0.0278 -0.1379098,0.0345 -0.034131,0.005 -0.068955,0 -0.1034325,0 -0.114925,0 -0.2298496,0 -0.3447746,0 -0.1149249,0 -0.2298499,0 -0.3447748,0 -0.034477,0 -0.068955,0 -0.1034323,0 -0.034477,0 -0.069424,0.006 -0.1034325,0 -0.035848,-0.006 -0.067584,-0.0285 -0.1034322,-0.0345 -0.068017,-0.0113 -0.1392491,0.0135 -0.206865,0 -0.025199,-0.005 -0.044024,-0.0282 -0.068955,-0.0345 -0.023331,-0.006 -0.2191557,0 -0.2413421,0 -0.057462,0 -0.1149249,0 -0.1723874,0 -0.022984,0 -0.046656,-0.006 -0.068955,0 -0.024932,0.006 -0.043756,0.0294 -0.068955,0.0345 -0.033808,0.007 -0.069424,-0.006 -0.1034325,0 -0.035848,0.006 -0.067796,0.0274 -0.1034325,0.0345 -0.045077,0.009 -0.093312,-0.0111 -0.1379099,0 -0.024932,0.006 -0.043756,0.0294 -0.068955,0.0345 -0.036408,0.007 -0.191481,0 -0.2413423,0 -0.2630159,0 0.027198,-0.0154 -0.1723872,0.0345 -0.055747,0.0139 -0.1160406,-0.0113 -0.1723874,0 -0.025199,0.005 -0.044024,0.0283 -0.068955,0.0345 -0.022299,0.006 -0.046416,-0.005 -0.068955,0 -0.035637,0.007 -0.067584,0.0285 -0.1034325,0.0345 -0.034008,0.006 -0.068955,0 -0.1034322,0 -0.1034325,0 -0.2068648,0 -0.3102973,0 -0.019243,0 -0.1566047,-0.005 -0.1723874,0 -0.01542,0.005 -0.019058,0.0293 -0.034477,0.0345 -0.1569514,0 -0.00198,-0.0163 -0.1034325,0.0345 -0.010493,0.005 -0.087905,0 -0.1034325,0 -0.068955,0 -0.1379099,0 -0.2068647,0 -0.011492,0 -0.022985,0 -0.034477,0 -0.011492,0 -0.024198,-0.005 -0.034477,0 -0.014537,0.007 -0.022985,0.023 -0.034477,0.0345 -0.011492,0.0115 -0.027209,0.0199 -0.034477,0.0345 -0.00514,0.0103 0,0.023 0,0.0345 0,0.0115 0,0.023 0,0.0345 0,0.069 0,0.13791 0,0.20687"
       id="path1007"
       inkscape:connector-curvature="0" />
    <path
       style="opacity:1;fill:#ffffff;fill-opacity:1;stroke:#060000;stroke-width:0.26458332;stroke-linecap:round;stroke-miterlimit:3.5999999;stroke-dasharray:none;stroke-opacity:1"
       d="m 2.0190908,292.22682 c -0.1238873,0.17605 -0.1468519,0.39713 -0.2413423,0.58611 -0.018531,0.0371 -0.053566,0.065 -0.068955,0.10344 -0.00854,0.0213 0,0.046 0,0.0689 0,0.069 0,0.13791 0,0.20687 0,0.12641 0,0.25283 0,0.37925 0,0.0376 -0.00743,0.15009 0,0.17239 0.00813,0.0244 0.026351,0.0446 0.034477,0.069 0.00363,0.0109 0,0.023 0,0.0345 0,0.0401 -0.00781,0.14113 0,0.17239 0.00623,0.0249 0.026351,0.0446 0.034477,0.0689 0.00685,0.0206 0,0.17346 0,0.20687 0,0.0115 -0.00514,0.0242 0,0.0345 0.00727,0.0145 0.029338,0.0191 0.034477,0.0345 0.00727,0.0218 0,0.046 0,0.069 0,0.0115 -0.00514,0.0242 0,0.0345 0.00727,0.0145 0.027209,0.0199 0.034477,0.0345 0.00446,0.009 0,0.18243 0,0.20687 0,0.0226 -0.00648,0.084 0,0.10343 0.00813,0.0244 0.026351,0.0446 0.034477,0.0689 0.00634,0.019 -0.00737,0.13054 0,0.13791 0.00813,0.008 0.026351,-0.008 0.034477,0 0.00813,0.008 -0.00813,0.0263 0,0.0345 0.00813,0.008 0.026351,-0.008 0.034477,0 0.00813,0.008 -0.00813,0.0264 0,0.0345 0.00813,0.008 0.022985,0 0.034477,0 0.09194,0 0.1838799,0 0.2758197,0 0.09194,0 0.1838798,0 0.2758199,0 0.022984,0 0.04597,0 0.068955,0 0.022984,0 0.046656,0.006 0.068955,0 0.024932,-0.006 0.044024,-0.0283 0.068955,-0.0345 0.055747,-0.0139 0.1160407,0.0113 0.1723874,0 0.025199,-0.005 0.043756,-0.0294 0.068955,-0.0345 0.036408,-0.007 0.1914811,0 0.2413421,0 0.022984,0 0.046416,0.005 0.068955,0 0.035636,-0.007 0.067795,-0.0274 0.1034322,-0.0345 0.027105,-0.005 0.2239785,-0.003 0.2413424,0 0.035848,0.006 0.067796,0.0273 0.1034322,0.0345 0.045077,0.009 0.09194,0 0.1379101,0 0.068955,0 0.1379098,0 0.2068647,0 0.022984,0 0.04597,0 0.068955,0 0.022984,0 0.046656,-0.006 0.068955,0 0.024932,0.006 0.044024,0.0283 0.068955,0.0345 0.022299,0.006 0.04597,0 0.068955,0 0.080447,0 0.160895,0 0.2413423,0 0.022984,0 0.046416,-0.005 0.068955,0 0.035637,0.007 0.067796,0.0274 0.1034325,0.0345 0.037337,0.007 0.2044867,0 0.2413421,0 0.1723874,0 0.3447748,0 0.517162,0 0.2183574,0 0.4367146,0 0.6550721,0 0.09194,0 0.1838796,0 0.2758196,0 0.034477,0 0.069424,0.006 0.1034325,0 0.035848,-0.006 0.067795,-0.0274 0.1034323,-0.0345 0.02254,-0.005 0.04597,0 0.068955,0 0.04597,0 0.09194,0 0.1379098,0 0.080448,0 0.160895,0 0.2413423,0 0.2758197,0 0.5516396,0 0.8274593,0 0.09194,0 0.1838798,0 0.2758196,0 0.022984,0 0.046416,0.005 0.068955,0 0.035637,-0.007 0.067796,-0.0273 0.1034325,-0.0345 0.045077,-0.009 0.09194,0 0.1379099,0 0.1034325,0 0.2068647,0 0.3102972,0 0.04597,0 0.092833,0.009 0.1379098,0 0.035637,-0.007 0.067584,-0.0285 0.1034325,-0.0345 0.034008,-0.006 0.068955,0 0.1034323,0 0.09194,0 0.1838798,0 0.2758199,0 0.2758195,0 0.5516393,0 0.8274583,0 0.103433,0 0.206865,0 0.310298,0 0.03448,0 0.06942,0.006 0.103432,0 0.03585,-0.006 0.0678,-0.0274 0.103433,-0.0345 0.05635,-0.0113 0.115706,0.009 0.172387,0 0.03585,-0.006 0.06758,-0.0285 0.103432,-0.0345 0.03401,-0.006 0.06896,0 0.103433,0 0.04597,0 0.09194,0 0.13791,0 0.03448,0 0.06962,0.007 0.103432,0 0.0252,-0.005 0.04376,-0.0294 0.06895,-0.0345 0.06762,-0.0135 0.138848,0.0113 0.206865,0 0.03585,-0.006 0.06758,-0.0285 0.103432,-0.0345 0.03401,-0.006 0.06896,0 0.103433,0 0.06895,0 0.137909,0 0.206864,0 0.09194,0 0.18388,0 0.27582,0 0.03448,0 0.06896,0 0.103432,0 0.03448,0 0.06963,-0.007 0.103433,0 0.0252,0.005 0.04376,0.0294 0.06896,0.0345 0.03381,0.007 0.06895,0 0.103432,0 0.03448,0.0115 0.06818,0.0257 0.103433,0.0345 0.01115,0.003 0.02298,0 0.03448,0 0.02298,0 0.04597,0 0.06895,0 0.04597,0 0.09194,0 0.13791,0 0.02298,0 0.04666,-0.006 0.06895,0 0.02493,0.006 0.04402,0.0282 0.06896,0.0345 0.02622,0.007 0.143516,0 0.172387,0 0.02919,0 0.119375,0.006 0.13791,0 0.01542,-0.005 0.01994,-0.0272 0.03448,-0.0345 0.01028,-0.005 0.02299,0 0.03448,0 0.01149,0 0.02298,0 0.03448,0 0.126418,0 0.252835,0 0.379252,0 0.02398,0 0.15992,0.006 0.172388,0 0.01454,-0.007 0.01994,-0.0272 0.03448,-0.0345 0.0089,-0.004 0.182427,0 0.206865,0 0.01149,0 0.02635,-0.008 0.03448,0 0.0081,0.008 -0.0081,0.0264 0,0.0345 0.01724,0.0172 0.08619,-0.0172 0.103432,0 0.04597,0.046 -0.05746,0.0345 0.03448,0.0345 0.05746,0 0.114925,0 0.172388,0 0.01149,0 0.02635,0.008 0.03448,0 0.0081,-0.008 -0.0081,-0.0263 0,-0.0345 0.0081,-0.008 0.02635,0.008 0.03448,0 0.01625,-0.0163 -0.01625,-0.0527 0,-0.069 0.0081,-0.008 0.02635,0.008 0.03448,0 0.0081,-0.008 -0.0051,-0.0242 0,-0.0345 0.0073,-0.0145 0.02721,-0.0199 0.03448,-0.0345 0.01379,-0.0276 -0.01379,-0.0758 0,-0.10343 0.0073,-0.0145 0.02721,-0.0199 0.03448,-0.0345 0.0051,-0.0103 0,-0.023 0,-0.0345 0,-0.0575 0,-0.11492 0,-0.17238 0,-0.0115 -0.0036,-0.0236 0,-0.0345 0.0081,-0.0244 0.02635,-0.0446 0.03448,-0.069 0.0067,-0.02 0,-0.10803 0,-0.13791 0,-0.0345 0,-0.0689 0,-0.10343 0,-0.023 0.0056,-0.0467 0,-0.0689 -0.0062,-0.0249 -0.02824,-0.044 -0.03448,-0.069 -0.0068,-0.0271 0,-0.17101 0,-0.20686 0,-0.069 0,-0.13791 0,-0.20687 0,-0.023 -0.0045,-0.0464 0,-0.069 0.0071,-0.0356 0.02735,-0.0678 0.03448,-0.10344 0.0045,-0.0225 0,-0.046 0,-0.069 0,-0.069 0,-0.13791 0,-0.20687 0,-0.21835 0,-0.43671 0,-0.65507 0,-0.0689 0,-0.13791 0,-0.20686 0,-0.0115 0.0081,-0.0264 0,-0.0345 -0.0081,-0.008 -0.02635,0.008 -0.03448,0 0,-0.0919 0.01149,0.0115 -0.03448,-0.0345 -0.07134,-0.0713 0.109009,0.003 -0.03448,-0.069 -0.01028,-0.005 -0.02635,0.008 -0.03448,0 -0.07133,-0.0713 0.109009,0.003 -0.03448,-0.069 -0.01028,-0.005 -0.0242,0.005 -0.03448,0 -0.01454,-0.007 -0.01994,-0.0272 -0.03448,-0.0345 -0.01028,-0.005 -0.02635,0.008 -0.03448,0 -0.0081,-0.008 0.0081,-0.0263 0,-0.0345 -0.01625,-0.0163 -0.04715,0.007 -0.06896,0 -0.02438,-0.008 -0.04458,-0.0264 -0.06895,-0.0345 -0.0109,-0.004 -0.02357,0.004 -0.03448,0 -0.02438,-0.008 -0.04458,-0.0263 -0.06895,-0.0345 -0.0109,-0.004 -0.0242,0.005 -0.03448,0 -0.01454,-0.007 -0.02298,-0.023 -0.03448,-0.0345 -0.02299,0 -0.04715,0.007 -0.06896,0 -0.01542,-0.005 -0.01906,-0.0293 -0.03448,-0.0345 -0.04361,-0.0145 -0.09331,0.0112 -0.13791,0 -0.02493,-0.006 -0.04402,-0.0282 -0.06895,-0.0345 -0.0223,-0.006 -0.04666,0.006 -0.06896,0 -0.02493,-0.006 -0.04402,-0.0282 -0.06895,-0.0345 -0.0446,-0.0111 -0.09331,0.0112 -0.13791,0 -0.02493,-0.006 -0.04402,-0.0282 -0.06896,-0.0345 -0.0223,-0.006 -0.04666,0.006 -0.06895,0 -0.02493,-0.006 -0.04402,-0.0282 -0.06896,-0.0345 -0.02333,-0.006 -0.219156,0 -0.241342,0 -0.114925,0 -0.22985,0 -0.344775,0 -0.04597,0 -0.09283,-0.009 -0.13791,0 -0.06924,-0.008 -0.112346,0.0539 -0.172387,0.0689 -0.05161,0.0129 -0.152283,-0.0109 -0.206865,0 -0.03564,0.007 -0.0678,0.0274 -0.103432,0.0345 -0.02254,0.005 -0.04666,-0.006 -0.06895,0 -0.02493,0.006 -0.04376,0.0294 -0.06896,0.0345 -0.03381,0.007 -0.06895,0 -0.103433,0 -0.01149,0 -0.02333,-0.003 -0.03448,0 -0.03526,0.009 -0.0678,0.0274 -0.103433,0.0345 -0.02254,0.005 -0.04666,-0.006 -0.06895,0 -0.02493,0.006 -0.04402,0.0282 -0.06895,0.0345 -0.0223,0.006 -0.04597,0 -0.06896,0 -0.02299,0 -0.04597,0 -0.06895,0 -0.09194,0 -0.18388,0 -0.27582,0 -0.04597,0 -0.09256,-0.008 -0.13791,0 -0.02535,0.004 -0.04402,0.0283 -0.06895,0.0345 -0.0223,0.006 -0.04642,-0.005 -0.06896,0 -0.03564,0.007 -0.0678,0.0274 -0.103432,0.0345 -0.04508,0.009 -0.09194,0 -0.13791,0 -0.08045,0 -0.160895,0 -0.241342,0 -0.02299,0 -0.04642,-0.005 -0.06896,0 -0.03564,0.007 -0.06758,0.0285 -0.103433,0.0345 -0.05668,0.009 -0.114925,0 -0.172387,0 -0.09194,0 -0.18388,0 -0.27582,0 -0.05746,0 -0.11604,-0.0113 -0.1723868,0 -0.0252,0.005 -0.04402,0.0282 -0.06896,0.0345 -0.0223,0.006 -0.04597,0 -0.06895,0 -0.03448,0 -0.06896,0 -0.103432,0 -0.08045,0 -0.160895,0 -0.2413425,0 -0.068955,0 -0.1379101,0 -0.206865,0 -0.022984,0 -0.046656,-0.006 -0.068955,0 -0.024932,0.006 -0.043756,0.0294 -0.068955,0.0345 -0.033808,0.007 -0.068955,0 -0.1034323,0 -0.034478,0 -0.068955,0 -0.1034325,0 -0.022984,0 -0.046416,-0.005 -0.068955,0 -0.035637,0.007 -0.067796,0.0274 -0.1034325,0.0345 -0.022537,0.005 -0.04597,0 -0.068955,0 -0.068955,0 -0.1379098,0 -0.2068648,0 -0.2298498,0 -0.4596995,0 -0.6895494,0 -0.7125342,0 -1.4250685,0 -2.1376028,0 -0.034478,0 -0.068955,0 -0.1034325,0 -0.022984,0 -0.046416,0.005 -0.068955,0 -0.035637,-0.007 -0.067795,-0.0274 -0.1034323,-0.0345 -0.02254,-0.005 -0.04597,0 -0.068955,0 -0.034478,0 -0.068955,0 -0.1034325,0 -0.022984,0 -0.046416,-0.005 -0.068955,0 -0.035637,0.007 -0.067584,0.0285 -0.1034325,0.0345 -0.056681,0.009 -0.1149247,0 -0.1723872,0 -0.1379098,0 -0.2758199,0 -0.4137297,0 -0.080447,0 -0.1608947,0 -0.2413423,0 -0.022984,0 -0.046416,-0.005 -0.068955,0 -0.2269009,0.0454 0.019013,0.0345 -0.2068648,0.0345 -0.05229,0 -0.2295292,0.008 -0.2758196,0 -0.035848,-0.006 -0.067796,-0.0274 -0.1034325,-0.0345 -0.02254,-0.005 -0.04597,0 -0.068955,0 -0.034477,0 -0.068955,0 -0.1034322,0 -0.022984,0 -0.046416,-0.005 -0.068955,0 -0.035637,0.007 -0.067585,0.0285 -0.1034325,0.0345 -0.056681,0.009 -0.114925,0 -0.1723874,0 -0.022984,0 -0.046416,-0.005 -0.068955,0 -0.035637,0.007 -0.067796,0.0273 -0.1034323,0.0345 -0.02254,0.005 -0.04597,0 -0.068955,0 -0.068955,0 -0.1379098,0 -0.2068647,0 -0.022984,0 -0.046656,-0.006 -0.068955,0 -0.024932,0.006 -0.044024,0.0282 -0.068955,0.0345 -0.022299,0.006 -0.04715,-0.007 -0.068955,0 -0.01542,0.005 -0.019942,0.0272 -0.034478,0.0345 -0.010279,0.005 -0.022984,0 -0.034477,0 -0.011493,0 -0.022984,0 -0.034477,0 -0.067827,0 -0.1831195,-0.0106 -0.2413422,0 -0.082317,0.015 -0.1608949,0.046 -0.2413423,0.0689"
       id="path1009"
       inkscape:connector-curvature="0" />
    <path
       style="opacity:1;fill:#ffffff;fill-opacity:1;stroke:#060000;stroke-width:0.26458332;stroke-linecap:round;stroke-miterlimit:3.5999999;stroke-dasharray:none;stroke-opacity:1"
       d="m 3.0080338,282.64208 c -0.08202,0.12642 -0.1640381,0.25284 -0.2460571,0.37925 -0.011718,0.0115 -0.024798,0.0218 -0.035152,0.0345 -0.036597,0.0449 -0.064027,0.0973 -0.1054528,0.13791 -0.018527,0.0182 -0.047836,0.0213 -0.070302,0.0345 -0.036226,0.0213 -0.071656,0.0441 -0.1054531,0.0689 -0.013256,0.01 -0.023433,0.023 -0.035151,0.0345 -0.046868,0.046 -0.093736,0.0919 -0.1406041,0.13791 -0.023433,0.023 -0.042727,0.0509 -0.070302,0.069 -0.0218,0.0143 -0.051776,0.0163 -0.070302,0.0345 -0.00829,0.008 0.00524,0.0242 0,0.0345 -0.02109,0.0414 -0.084363,0.0621 -0.105453,0.10343 -0.00524,0.0103 0.00829,0.0264 0,0.0345 -0.00829,0.008 -0.026866,-0.008 -0.03515,0 -0.00829,0.008 0.00829,0.0263 0,0.0345 -0.00829,0.008 -0.024671,-0.005 -0.03515,0 -0.014821,0.007 -0.021363,0.0255 -0.035151,0.0345 -0.0218,0.0143 -0.051776,0.0163 -0.070302,0.0345 -0.00829,0.008 0,0.023 0,0.0345 -0.023434,0.0115 -0.046868,0.023 -0.070302,0.0345"
       id="path1011"
       inkscape:connector-curvature="0" />
    <path
       style="opacity:1;fill:#ffffff;fill-opacity:1;stroke:#060000;stroke-width:0.26458332;stroke-linecap:round;stroke-miterlimit:3.5999999;stroke-dasharray:none;stroke-opacity:1"
       d="m 4.1680168,283.02133 -1.2654361,1.93074"
       id="path1013"
       inkscape:connector-curvature="0" />
    <path
       style="opacity:1;fill:#ffffff;fill-opacity:1;stroke:#060000;stroke-width:0.26458332;stroke-linecap:round;stroke-miterlimit:3.5999999;stroke-dasharray:none;stroke-opacity:1"
       d="M 5.5740572,283.57297 4.519527,285.02103"
       id="path1015"
       inkscape:connector-curvature="0" />
    <path
       style="opacity:1;fill:#ffffff;fill-opacity:1;stroke:#060000;stroke-width:0.26458332;stroke-linecap:round;stroke-miterlimit:3.5999999;stroke-dasharray:none;stroke-opacity:1"
       d="m 7.4722114,282.84895 c -0.1054531,0.13791 -0.2134563,0.27398 -0.3163591,0.41373 -0.04947,0.0672 -0.095823,0.13658 -0.140604,0.20686 -0.037662,0.0591 -0.065281,0.15761 -0.1054531,0.20687 -0.016366,0.0201 -0.051776,0.0163 -0.070302,0.0345 -0.00829,0.008 0.00524,0.0242 0,0.0345 -0.00741,0.0145 -0.025958,0.021 -0.035151,0.0345 -0.014534,0.0214 -0.020617,0.0476 -0.035151,0.0689 -0.018383,0.027 -0.051919,0.0419 -0.070302,0.069 -0.014534,0.0214 -0.020617,0.0476 -0.03515,0.0689 -0.021332,0.0314 -0.089875,0.0729 -0.1054532,0.10344 -0.00524,0.0103 0.00524,0.0242 0,0.0345 -0.01482,0.0291 -0.055481,0.0399 -0.070302,0.069 -0.00524,0.0103 0.00524,0.0242 0,0.0345 -0.00741,0.0145 -0.027741,0.0199 -0.035152,0.0345 -0.00524,0.0103 0.00524,0.0242 0,0.0345 -0.00741,0.0145 -0.027741,0.0199 -0.035151,0.0345 -0.01048,0.0206 0.01048,0.0484 0,0.069 -0.1165813,0.11435 0.016571,-0.0325 -0.035152,0.069 -0.00741,0.0145 -0.027741,0.0199 -0.035151,0.0345 -0.00524,0.0103 0.00524,0.0242 0,0.0345 -0.00741,0.0145 -0.02774,0.0199 -0.035151,0.0345 -0.00524,0.0103 0.00524,0.0242 0,0.0345 -0.00741,0.0145 -0.027741,0.0199 -0.035151,0.0345 -0.00524,0.0103 0.00524,0.0242 0,0.0345 -0.00741,0.0145 -0.027741,0.0199 -0.035152,0.0345 -0.01048,0.0206 0.016571,0.0527 0,0.0689 -0.00829,0.008 -0.026865,-0.008 -0.035151,0 -0.00829,0.008 0,0.023 0,0.0345 0,0.0115 0,0.023 0,0.0345"
       id="path1017"
       inkscape:connector-curvature="0" />
    <path
       style="opacity:1;fill:#ffffff;fill-opacity:1;stroke:#060000;stroke-width:0.26458332;stroke-linecap:round;stroke-miterlimit:3.5999999;stroke-dasharray:none;stroke-opacity:1"
       d="m 9.2649125,282.98686 c -0.1400407,0.21667 -0.3580466,0.36195 -0.527265,0.55164 -0.017254,0.0193 -0.01943,0.0484 -0.035151,0.069 -0.019883,0.026 -0.046868,0.046 -0.070302,0.069 -0.023433,0.023 -0.046868,0.046 -0.070302,0.0689 -0.011719,0.0115 -0.021364,0.0255 -0.035152,0.0345 -0.021799,0.0142 -0.051776,0.0163 -0.070302,0.0345 -0.018527,0.0182 -0.01943,0.0484 -0.035152,0.0689 -0.032484,0.0425 -0.110771,0.094 -0.1406039,0.13791 -0.014535,0.0214 -0.016625,0.0508 -0.035151,0.069 -0.018527,0.0182 -0.051776,0.0163 -0.070302,0.0345 -0.018527,0.0182 -0.020617,0.0476 -0.035152,0.069 -0.00919,0.0135 -0.023433,0.023 -0.035151,0.0345 -0.046868,0.046 -0.093736,0.0919 -0.1406042,0.13791 -0.011718,0.0115 -0.023433,0.023 -0.035151,0.0345 -0.011718,0.0115 -0.02774,0.0199 -0.035151,0.0345 -0.00524,0.0103 0.00524,0.0242 0,0.0345 -0.01482,0.0291 -0.055481,0.0399 -0.070302,0.0689 -0.00524,0.0103 0.00829,0.0263 0,0.0345 -0.00829,0.008 -0.024672,-0.005 -0.035151,0 -0.01482,0.007 -0.023433,0.023 -0.035152,0.0345 -0.011718,0.0115 -0.027741,0.0199 -0.03515,0.0345 -0.00524,0.0103 0,0.023 0,0.0345 -0.011719,0.0115 -0.027741,0.0199 -0.035152,0.0345 -0.00524,0.0103 0.00524,0.0242 0,0.0345 -0.00741,0.0145 -0.02774,0.0199 -0.03515,0.0345 -0.00524,0.0103 0.00524,0.0242 0,0.0345 -0.00741,0.0145 -0.027741,0.0199 -0.035152,0.0345 -0.00524,0.0103 0,0.023 0,0.0345 0,0.0115 0,0.023 0,0.0345"
       id="path1019"
       inkscape:connector-curvature="0" />
    <path
       style="opacity:1;fill:#ffffff;fill-opacity:1;stroke:#060000;stroke-width:0.26458332;stroke-linecap:round;stroke-miterlimit:3.5999999;stroke-dasharray:none;stroke-opacity:1"
       d="m 10.776406,282.64208 c -0.09374,0.11493 -0.199433,0.22138 -0.281209,0.34478 -0.07139,0.10773 -0.11717,0.22985 -0.175754,0.34477 -0.08035,0.15762 0.0218,-0.0356 -0.105454,0.17239 -0.02696,0.0441 -0.04124,0.0951 -0.07031,0.13791 -0.0092,0.0135 -0.02596,0.021 -0.03515,0.0345 -0.02907,0.0428 -0.04124,0.0951 -0.07031,0.13791 -0.03448,0.0507 -0.1061212,0.0872 -0.1406039,0.13791 -0.014539,0.0214 -0.016629,0.0508 -0.035154,0.069 -0.018525,0.0182 -0.051772,0.0163 -0.070297,0.0345 -0.00826,0.008 0.0052,0.0242 0,0.0345 -0.00744,0.0145 -0.023439,0.023 -0.035154,0.0345 -0.011714,0.0115 -0.021369,0.0255 -0.035154,0.0345 -0.021798,0.0143 -0.048502,0.0202 -0.070302,0.0345 -0.027574,0.018 -0.042728,0.0509 -0.070302,0.0689 -0.1276845,0.0835 -0.024857,-0.0101 -0.1054531,0.069 -0.018505,0.0181 -0.086679,0.0942 -0.1054529,0.10343 -0.01048,0.005 -0.024672,-0.005 -0.035151,0 -0.01482,0.007 -0.023433,0.023 -0.035151,0.0345 -0.011719,0.0115 -0.025961,0.0209 -0.035152,0.0345 -0.014534,0.0214 -0.016624,0.0508 -0.03515,0.069 -0.00829,0.008 -0.024672,-0.005 -0.035152,0 -0.03459,0.017 -0.1060144,0.12095 -0.1406039,0.13791 -0.01048,0.005 -0.026865,-0.008 -0.035152,0 -0.00829,0.008 0.00829,0.0263 0,0.0345 -0.018527,0.0182 -0.055769,0.0131 -0.070302,0.0345 -0.012999,0.0191 0,0.046 0,0.069"
       id="path1021"
       inkscape:connector-curvature="0" />
    <path
       style="opacity:1;fill:#ffffff;fill-opacity:1;stroke:#060000;stroke-width:0.26458332;stroke-linecap:round;stroke-miterlimit:3.5999999;stroke-dasharray:none;stroke-opacity:1"
       d="m 12.287899,282.77999 c -0.08202,0.11493 -0.160243,0.23255 -0.246057,0.34478 -0.05491,0.0718 -0.111046,0.14339 -0.175756,0.20686 -0.01852,0.0182 -0.04984,0.0184 -0.0703,0.0345 -0.03881,0.0305 -0.07031,0.069 -0.105452,0.10343 -0.02343,0.023 -0.05042,0.043 -0.0703,0.069 -0.01572,0.0206 -0.02061,0.0476 -0.03515,0.069 -0.0092,0.0135 -0.02596,0.021 -0.03515,0.0345 -0.02907,0.0428 -0.04124,0.0951 -0.0703,0.13791 -0.0092,0.0135 -0.02343,0.023 -0.03515,0.0345 -0.01171,0.023 -0.02061,0.0476 -0.03515,0.0689 -0.0092,0.0135 -0.02596,0.021 -0.03515,0.0345 -0.118384,0.17417 -2.7e-4,7.9e-4 -0.03515,0.10343 -0.08488,0.24974 0.01009,-0.0544 -0.07031,0.10343 -0.0052,0.0103 0.0083,0.0263 0,0.0345 -0.01853,0.0182 -0.05177,0.0163 -0.07031,0.0345 -0.0083,0.008 0.0037,0.0236 0,0.0345 -0.0083,0.0244 -0.02061,0.0476 -0.03515,0.069 -0.02133,0.0314 -0.08987,0.0729 -0.105452,0.10343 -0.0052,0.0103 0.0052,0.0242 0,0.0345 -0.01482,0.0291 -0.05548,0.0399 -0.07031,0.069 -0.01877,0.0368 0.01876,0.0321 0,0.069 -0.0034,0.007 -0.133877,0.13461 -0.140604,0.13791 -0.01048,0.005 -0.02467,-0.005 -0.03515,0 -0.14629,0.0717 0.03758,-0.002 -0.03515,0.0689 -0.0083,0.008 -0.02467,-0.005 -0.03515,0 -0.01482,0.007 -0.02343,0.023 -0.03515,0.0345"
       id="path1023"
       inkscape:connector-curvature="0" />
    <path
       style="opacity:1;fill:#ffffff;fill-opacity:1;stroke:#060000;stroke-width:0.26458332;stroke-linecap:round;stroke-miterlimit:3.5999999;stroke-dasharray:none;stroke-opacity:1"
       d="m 13.869694,282.84895 c -0.466462,0.78432 -0.04386,0.12631 -0.421812,0.62059 -0.01572,0.0206 -0.01878,0.0489 -0.03515,0.069 -0.03106,0.0381 -0.0703,0.069 -0.105454,0.10343 -0.01171,0.0115 -0.02596,0.021 -0.03515,0.0345 -0.01454,0.0214 -0.02344,0.046 -0.03515,0.0689 -0.02343,0.023 -0.05042,0.043 -0.0703,0.069 -0.01572,0.0206 -0.01943,0.0484 -0.03515,0.0689 -0.01988,0.026 -0.05042,0.043 -0.07031,0.069 -0.03144,0.0411 -0.04124,0.0951 -0.0703,0.13791 -0.05384,0.0792 -0.02008,-0.0148 -0.105453,0.0689 -0.01853,0.0182 -0.02061,0.0476 -0.03515,0.069 -0.0092,0.0135 -0.02774,0.0199 -0.03515,0.0345 -0.0052,0.0103 0.0083,0.0264 0,0.0345 -0.01853,0.0182 -0.05577,0.0131 -0.07031,0.0345 -0.013,0.0191 0.01048,0.0484 0,0.069 -0.0052,0.0103 -0.02687,-0.008 -0.03515,0 -0.0083,0.008 0.0052,0.0242 0,0.0345 -0.0074,0.0145 -0.02774,0.0199 -0.03515,0.0345 -0.0052,0.0103 0.0083,0.0263 0,0.0345 -0.0083,0.008 -0.02686,-0.008 -0.03515,0 -0.0083,0.008 0.0052,0.0242 0,0.0345 -0.01482,0.0291 -0.05548,0.0399 -0.0703,0.069 -0.0052,0.0103 0.0083,0.0263 0,0.0345 -0.0083,0.008 -0.02687,-0.008 -0.03515,0 -0.01853,0.0182 -0.02062,0.0476 -0.03515,0.069 -0.01838,0.027 -0.05191,0.0419 -0.0703,0.0689 -0.01454,0.0214 -0.02344,0.046 -0.03515,0.069"
       id="path1025"
       inkscape:connector-curvature="0" />
    <path
       style="opacity:1;fill:#ffffff;fill-opacity:1;stroke:#060000;stroke-width:0.26458332;stroke-linecap:round;stroke-miterlimit:3.5999999;stroke-dasharray:none;stroke-opacity:1"
       d="m 14.713318,284.09014 c -0.591323,0.72499 -0.08224,0.0693 -0.386661,0.51716 -0.107355,0.15794 0.05713,-0.14655 -0.0703,0.10343 -0.01171,0.023 -0.02344,0.046 -0.03515,0.0689 -0.01172,0.023 -0.03515,0.0433 -0.03515,0.069 4e-6,0.0586 0.02345,0.11496 0.03517,0.17244"
       id="path1027"
       inkscape:connector-curvature="0" />
    <path
       style="opacity:1;fill:#ffffff;fill-opacity:1;stroke:#060000;stroke-width:0.26458332;stroke-linecap:round;stroke-miterlimit:3.5999999;stroke-dasharray:none;stroke-opacity:1"
       d="m 3.3637121,287.39997 c -0.080448,0.11493 -0.1664319,0.22617 -0.2413423,0.34478 -0.029406,0.0466 -0.1638737,0.31689 -0.2413424,0.41373 -0.038669,0.0483 -0.093488,0.0935 -0.1379098,0.13791 -0.011493,0.0115 -0.022984,0.023 -0.034478,0.0345 -0.011494,0.0115 -0.029338,0.0191 -0.034477,0.0345 -0.00727,0.0218 0.00727,0.0471 0,0.069 -0.00514,0.0154 -0.025463,0.021 -0.034478,0.0345 -0.1249907,0.24999 0.036343,-0.0545 -0.068955,0.10344 -0.014256,0.0214 -0.016306,0.0508 -0.034477,0.069 -0.018172,0.0182 -0.047573,0.0202 -0.068955,0.0345 -0.013523,0.009 -0.022984,0.023 -0.034478,0.0345 -0.011493,0.0115 -0.027209,0.0199 -0.034477,0.0345 -0.00514,0.0103 0.00514,0.0242 0,0.0345 -0.014536,0.0291 -0.054418,0.0399 -0.068955,0.069 -0.023778,0.0476 0.041754,0.0308 -0.034477,0.069 -0.010279,0.005 -0.026352,-0.008 -0.034477,0 -0.016253,0.0163 0.016253,0.0527 0,0.069 -0.016253,0.0162 -0.052702,-0.0163 -0.068955,0 -0.00813,0.008 0,0.023 0,0.0345 0,0.0115 0,0.023 0,0.0345"
       id="path1029"
       inkscape:connector-curvature="0" />
    <path
       style="opacity:1;fill:#ffffff;fill-opacity:1;stroke:#060000;stroke-width:0.26458332;stroke-linecap:round;stroke-miterlimit:3.5999999;stroke-dasharray:none;stroke-opacity:1"
       d="m 5.0875852,287.53788 c -0.3452905,0.63304 -0.054874,0.13403 -0.4482071,0.72403 -0.014253,0.0214 -0.018026,0.0492 -0.034477,0.069 -0.052024,0.0624 -0.1149249,0.11493 -0.1723874,0.17239 -0.022984,0.023 -0.049451,0.0429 -0.068955,0.069 -0.030837,0.0411 -0.038117,0.0968 -0.068955,0.13791 -0.032189,0.0429 -0.1330489,0.13304 -0.1723874,0.17238 -0.011494,0.0115 -0.025461,0.021 -0.034477,0.0345 -0.014256,0.0214 -0.016306,0.0508 -0.034478,0.069 -0.018172,0.0182 -0.050784,0.0163 -0.068955,0.0345 -0.018172,0.0182 -0.020222,0.0476 -0.034477,0.069 -0.00901,0.0135 -0.027209,0.0199 -0.034478,0.0345 -0.00514,0.0103 0.00514,0.0242 0,0.0345 -0.016962,0.0339 -0.1209463,0.10399 -0.1379098,0.13791 0,0.0115 0,0.023 0,0.0345 0,0.0115 0.00514,0.0242 0,0.0345 -0.00727,0.0145 -0.022984,0.023 -0.034478,0.0345 0,0.023 0.00727,0.0471 0,0.0689 -0.00514,0.0154 -0.027209,0.0199 -0.034477,0.0345 -0.010279,0.0206 0.010279,0.0484 0,0.0689 -0.00727,0.0145 -0.027209,0.0199 -0.034478,0.0345 -0.00514,0.0103 0.00514,0.0242 0,0.0345 -0.00727,0.0145 -0.027209,0.0199 -0.034477,0.0345 -0.00514,0.0103 0.00514,0.0242 0,0.0345 -0.071744,0.14349 0.00238,-0.0369 -0.068955,0.0345 -0.00813,0.008 0.00514,0.0242 0,0.0345 -0.00727,0.0145 -0.022984,0.023 -0.034477,0.0345"
       id="path1031"
       inkscape:connector-curvature="0" />
    <path
       style="opacity:1;fill:#ffffff;fill-opacity:1;stroke:#060000;stroke-width:0.26458332;stroke-linecap:round;stroke-miterlimit:3.5999999;stroke-dasharray:none;stroke-opacity:1"
       d="m 6.466684,287.43445 c -0.089207,0.23194 -0.2116177,0.55615 -0.3102972,0.79298 -0.00988,0.0237 -0.019058,0.0484 -0.034477,0.069 -0.019502,0.026 -0.050061,0.0425 -0.068955,0.0689 -0.03895,0.0545 -0.066261,0.11663 -0.1034323,0.17239 -0.00901,0.0135 -0.025463,0.0209 -0.034478,0.0345 -0.014256,0.0214 -0.020222,0.0476 -0.034477,0.069 -0.052805,0.0792 -0.019693,-0.0148 -0.1034325,0.069 -0.018172,0.0182 -0.019058,0.0484 -0.034477,0.0689 -0.029255,0.039 -0.076386,0.0629 -0.1034325,0.10343 -0.014256,0.0214 -0.016306,0.0508 -0.034478,0.069 -0.018172,0.0182 -0.050784,0.0163 -0.068955,0.0345 -0.018172,0.0182 -0.020222,0.0476 -0.034477,0.0689 -0.00901,0.0135 -0.022984,0.023 -0.034478,0.0345 -0.011494,0.0115 -0.020955,0.0255 -0.034477,0.0345 -0.021381,0.0143 -0.050784,0.0163 -0.068955,0.0345 -0.00813,0.008 0.00637,0.0249 0,0.0345 -0.022984,0.023 -0.04597,0.046 -0.068955,0.069 0,0.0115 0.00514,0.0242 0,0.0345 -0.00727,0.0145 -0.025463,0.021 -0.034478,0.0345 -0.014256,0.0214 -0.020222,0.0476 -0.034477,0.069 -0.018031,0.027 -0.058676,0.0381 -0.068955,0.0689 -0.00727,0.0218 0.00727,0.0472 0,0.069 -0.00514,0.0154 -0.022984,0.023 -0.034478,0.0345 -0.011493,0.0115 -0.022984,0.023 -0.034478,0.0345 -0.04597,0.046 -0.09194,0.0919 -0.1379098,0.13791 -0.020278,0.0203 -0.1299268,0.12194 -0.1379098,0.13791 -0.00514,0.0103 0.00514,0.0242 0,0.0345 -0.00921,0.0184 -0.085281,0.0853 -0.1034323,0.10343"
       id="path1033"
       inkscape:connector-curvature="0" />
    <path
       style="opacity:1;fill:#ffffff;fill-opacity:1;stroke:#060000;stroke-width:0.26458332;stroke-linecap:round;stroke-miterlimit:3.5999999;stroke-dasharray:none;stroke-opacity:1"
       d="m 7.7768276,287.57236 c -0.1034322,0.10343 -0.2242619,0.192 -0.3102972,0.3103 -0.099803,0.13723 -0.1540402,0.3027 -0.2413421,0.4482 -0.016724,0.0279 -0.050924,0.0419 -0.068955,0.069 -0.028509,0.0428 -0.04597,0.0919 -0.068955,0.13791 -0.011493,0.023 -0.019058,0.0484 -0.034478,0.0689 -0.019502,0.026 -0.049451,0.043 -0.068955,0.069 -0.01542,0.0206 -0.016306,0.0508 -0.034478,0.069 -0.018172,0.0182 -0.050784,0.0163 -0.068955,0.0345 -0.02376,0.0238 -0.078151,0.16894 -0.1034322,0.20687 -0.00901,0.0135 -0.025463,0.0209 -0.034478,0.0345 -0.1502958,0.22545 0.081341,-0.0875 -0.068955,0.13791 -0.00901,0.0135 -0.025461,0.021 -0.034477,0.0345 -0.07596,0.0174 -0.018225,0.0709 -0.034478,0.10343 -0.00727,0.0145 -0.025461,0.021 -0.034477,0.0345 -0.014256,0.0214 -0.020222,0.0476 -0.034478,0.069 -0.00901,0.0135 -0.027209,0.0199 -0.034478,0.0345 -0.00514,0.0103 0.00514,0.0242 0,0.0345 -0.00727,0.0145 -0.027209,0.0199 -0.034477,0.0345 -0.010279,0.0206 0.010279,0.0484 0,0.0689 -0.071744,0.14349 0.00238,-0.0368 -0.068955,0.0345 -0.016253,0.0163 0.016253,0.0527 0,0.069 -0.00813,0.008 -0.024199,-0.005 -0.034478,0 -0.143487,0.0717 0.036858,-0.002 -0.034477,0.0689 -0.00813,0.008 -0.026353,-0.008 -0.034478,0 -0.00813,0.008 0.00813,0.0264 0,0.0345 -0.04597,0.046 -0.034477,-0.0575 -0.034477,0.0345"
       id="path1035"
       inkscape:connector-curvature="0" />
    <path
       style="opacity:1;fill:#ffffff;fill-opacity:1;stroke:#060000;stroke-width:0.26458332;stroke-linecap:round;stroke-miterlimit:3.5999999;stroke-dasharray:none;stroke-opacity:1"
       d="m 8.7077194,287.36549 c -0.022984,0.14941 -0.023437,0.30407 -0.068955,0.44821 -0.1415958,0.44839 -0.067063,0.10154 -0.2068648,0.24134 -0.052034,0.052 -0.0908,0.11586 -0.1379101,0.17239 -0.010403,0.0125 -0.020955,0.0255 -0.034477,0.0345 -0.021381,0.0143 -0.050784,0.0163 -0.068955,0.0345 -0.00813,0.008 0.00813,0.0263 0,0.0345 -0.018172,0.0182 -0.047573,0.0202 -0.068955,0.0345 -0.027047,0.018 -0.04597,0.046 -0.068955,0.069 -0.034478,0.0345 -0.068955,0.069 -0.1034325,0.10343 -0.011494,0.0115 -0.020955,0.0255 -0.034478,0.0345 -0.021381,0.0143 -0.047573,0.0202 -0.068955,0.0345 -0.027046,0.018 -0.039881,0.0544 -0.068955,0.069 -0.010279,0.005 -0.024199,-0.005 -0.034477,0 -0.014536,0.007 -0.020955,0.0255 -0.034478,0.0345 -0.021381,0.0143 -0.047573,0.0202 -0.068955,0.0345 -0.013523,0.009 -0.019942,0.0272 -0.034477,0.0345 -0.010279,0.005 -0.02635,-0.008 -0.034478,0 -0.00813,0.008 0.00813,0.0264 0,0.0345 -0.018172,0.0182 -0.047573,0.0202 -0.068955,0.0345 -0.013523,0.009 -0.022984,0.023 -0.034478,0.0345 -0.011493,0.0115 -0.027209,0.0199 -0.034477,0.0345 -0.00514,0.0103 0.00813,0.0263 0,0.0345 -0.018172,0.0182 -0.050784,0.0163 -0.068955,0.0345 -0.00813,0.008 0.00514,0.0242 0,0.0345 -0.015843,0.0317 -0.1291895,0.11175 -0.1379099,0.13791 -0.00727,0.0218 0.00727,0.0471 0,0.069 -0.00514,0.0154 -0.025463,0.021 -0.034478,0.0345 -0.014256,0.0214 -0.02635,0.0446 -0.034477,0.069 -0.00364,0.0109 0.00364,0.0236 0,0.0345 -0.016253,0.0488 -0.052702,0.0892 -0.068955,0.13791 -0.00364,0.0109 0.00364,0.0236 0,0.0345 -0.00813,0.0244 -0.02635,0.0446 -0.034478,0.069 -0.00364,0.0109 0.00514,0.0242 0,0.0345 -0.020685,0.0414 -0.082746,0.0621 -0.1034325,0.10343 -0.00514,0.0103 0,0.023 0,0.0345 -0.011493,0.0115 -0.025461,0.0209 -0.034477,0.0345 -0.022672,0.034 -0.041739,0.10645 -0.068955,0.10344 -0.197172,-0.0218 -0.3907462,-0.0688 -0.5861193,-0.10315"
       id="path1037"
       inkscape:connector-curvature="0" />
    <path
       style="opacity:1;fill:#ffffff;fill-opacity:1;stroke:#060000;stroke-width:0.26458332;stroke-linecap:round;stroke-miterlimit:3.5999999;stroke-dasharray:none;stroke-opacity:1"
       d="m 10.05234,287.29654 c -0.05746,0.1494 -0.1053068,0.30287 -0.1723868,0.44821 -0.0048,0.0104 -0.02635,-0.008 -0.03448,0 -0.06347,0.0635 -0.118532,0.13505 -0.172388,0.20686 -0.01542,0.0206 -0.01842,0.0489 -0.03448,0.069 -0.03046,0.0381 -0.06896,0.0689 -0.1034326,0.10343 -0.04597,0.046 -0.09194,0.0919 -0.1379098,0.13791 -0.034478,0.0345 -0.068955,0.069 -0.1034325,0.10343 -0.011494,0.0115 -0.020955,0.0255 -0.034478,0.0345 -0.021381,0.0142 -0.048397,0.0191 -0.068955,0.0345 -0.2479956,0.18599 0.072761,-0.0383 -0.1034323,0.13791 -0.018172,0.0182 -0.048396,0.0191 -0.068955,0.0345 -0.026006,0.0195 -0.04597,0.046 -0.068955,0.069 -0.034478,0.0345 -0.068955,0.069 -0.1034325,0.10343 -0.011494,0.0115 -0.020955,0.0255 -0.034478,0.0345 -0.017362,0.076 -0.070927,0.0182 -0.1034322,0.0345 -0.018415,0.009 -0.085281,0.0853 -0.1034325,0.10343 -0.011494,0.0115 -0.022984,0.023 -0.034477,0.0345 -0.011494,0.0115 -0.027209,0.0199 -0.034478,0.0345 -0.00514,0.0103 0.00813,0.0264 0,0.0345 -0.00813,0.008 -0.02635,-0.008 -0.034477,0 -0.00813,0.008 0.00813,0.0264 0,0.0345 -0.00813,0.008 -0.026353,-0.008 -0.034478,0 -0.00813,0.008 0.00813,0.0263 0,0.0345 -0.00813,0.008 -0.02635,-0.008 -0.034477,0 -0.00813,0.008 0.00813,0.0263 0,0.0345 -0.00813,0.008 -0.026352,-0.008 -0.034478,0 -0.00156,0.002 0,0.15613 0,0.17239 0,0.0115 0.00813,0.0263 0,0.0345 -0.00813,0.008 -0.026352,-0.008 -0.034478,0 -0.00813,0.008 0.00813,0.0264 0,0.0345 -0.00813,0.008 -0.02635,-0.008 -0.034477,0 -0.016253,0.0163 0.010279,0.0484 0,0.0689 -0.00727,0.0145 -0.022984,0.023 -0.034478,0.0345 -0.043169,0.0432 -0.068955,0.0736 -0.068955,0.13791"
       id="path1039"
       inkscape:connector-curvature="0" />
    <path
       style="opacity:1;fill:#ffffff;fill-opacity:1;stroke:#060000;stroke-width:0.26458332;stroke-linecap:round;stroke-miterlimit:3.5999999;stroke-dasharray:none;stroke-opacity:1"
       d="m 10.983232,287.29654 c -0.09194,0.18388 -0.18388,0.36776 -0.27582,0.55164 -0.02298,0.046 -0.04045,0.0951 -0.06896,0.13791 -0.03382,0.0507 -0.104088,0.0872 -0.13791,0.13791 -0.01426,0.0214 -0.02022,0.0476 -0.03448,0.0689 -0.0526,0.0789 -0.02729,-0.0215 -0.06895,0.10344 -0.0036,0.0109 0.0081,0.0263 0,0.0345 -0.01817,0.0182 -0.05078,0.0163 -0.06896,0.0345 -0.0081,0.008 0.0036,0.0236 0,0.0345 -0.0081,0.0244 -0.02022,0.0476 -0.03448,0.0689 -0.02705,0.0406 -0.07418,0.0644 -0.103432,0.10344 -0.01542,0.0206 -0.01631,0.0508 -0.03448,0.069 -0.08374,0.0837 -0.05063,-0.0102 -0.103433,0.069 -0.01426,0.0214 -0.02022,0.0476 -0.03448,0.0689 -0.009,0.0135 -0.02721,0.0199 -0.03448,0.0345 -0.0051,0.0103 0.0051,0.0242 0,0.0345 -0.01454,0.0291 -0.05092,0.0419 -0.06895,0.069 -0.01426,0.0214 -0.02022,0.0476 -0.03448,0.069 -0.02652,0.0398 -0.07691,0.0636 -0.103433,0.10343 -0.01426,0.0214 -0.02022,0.0476 -0.03448,0.0689 -0.009,0.0135 -0.02721,0.0199 -0.03448,0.0345 -0.05073,0.10146 0.07987,-0.0454 -0.03448,0.069 -0.114347,0.11434 0.01625,-0.0325 -0.03448,0.069 -0.0073,0.0145 -0.02721,0.0199 -0.03448,0.0345 -0.0051,0.0103 0.0036,0.0236 0,0.0345 -0.0081,0.0244 -0.02635,0.0446 -0.03448,0.0689 -0.0036,0.0109 0.0051,0.0242 0,0.0345 -0.0073,0.0145 -0.02546,0.0209 -0.034478,0.0345 -0.014256,0.0214 -0.016306,0.0508 -0.034478,0.069 -0.00813,0.008 -0.022984,0 -0.034477,0"
       id="path1041"
       inkscape:connector-curvature="0" />
    <path
       style="opacity:1;fill:#ffffff;fill-opacity:1;stroke:#060000;stroke-width:0.26458332;stroke-linecap:round;stroke-miterlimit:3.5999999;stroke-dasharray:none;stroke-opacity:1"
       d="m 12.293376,287.22758 c -0.339289,0.37699 -0.295766,0.30463 -0.586117,0.72403 -0.01463,0.0211 -0.01906,0.0484 -0.03448,0.069 -0.05386,0.0718 -0.118531,0.13505 -0.172387,0.20686 -0.01542,0.0206 -0.02298,0.046 -0.03448,0.069 -0.09408,0.18814 0.02512,-0.0502 -0.06896,0.13791 -0.01149,0.023 -0.01906,0.0484 -0.03448,0.069 -0.0195,0.026 -0.04945,0.0429 -0.06895,0.069 -0.01542,0.0206 -0.01906,0.0484 -0.03448,0.069 -0.0195,0.026 -0.04945,0.043 -0.06895,0.069 -0.01542,0.0206 -0.02022,0.0476 -0.03448,0.0689 -0.009,0.0135 -0.02546,0.021 -0.03448,0.0345 -0.01426,0.0214 -0.02022,0.0476 -0.03448,0.0689 -0.009,0.0135 -0.02546,0.021 -0.03448,0.0345 -0.01465,0.022 -0.09784,0.1845 -0.103432,0.20687 -0.0056,0.0223 0.0073,0.0471 0,0.069 -0.0051,0.0154 -0.02299,0.023 -0.03448,0.0345 -0.01149,0.023 -0.02635,0.0446 -0.03448,0.069 -0.0036,0.0109 0.0051,0.0242 0,0.0345 -0.0073,0.0145 -0.02546,0.021 -0.03448,0.0345 -0.06532,-0.004 -0.02298,0.0805 -0.03448,0.10343 -0.01149,0.0115 -0.02299,0.023 -0.03448,0.0345 -0.01149,0.0115 -0.02721,0.0199 -0.03448,0.0345 -0.0051,0.0103 0.0051,0.0242 0,0.0345 -0.03812,0.0762 -0.0214,0.0107 -0.06896,0.0345 -0.01454,0.007 -0.01994,0.0272 -0.03448,0.0345 -0.04597,0.023 -0.03448,-0.0345 -0.03448,0.0345"
       id="path1043"
       inkscape:connector-curvature="0" />
    <path
       style="opacity:1;fill:#ffffff;fill-opacity:1;stroke:#060000;stroke-width:0.26458332;stroke-linecap:round;stroke-miterlimit:3.5999999;stroke-dasharray:none;stroke-opacity:1"
       d="m 13.362177,287.33102 c -0.08045,0.11492 -0.163527,0.22805 -0.241342,0.34477 -0.08312,0.12468 -0.163206,0.2514 -0.241342,0.37925 -0.04832,0.0791 -0.08232,0.16722 -0.13791,0.24135 -0.01542,0.0205 -0.04757,0.0202 -0.06895,0.0345 -0.07921,0.0528 0.01478,0.0197 -0.06896,0.10344 -0.01817,0.0182 -0.05078,0.0163 -0.06896,0.0345 -0.0081,0.008 0.0036,0.0236 0,0.0345 -0.0081,0.0244 -0.01631,0.0508 -0.03448,0.069 -0.01817,0.0182 -0.04757,0.0202 -0.06895,0.0345 -0.02413,0.0161 -0.163726,0.1594 -0.172388,0.17239 -0.0064,0.01 0.0051,0.0242 0,0.0345 -0.07174,0.14349 0.0024,-0.0369 -0.06895,0.0345 -0.0081,0.008 0.0051,0.0242 0,0.0345 -0.0046,0.009 -0.09428,0.0989 -0.103432,0.10344 -0.01028,0.005 -0.0242,-0.005 -0.03448,0 -0.01454,0.007 -0.02298,0.023 -0.03448,0.0345 -0.01149,0.0115 -0.02721,0.0199 -0.03448,0.0345 -0.0051,0.0103 0.0051,0.0242 0,0.0345 -0.0073,0.0145 -0.02298,0.023 -0.03448,0.0345 -0.01149,0.0115 -0.02721,0.0199 -0.03448,0.0345 -0.01028,0.0206 0.01028,0.0484 0,0.069 -0.0073,0.0145 -0.02934,0.0191 -0.03448,0.0345 -0.0073,0.0218 0.01028,0.0484 0,0.069 -0.0051,0.0103 -0.02934,-0.0103 -0.03448,0 -0.01542,0.0308 0,0.069 0,0.10343"
       id="path1045"
       inkscape:connector-curvature="0" />
    <path
       style="opacity:1;fill:#ffffff;fill-opacity:1;stroke:#060000;stroke-width:0.26458332;stroke-linecap:round;stroke-miterlimit:3.5999999;stroke-dasharray:none;stroke-opacity:1"
       d="m 14.637827,287.33074 c -0.137905,0.35636 -0.275809,0.71272 -0.413713,1.06908 -0.01149,0.046 -0.01784,0.0935 -0.03448,0.13791 -0.02933,0.0782 -0.09724,0.19449 -0.13791,0.27582 -0.01149,0.023 -0.02298,0.046 -0.03448,0.0689 -0.01149,0.023 -0.01906,0.0484 -0.03448,0.069 -0.0195,0.026 -0.04945,0.043 -0.06896,0.069 -0.03084,0.0411 -0.03812,0.0968 -0.06895,0.13791 -0.0195,0.026 -0.04945,0.043 -0.06896,0.069 -0.01542,0.0206 -0.02022,0.0476 -0.03448,0.069 -0.009,0.0135 -0.02546,0.021 -0.03448,0.0345 -0.01426,0.0214 -0.02022,0.0476 -0.03448,0.069 -0.02124,0.0319 -0.04772,0.0371 -0.06896,0.0689 -0.01426,0.0214 -0.02022,0.0476 -0.03448,0.069 -0.009,0.0135 -0.02299,0.023 -0.03448,0.0345 -0.01149,0.0115 -0.02096,0.0255 -0.03448,0.0345 -0.02138,0.0143 -0.04757,0.0202 -0.06896,0.0345 -0.06391,0.0426 -0.0032,0.0345 -0.06895,0.0345"
       id="path1047"
       inkscape:connector-curvature="0" />
    <path
       style="opacity:1;fill:#ffffff;fill-opacity:1;stroke:#060000;stroke-width:0.26458332;stroke-linecap:round;stroke-miterlimit:3.5999999;stroke-dasharray:none;stroke-opacity:1"
       d="m 2.8810274,292.01995 c -0.080447,0.12642 -0.1514361,0.25938 -0.2413423,0.37926 -0.1115306,0.1487 -0.2216266,0.2561 -0.3447746,0.37925 -0.04597,0.046 -0.09194,0.0919 -0.1379098,0.13791 -0.022985,0.023 -0.04295,0.0494 -0.068955,0.0689 -0.020558,0.0154 -0.048396,0.0191 -0.068955,0.0345 -0.042918,0.0322 -0.1330489,0.13305 -0.1723873,0.17239 -0.022985,0.023 -0.04597,0.046 -0.068955,0.069 -0.011492,0.0115 -0.025462,0.021 -0.034477,0.0345 -0.014255,0.0214 -0.020223,0.0476 -0.034477,0.069 -0.00902,0.0135 -0.025462,0.021 -0.034477,0.0345 -0.014255,0.0214 -0.020223,0.0476 -0.034477,0.069 -0.00902,0.0135 -0.025462,0.021 -0.034477,0.0345 -0.039617,0.0594 -0.034477,0.0521 -0.034477,0.10344"
       id="path1049"
       inkscape:connector-curvature="0" />
    <path
       style="opacity:1;fill:#ffffff;fill-opacity:1;stroke:#060000;stroke-width:0.26458332;stroke-linecap:round;stroke-miterlimit:3.5999999;stroke-dasharray:none;stroke-opacity:1"
       d="m 4.3290812,292.50264 c -0.6025965,0.43173 -0.154677,0.23423 -0.3102973,0.4482 -0.077071,0.10598 -0.1642716,0.20433 -0.2413423,0.3103 -0.015116,0.0208 -0.018026,0.0492 -0.034478,0.069 -0.041619,0.0499 -0.096291,0.088 -0.1379098,0.13791 -0.016452,0.0197 -0.019058,0.0484 -0.034477,0.069 -0.1623917,0.21652 0.030834,-0.10885 -0.1379098,0.17239 -0.013221,0.022 -0.021257,0.0469 -0.034478,0.0689 -0.02132,0.0355 -0.047636,0.0679 -0.068955,0.10344 -0.064453,0.10742 -0.00177,0.0453 -0.1034325,0.17238 -0.020307,0.0254 -0.049451,0.043 -0.068955,0.069 -0.030838,0.0411 -0.038117,0.0968 -0.068955,0.13791 -0.029255,0.039 -0.076386,0.0629 -0.1034323,0.10343 -0.014256,0.0214 -0.019058,0.0484 -0.034478,0.069 -0.149125,0.14912 -0.0054,-0.009 -0.1034323,0.13791 -0.00901,0.0135 -0.029338,0.019 -0.034478,0.0345 -0.00727,0.0218 0.00727,0.0471 0,0.069 -0.00514,0.0154 -0.025461,0.0209 -0.034478,0.0345 -0.014256,0.0214 -0.020222,0.0476 -0.034477,0.0689 -0.03722,0.0558 -0.068955,0.0242 -0.068955,0.10343"
       id="path1051"
       inkscape:connector-curvature="0" />
    <path
       style="opacity:1;fill:#ffffff;fill-opacity:1;stroke:#060000;stroke-width:0.26458332;stroke-linecap:round;stroke-miterlimit:3.5999999;stroke-dasharray:none;stroke-opacity:1"
       d="m 5.9150444,292.08891 c -0.1323416,0.19249 -0.4192976,0.566 -0.5516393,0.7585 -0.037964,0.0552 -0.073464,0.11245 -0.1034325,0.17239 -0.016253,0.0325 -0.01578,0.0723 -0.034477,0.10343 -0.016724,0.0279 -0.04597,0.046 -0.068955,0.069 -0.085539,0.0855 -0.1427126,0.13442 -0.206865,0.24134 -0.013221,0.022 -0.024934,0.0451 -0.034477,0.0689 -0.013496,0.0337 -0.01578,0.0723 -0.034478,0.10344 -0.016724,0.0279 -0.054418,0.0399 -0.068955,0.0689 -0.060193,0.12039 -0.00272,0.11855 -0.068955,0.20687 -0.019502,0.026 -0.049451,0.0429 -0.068955,0.0689 -0.01542,0.0206 -0.019058,0.0484 -0.034478,0.069 -0.019502,0.026 -0.049451,0.043 -0.068955,0.0689 -0.015417,0.0206 -0.016306,0.0508 -0.034477,0.069 -0.018172,0.0182 -0.050784,0.0163 -0.068955,0.0345 -0.00813,0.008 0.00637,0.0249 0,0.0345 -0.033822,0.0507 -0.1040882,0.0872 -0.1379098,0.13791 -0.014256,0.0214 -0.020222,0.0476 -0.034478,0.069 -0.018031,0.027 -0.050924,0.0419 -0.068955,0.069 -0.014256,0.0214 -0.020222,0.0476 -0.034478,0.069 -0.018031,0.027 -0.04597,0.046 -0.068955,0.0689"
       id="path1053"
       inkscape:connector-curvature="0" />
    <path
       style="opacity:1;fill:#ffffff;fill-opacity:1;stroke:#060000;stroke-width:0.26458332;stroke-linecap:round;stroke-miterlimit:3.5999999;stroke-dasharray:none;stroke-opacity:1"
       d="m 7.5354856,292.29577 c -0.080448,0.12642 -0.1532086,0.25807 -0.2413424,0.37925 -0.096071,0.1321 -0.209383,0.25082 -0.3102972,0.37926 -0.025601,0.0326 -0.045192,0.0695 -0.068955,0.10343 -0.056694,0.081 -0.111692,0.1633 -0.1723874,0.24134 -0.019958,0.0257 -0.049451,0.043 -0.068955,0.069 -0.01542,0.0206 -0.019058,0.0484 -0.034477,0.069 -0.042333,0.0564 -0.095577,0.0815 -0.1379101,0.13791 -0.015417,0.0206 -0.019058,0.0484 -0.034477,0.069 -0.1693333,0.22577 0.031423,-0.0879 -0.1379098,0.13791 -0.01542,0.0205 -0.021257,0.0469 -0.034478,0.0689 -0.02132,0.0355 -0.050424,0.0664 -0.068955,0.10343 -0.016253,0.0325 -0.01578,0.0723 -0.034477,0.10344 -0.033448,0.0557 -0.098903,0.0859 -0.1379101,0.13791 -0.015417,0.0206 -0.020222,0.0476 -0.034477,0.0689 -0.00901,0.0135 -0.025461,0.021 -0.034478,0.0345 -0.014256,0.0214 -0.020222,0.0476 -0.034477,0.0689 -0.00901,0.0135 -0.027209,0.0199 -0.034478,0.0345 -0.00514,0.0103 0.00514,0.0242 0,0.0345 -0.00727,0.0145 -0.025461,0.021 -0.034477,0.0345 -0.014256,0.0214 -0.020222,0.0476 -0.034478,0.0689 -0.018031,0.0271 -0.054418,0.0399 -0.068955,0.069 -0.00514,0.0103 0.00514,0.0242 0,0.0345 -0.014536,0.0291 -0.054418,0.0399 -0.068955,0.069 -0.00514,0.0103 0.00514,0.0242 0,0.0345 -0.00727,0.0145 -0.022984,0.023 -0.034477,0.0345 -0.011494,0.0115 -0.022984,0.023 -0.034478,0.0345"
       id="path1055"
       inkscape:connector-curvature="0" />
    <path
       style="opacity:1;fill:#ffffff;fill-opacity:1;stroke:#060000;stroke-width:0.26458332;stroke-linecap:round;stroke-miterlimit:3.5999999;stroke-dasharray:none;stroke-opacity:1"
       d="m 8.6042869,292.33025 c -0.1349121,0.27934 -0.3026982,0.541 -0.4826844,0.79298 -0.033399,0.0468 -0.066646,0.0938 -0.1034325,0.13791 -0.02081,0.025 -0.052231,0.0411 -0.068955,0.069 -0.018698,0.0312 -0.018225,0.0709 -0.034478,0.10343 -0.018531,0.0371 -0.043069,0.0711 -0.068955,0.10343 -0.020307,0.0254 -0.054418,0.0399 -0.068955,0.069 -0.010279,0.0205 0.00854,0.0476 0,0.0689 -0.015388,0.0385 -0.050424,0.0664 -0.068955,0.10343 -0.016253,0.0325 -0.020981,0.0697 -0.034477,0.10344 -0.021571,0.0539 -0.07345,0.15689 -0.1034325,0.20686 -0.02132,0.0355 -0.047636,0.0679 -0.068955,0.10343 -0.026442,0.0441 -0.040446,0.0952 -0.068955,0.13791 -0.00901,0.0135 -0.025461,0.021 -0.034478,0.0345 -0.014256,0.0214 -0.019058,0.0484 -0.034477,0.069 -0.019502,0.026 -0.050924,0.0419 -0.068955,0.069 -0.00637,0.01 0.00514,0.0242 0,0.0345 -0.00727,0.0145 -0.022984,0.023 -0.034478,0.0345 -0.011494,0.0115 -0.020955,0.0255 -0.034477,0.0345 -0.021381,0.0143 -0.0547,0.0131 -0.068955,0.0345 -0.01275,0.0191 0.010279,0.0484 0,0.069 -0.00514,0.0103 -0.024199,-0.005 -0.034478,0 -0.014536,0.007 -0.022984,0.023 -0.034477,0.0345 -0.011493,0.0115 -0.022984,0.023 -0.034478,0.0345 -0.011494,0.0115 -0.027209,0.0199 -0.034478,0.0345 -0.00514,0.0103 0.00813,0.0263 0,0.0345 -0.00813,0.008 -0.024199,-0.005 -0.034477,0 -0.014536,0.007 -0.022984,0.023 -0.034478,0.0345 -0.011493,0.0115 -0.022984,0.023 -0.034477,0.0345"
       id="path1057"
       inkscape:connector-curvature="0" />
    <path
       style="opacity:1;fill:#ffffff;fill-opacity:1;stroke:#060000;stroke-width:0.26458332;stroke-linecap:round;stroke-miterlimit:3.5999999;stroke-dasharray:none;stroke-opacity:1"
       d="m 9.9144312,292.12339 c -0.318655,0.43814 -0.218834,0.32849 -0.5861176,0.72402 -0.044237,0.0476 -0.09194,0.0919 -0.1379098,0.13791 -0.04597,0.046 -0.087144,0.0973 -0.1379099,0.13791 -0.032357,0.0259 -0.071076,0.0431 -0.1034322,0.069 -0.025381,0.0203 -0.042951,0.0495 -0.068955,0.069 -0.020558,0.0154 -0.048397,0.0191 -0.068955,0.0345 -0.026003,0.0195 -0.04295,0.0495 -0.068955,0.069 -0.1006816,0.0755 -0.047428,-0.0172 -0.1379098,0.10344 -0.030838,0.0411 -0.038117,0.0968 -0.068955,0.13791 -0.019502,0.026 -0.049451,0.0429 -0.068955,0.0689 -0.030837,0.0411 -0.038117,0.0968 -0.068955,0.13791 -0.029255,0.039 -0.076386,0.0629 -0.1034325,0.10343 -0.028509,0.0428 -0.040446,0.0951 -0.068955,0.13791 -0.00901,0.0135 -0.025461,0.021 -0.034477,0.0345 -0.014256,0.0214 -0.020222,0.0476 -0.034478,0.069 -0.00901,0.0135 -0.027209,0.0199 -0.034477,0.0345 -0.00514,0.0103 0.00363,0.0236 0,0.0345 -0.016253,0.0488 -0.052702,0.0892 -0.068955,0.13791 -0.00364,0.0109 0.00364,0.0236 0,0.0345 -0.021027,0.0631 -0.059052,0.0935 -0.1034325,0.13791 -0.011494,0.0115 -0.027209,0.0199 -0.034478,0.0345 -0.00514,0.0103 0.00514,0.0242 0,0.0345 -0.00727,0.0145 -0.022984,0.023 -0.034477,0.0345 -0.011494,0.0115 -0.022984,0.023 -0.034477,0.0345"
       id="path1059"
       inkscape:connector-curvature="0" />
    <path
       style="opacity:1;fill:#ffffff;fill-opacity:1;stroke:#060000;stroke-width:0.26458332;stroke-linecap:round;stroke-miterlimit:3.5999999;stroke-dasharray:none;stroke-opacity:1"
       d="m 10.983232,292.22682 c -0.14686,0.17416 -0.213027,0.40167 -0.344775,0.58611 -0.01889,0.0265 -0.04814,0.044 -0.06896,0.069 -0.03679,0.0441 -0.06665,0.0938 -0.103432,0.13791 -0.02081,0.025 -0.04865,0.0436 -0.06895,0.0689 -0.02588,0.0324 -0.04307,0.0711 -0.06896,0.10344 -0.074,0.0925 -0.07283,0.0583 -0.172387,0.13791 -0.02538,0.0203 -0.04597,0.046 -0.06895,0.0689 -0.02299,0.023 -0.04865,0.0436 -0.06896,0.069 -0.02588,0.0324 -0.04307,0.0711 -0.06895,0.10343 -0.02031,0.0254 -0.04945,0.043 -0.06896,0.069 -0.01542,0.0206 -0.01906,0.0484 -0.03448,0.069 -0.0195,0.026 -0.04597,0.046 -0.06896,0.0689 -0.03934,0.0393 -0.140198,0.12947 -0.172387,0.17239 -0.01542,0.0206 -0.01906,0.0484 -0.03448,0.069 -0.0195,0.026 -0.049452,0.043 -0.068955,0.0689 -0.030837,0.0411 -0.032613,0.10157 -0.068955,0.13791 -0.018172,0.0182 -0.050784,0.0163 -0.068955,0.0345 -0.018172,0.0182 -0.020222,0.0476 -0.034478,0.069 -0.00901,0.0135 -0.025461,0.021 -0.034477,0.0345 -0.014256,0.0214 -0.020222,0.0476 -0.034478,0.069 -0.00901,0.0135 -0.022984,0.023 -0.034477,0.0345 -0.011494,0.0115 -0.019942,0.0272 -0.034478,0.0345 -0.010279,0.005 -0.02635,-0.008 -0.034477,0 -0.00813,0.008 0.00514,0.0242 0,0.0345 -0.00727,0.0145 -0.027209,0.0199 -0.034478,0.0345 -0.00514,0.0103 0.00813,0.0263 0,0.0345 -0.00813,0.008 -0.02635,-0.008 -0.034477,0 -0.00813,0.008 0.00813,0.0264 0,0.0345 -0.00813,0.008 -0.026352,-0.008 -0.034478,0 -0.039617,0.0396 -0.034477,0.061 -0.034477,0.10343"
       id="path1061"
       inkscape:connector-curvature="0" />
    <path
       style="opacity:1;fill:#ffffff;fill-opacity:1;stroke:#060000;stroke-width:0.26458332;stroke-linecap:round;stroke-miterlimit:3.5999999;stroke-dasharray:none;stroke-opacity:1"
       d="m 12.224421,292.19234 c -0.669848,0.83731 0.04256,-0.0805 -0.448207,0.62059 -0.01864,0.0266 -0.04597,0.046 -0.06896,0.069 -0.03448,0.0345 -0.07297,0.0654 -0.103433,0.10343 -0.05573,0.0697 -0.04989,0.16995 -0.103432,0.24134 -0.0195,0.026 -0.05442,0.0399 -0.06895,0.069 -0.01028,0.0206 0.01275,0.0498 0,0.069 -0.01426,0.0214 -0.05078,0.0163 -0.06896,0.0345 -0.02376,0.0238 -0.07815,0.16895 -0.103432,0.20687 -0.009,0.0135 -0.02934,0.019 -0.03448,0.0345 -0.0073,0.0218 0.0073,0.0471 0,0.069 -0.0051,0.0154 -0.02546,0.0209 -0.03448,0.0345 -0.02851,0.0428 -0.04045,0.0951 -0.06896,0.13791 -0.009,0.0135 -0.02721,0.0199 -0.03448,0.0345 -0.0051,0.0103 0.0036,0.0236 0,0.0345 -0.08324,0.24974 0.0099,-0.0544 -0.06896,0.10343 -0.0051,0.0103 0.0051,0.0242 0,0.0345 -0.01454,0.0291 -0.05092,0.0419 -0.06895,0.069 -0.01426,0.0214 -0.01631,0.0508 -0.03448,0.069 -0.0081,0.008 -0.02635,-0.008 -0.03448,0 -0.0081,0.008 0.0081,0.0263 0,0.0345 -0.01817,0.0182 -0.05078,0.0163 -0.06896,0.0345 -0.0081,0.008 0.0081,0.0263 0,0.0345 -0.01817,0.0182 -0.05078,0.0163 -0.06895,0.0345 -0.01817,0.0182 -0.02022,0.0476 -0.03448,0.069 -0.01803,0.027 -0.04597,0.046 -0.06896,0.069"
       id="path1063"
       inkscape:connector-curvature="0" />
    <path
       style="opacity:1;fill:#ffffff;fill-opacity:1;stroke:#060000;stroke-width:0.26458332;stroke-linecap:round;stroke-miterlimit:3.5999999;stroke-dasharray:none;stroke-opacity:1"
       d="m 13.637997,292.01995 c -0.289166,0.36146 -0.23788,0.27005 -0.448207,0.6206 -0.01322,0.022 -0.01906,0.0484 -0.03448,0.0689 -0.0195,0.026 -0.05223,0.0411 -0.06895,0.069 -0.0187,0.0312 -0.01822,0.0709 -0.03448,0.10343 -0.01853,0.0371 -0.05042,0.0664 -0.06896,0.10343 -0.01625,0.0325 -0.02298,0.069 -0.03448,0.10343 -0.02467,0.074 -0.03091,0.10898 -0.06896,0.17239 -0.02132,0.0355 -0.04764,0.0679 -0.06895,0.10343 -0.03929,0.0655 -0.0611,0.14337 -0.103433,0.20687 -0.009,0.0135 -0.02934,0.0191 -0.03448,0.0345 -0.0073,0.0218 0.0056,0.0466 0,0.0689 -0.0056,0.0224 -0.08879,0.18489 -0.103433,0.20687 -0.01803,0.027 -0.05092,0.0419 -0.06896,0.0689 -0.07596,0.0174 -0.01822,0.0709 -0.03448,0.10343 -0.01317,0.0263 -0.09565,0.0801 -0.103432,0.10344 -0.0073,0.0218 0.01028,0.0484 0,0.069 -0.0051,0.0103 -0.02492,-0.006 -0.03448,0 -0.02705,0.018 -0.05092,0.0419 -0.06896,0.069 -0.0064,0.01 0.0081,0.0263 0,0.0345 -0.01817,0.0182 -0.05078,0.0163 -0.06895,0.0345 -0.0081,0.008 0.0081,0.0264 0,0.0345 -0.01817,0.0182 -0.04757,0.0202 -0.06896,0.0345 -0.02705,0.018 -0.04597,0.046 -0.06896,0.069"
       id="path1065"
       inkscape:connector-curvature="0" />
    <path
       style="opacity:1;fill:#ffffff;fill-opacity:1;stroke:#060000;stroke-width:0.26458332;stroke-linecap:round;stroke-miterlimit:3.5999999;stroke-dasharray:none;stroke-opacity:1"
       d="m 14.258591,292.77846 c -0.08977,0.53861 -0.0131,0.29846 -0.241342,0.79298 -0.03231,0.07 -0.06067,0.14272 -0.103432,0.20686 -0.01803,0.0271 -0.04945,0.043 -0.06895,0.069 -0.03084,0.0411 -0.03812,0.0968 -0.06896,0.13791 -0.0195,0.026 -0.05442,0.0399 -0.06895,0.069 -0.01028,0.0206 0.01028,0.0484 0,0.069 -0.01454,0.0291 -0.05092,0.0419 -0.06896,0.0689 -0.0064,0.01 0.0036,0.0236 0,0.0345 -0.08324,0.24974 0.0099,-0.0544 -0.06895,0.10343 -0.0051,0.0103 0.0051,0.0242 0,0.0345 -0.0073,0.0145 -0.02299,0.023 -0.03448,0.0345 -0.01149,0.0115 -0.02298,0.023 -0.03448,0.0345"
       id="path1067"
       inkscape:connector-curvature="0" />
  </g>
</svg>
